<?xml version='1.0' encoding='utf-8'?>
<svg xmlns="http://www.w3.org/2000/svg" enable-background="new 0 0 1653.098 1653.098" version="1.1" viewBox="0 0 1653.098 1653.098">
	<path d="m1610.4 1008c-2.812-0.649-3.387-0.572-4.967 0.629-2.882 2.193-3.896 3.576-5.494 7.51-0.63 1.552-1.125 3.41-1.482 5.501-0.353 2.093-0.567 4.42-0.729 6.887-0.28 4.945-0.018 10.538 0.809 16.202 0.336 2.165 0.289 4.306 0.039 4.79-0.43 0.78-0.685 0.674-2.403-0.966-1.624-1.548-2.212-1.801-3.769-1.648-4.039 0.403-4.727 4.431-1.765 10.221 2.237 4.371 1.394 8.694-1.282 11.377-2.639 2.7-6.952 3.793-11.559 1.903-4.529-1.858-6.694-5.856-6.009-11.067 0.321-2.667 2.532-5.414 6.343-7.782 6.19-3.88 3.96-11.03-2.716-8.649-3.287 1.155-3.923 0.811-2.73-1.443 0.543-1.023 1.583-2.535 2.268-3.373 1.335-1.584 6.8-9.016 10.089-13.75 1.391-1.949 2.282-4.395 3.221-8.194 1.695-6.965 0.984-10.493-2.784-13.684-3.129-2.616-5.587-2.931-8.773-1.219-1.998 1.063-2.441 1.63-2.976 3.821-0.346 1.416-0.352 2.89-0.014 3.276s1.939 1.067 3.558 1.514c3.529 0.973 5.353 2.812 5.507 5.565 0.055 1.102-0.703 3.791-1.772 6.498-1.107 2.698-2.471 5.425-3.466 6.661-1.887 2.342-3.431 4.63-6.438 9.525-4.66 7.224-5.716 9.325-6.806 13.781-0.438 1.778-0.652 3.009-0.66 4.294-0.033 1.278 0.151 2.612 0.533 4.61 1.512 7.884 6.597 13.017 15.021 14.907 3.577 0.813 12.692 0.023 13.064-1.123 0.106-0.327 1.104-1.207 2.219-1.96 2.469-1.695 3.846-3.954 6.07-11.287 1.767-5.706 2.412-10.987 1.716-14.078-0.365-1.509-0.722-9.147-0.57-12.165 0.034-0.67 7e-3 -2.606-0.061-4.299-0.128-4.132 0.814-7.881 2.729-9.977 2.019-2.214 5.485-3.078 8.02-1.973 1.111 0.485 2.306 0.628 2.902 0.345 2.307-1.098 2.069-7.206-0.374-9.307-0.723-0.627-2.755-1.469-4.509-1.873z"/>
	<path d="m1575.6 1058.4c-0.247 0.913 0.516 3.959 1.407 5.406 1.17 1.901 5.734 2.905 7.956 1.717 2.929-1.525 3.659-7.527 1.145-8.282-0.636-0.193-1.575-0.811-2.088-1.371-1.345-1.472-4.094-1.217-6.382 0.563-1.039 0.809-1.956 1.693-2.038 1.967z"/>
	<path d="m1622.2 955.51c-0.516-0.094-1.402-0.642-1.968-1.217s-1.822-1.17-2.792-1.324c-1.948-0.311-1.893-0.516 0.417-5.61 1.513-3.466 2.499-11.365 1.753-14.053-0.353-1.273-0.573-2.808-0.488-3.414 0.094-0.605-0.209-2.282-0.697-3.725-1.252-3.793-1.317-4.199-2.099-12.752-0.279-2.837-0.36-5.156-0.446-7.752 0 0 0.438-4.934 1.096-12.334 0.162-1.85 0.338-3.855 0.525-5.975 0.135-2.124 0.277-4.364 0.423-6.681 0.28-4.635 0.638-9.576 0.889-14.522 0.356-9.899 0.839-19.795 0.83-27.226 0.052-4.127-0.519-12.381-0.857-12.381-0.052-4.147-0.1-8.293-0.153-12.44 0.01-7.466-0.481-17.409-0.837-27.355-0.266-4.969-0.616-9.934-0.9-14.59-0.149-2.328-0.293-4.578-0.429-6.712-0.189-2.13-0.368-4.144-0.533-6.003-0.661-7.435-1.101-12.392-1.101-12.392 0.06-7.39 1.067-18.674 2.286-21.289 0.534-1.135 0.943-3.613 0.984-5.514 0.034-1.899 0.124-5.07 0.202-7.046 0.1-2.558-0.065-5.174-0.421-7.381-0.353-2.207-0.987-3.992-1.661-4.918-0.647-0.87-1.356-2.207-1.576-2.972-0.385-1.344-0.262-1.416 3.65-2.162 6.467-1.228 8.576-4.131 8.223-11.361-0.066-1.799-0.621-3.867-1.143-4.707-0.921-1.454-1.09-1.473-5.516-0.655-4.472 0.828-4.623 0.804-7.296-0.914-2.206-1.416-3.873-3.188-5.373-6.02-0.75-1.416-1.457-3.096-2.169-5.127-0.736-2.027-1.532-4.393-2.363-7.202-1.272-4.266-2.595-8.359-2.943-9.104-0.154-0.33-0.456-1.278-0.879-2.747-0.439-1.466-1.031-3.443-1.748-5.836-0.688-2.4-1.495-5.217-2.395-8.354-0.44-1.571-0.902-3.221-1.384-4.94-0.517-1.709-1.056-3.486-1.611-5.319-0.868-2.878-1.808-5.896-2.737-8.808-0.469-1.454-0.931-2.883-1.375-4.258-0.463-1.368-0.946-2.669-1.385-3.888-1.772-4.871-3.134-8.341-3.378-8.465-0.909-0.463-1.19 0.054-0.378 3.54 0.406 1.743 1.085 4.229 2.095 7.707 0.959 3.493 2.196 7.994 3.777 13.75 1.905 6.634 3.273 12.701 4.542 18.078 0.609 2.694 1.18 5.219 1.712 7.576 0.444 2.375 0.856 4.58 1.236 6.614 1.45 8.146 2.149 13.587 1.91 16.308-0.496 7.196-0.565 7.394-3.135 9.568-2.161 1.822-3.065 2.187-6.998 2.861-2.703 0.464-4.638 1.052-4.821 1.464-0.332 0.755-0.018 2.588 0.624 4.533 0.608 1.951 1.509 4.022 2.454 5.226 1.037 1.327 2.115 2.38 2.395 2.333s0.922 0.495 1.428 1.206c0.839 1.179 1.252 1.239 4.704 0.673 2.082-0.342 3.959-0.432 4.172-0.2s0.175 1.751-0.086 3.372c-0.295 1.85-0.079 5.375 0.403 9.505 0.747 5.934 1.089 7.086 3.547 12.016 0.984 1.939 1.784 3.671 2.462 5.25 0.687 1.577 1.272 2.998 1.777 4.322 1.01 2.647 1.702 4.904 2.26 7.254 0.536 2.255 1.23 4.415 1.543 4.797 0.058 0.063 0.149 0.635 0.285 1.641 0 0 0.438 4.931 1.094 12.328 0.164 1.849 0.342 3.853 0.531 5.971 0.136 2.123 0.279 4.362 0.427 6.678 0.283 4.633 0.631 9.572 0.896 14.515 0.353 9.895 0.843 19.787 0.832 27.215 0.094 7.426 0.157 12.376 0.157 12.376s0.182 4.922 0.089 12.306c0.01 7.386-0.471 17.222-0.824 27.061-0.25 4.916-0.606 9.827-0.884 14.433-0.146 2.303-0.287 4.529-0.421 6.64-0.185 2.107-0.36 4.099-0.522 5.938-0.653 7.355-1.089 12.258-1.089 12.258-0.947 4.808-2.675 9.368-4.728 13.091-0.385 0.691-0.753 1.713-0.817 2.27-0.064 0.558-0.769 1.997-1.567 3.194-1.343 2.064-2.364 4.653-4.887 12.867-0.987 3.153-1.119 5.987-0.722 10.364 0.042 0.511-1.243 1.079-3.473 1.528-4.813 0.965-6.977 1.923-9.435 4.191-1.807 1.663-2.168 2.421-2.713 5.719-0.759 4.694-0.016 5.65 4.438 5.31 2.205-0.171 3.125-3e-3 4.583 0.856 2.595 1.525 5 4.836 5.352 7.357 0.166 1.186 0.448 2.452 0.627 2.81 0.96 1.951 0.99 5.698-0.132 12.089-0.739 3.922-1.623 9.344-1.966 12.05-0.255 2.724-2.792 14.218-5.552 25.559-1.496 5.64-2.896 11.116-3.948 15.396-0.508 2.145-0.989 3.974-1.35 5.376-0.354 1.403-0.578 2.381-0.638 2.806-0.64 4.571 0.759 3.946 2.349-1.067 0.396-1.246 0.853-2.684 1.351-4.25 0.469-1.575 0.977-3.279 1.504-5.051 1.07-3.54 2.22-7.348 3.3-10.923 0.561-1.783 1.051-3.521 1.497-5.141 0.457-1.617 0.879-3.113 1.249-4.424 0.746-2.621 1.296-4.501 1.508-5.135 0.549-1.634 1.167-3.57 1.814-5.667 0.635-2.1 1.225-4.379 1.841-6.671 1.214-4.587 2.38-9.259 3.195-12.881 0.877-4.307 1.806-7.993 2.103-8.182 0.293-0.189 0.642-0.916 0.776-1.616 0.381-1.988 2.498-4.715 4.682-6.043 2.436-1.477 7.194-1.468 9.605 0.055 1.366 0.864 1.822 0.904 2.919 0.244 1.922-1.13 3.115-5.684 2.511-9.064-0.552-3.035-2.634-6.423-4.095-6.685zm-13.378-263.38c-1.671 2.242-1.887 2.348-3.96 2.069-1.206-0.163-2.906-0.822-3.778-1.464-2.279-1.663-2.605-4.66-0.911-6.847 2.458-3.128 5.742-3.686 8.311-1.337 2.331 2.125 2.393 4.802 0.338 7.579zm-1.116 270.28c-3.395 0.724-4.991 0.195-6.409-2.073-1.786-2.856-1.257-5.476 1.406-6.973 2.973-1.671 4.361-1.708 6.384-0.11 3.399 2.68 2.547 8.321-1.381 9.156z"/>
	<path d="m1581.4 1126.7c-0.359 0.059-1.158 0.885-1.775 1.833-1.277 1.963-3.506 2.949-5.493 2.431-7.457-1.941-9.738-2.643-10.055-3.039-1.014-1.257 6.167-7.174 7.885-6.512 0.37 0.147 1.123 0.033 1.674-0.254 0.552-0.286 3.08-0.486 5.647-0.445 5.678 0.085 6.115-0.08 7.666-2.751 1.032-1.779 1.106-2.467 0.447-4.234-0.731-1.96-0.998-2.152-3.794-2.795-2.463-0.568-3.648-0.422-6.547 0.778-1.574 0.651-2.806 1.323-4.513 2.654-1.732 1.32-3.829 3.345-7.423 6.544-0.533 0.482-1.61 1.896-2.392 3.141-1.165 1.855-1.675 2.199-2.817 1.905l-1.395-0.36 3.624-7.863c4.912-11.245 7.145-15.999 9.198-19.355 1.506-2.568 2.102-3.054 4.577-3.746 1.865-0.522 3.24-0.55 3.986-0.069 4.068 2.627 4.03 2.632 4.929 0.078 1.161-3.309-0.34-9.524-3.194-12.964-2.908-3.487-7.792-5.216-12.986-4.71-6.52 0.624-10.426 3.147-12.139 8.005-0.762 2.151-0.438 2.681 1.38 2.238 1.912-0.467 4.741 0.542 5.943 2.14 1.028 1.38 1.299 4.255 0.641 8.647-0.704 4.374-2.26 10.294-4.721 17.802-2.687 7.619-3.035 8.331-3.9 7.977-0.523-0.213-0.927-0.731-0.899-1.149 0.201-3.031 0.242-5.883 0.132-8.505-0.142-2.634-0.469-5.052-0.907-7.178-0.887-4.257-2.306-7.384-4.157-9.002-2.787-2.434-7.66-2.94-9.279-1.002-0.687 0.823-0.513 5.237 0.217 5.523 0.213 0.082 0.915 0.963 1.559 1.961 0.644 0.997 2.23 2.686 3.524 3.754 3.381 2.778 5.193 5.95 5.575 9.646 0.504 4.917-0.113 5.445-4.364 3.668-5.659-2.364-7.852-5.275-6.488-8.611l0.755-1.846-2.939-0.879c-3.068-0.918-5.629-0.337-8.485 1.902v1e-3c-3.745 2.91-3.606 9.507 0.08 13.522 2.488 2.696 3.882 2.692 5.167-0.068 1.359-3.07 3.046-3.193 11.34-0.904 2.301 0.634 2.807 0.961 2.804 1.82-0.013 1.399-1.972 3.113-4.755 4.454-2.796 1.338-6.345 2.33-9.412 2.396-5.832 0.124-6.709 0.29-8.236 1.668-1.367 1.231-1.544 1.647-1.388 3.259 0.098 1.017 0.521 2.179 0.939 2.579 1.456 1.392 4.304 2.314 6.528 2.094 5.613-0.559 10.134-3.607 16.566-11.28 3.165-3.942 4.159-4.582 4.959-3.154 0.443 0.796 0.126 1.924-1.63 5.469-1.262 2.431-3.899 7.749-5.859 11.816-0.952 1.972-1.791 3.639-2.567 5.049-0.807 1.396-1.538 2.541-2.23 3.489-1.385 1.896-2.619 3.003-4.013 3.746-1.936 1.033-5.277 0.436-6.542-1.147-1.158-1.448-3.379-1.444-4.448-4e-3 -1.17 1.569-1.524 6.873-0.736 9.317 0.843 2.499 2.985 5.139 6.251 7.704 2.309 1.813 3.223 2.224 6.351 2.813 5.978 1.134 12.828-1.478 14.752-5.771 1.204-2.611 0.883-3.918-0.913-3.732-5 0.504-6.426-4.768-3.749-13.551 0.821-2.806 1.743-6.425 2.121-8.012 0.411-1.764 1.72-5.528 3.031-8.953 1.338-3.414 2.499-6.568 2.937-6.984 1.631-1.681 2.444 0.901 1.229 3.93-0.275 0.675-0.426 1.754-0.369 2.385 0.06 0.632 0.18 3.328 0.262 6.004 0.098 3.219 0.676 6.078 1.711 8.451 1.88 4.322 2.042 4.554 4.703 6.294 1.692 1.109 2.484 1.282 4.113 0.884 1.65-0.404 2.214-0.941 3.085-2.933 0.723-1.653 0.873-2.918 0.464-3.933-0.531-1.331-5.18-6.225-6.392-6.739-0.254-0.109-1.186-1.681-2.076-3.483-2.868-5.814-2.902-10.049 0.175-8.917 7.821 2.889 9.911 4.676 9.845 8.479-0.049 3.127 0.854 3.849 5.134 3.956 3.426 0.078 5.945-2.049 7.611-6.414 0.726-1.9 1.133-4.042 0.945-4.974-0.337-1.684-5.24-6.193-6.485-5.984z"/>
	<path d="m1522 1191.1c0.023 2.582 0.88 3.792 3.789 5.312 5.532 2.912 10.402-4.534 5.796-8.839-2.214-2.07-4.64-2.364-7.211-0.906-2.416 1.37-2.401 1.342-2.374 4.433z"/>
	<path d="m1540.1 1183.6c-4.228-5.171-13.573-8.274-19.49-6.676-5.158 1.416-7.105 2.835-10.058 7.594-1.445 2.331-2.436 4.306-3.194 6.588-0.379 1.141-0.7 2.359-0.991 3.737-0.314 1.366-0.611 2.885-0.906 4.649-0.9 5.366-1.771 9.51-2.712 12.814-0.932 3.311-2.059 5.713-3.287 7.729-1.509 2.429-2.11 2.92-4.258 3.463-2.166 0.546-2.849 0.416-5.145-0.957-1.457-0.871-3.088-1.49-3.623-1.375-1.398 0.287-2.795 3.027-3.027 5.568-0.199 2.424 0.752 4.073 3.75 6.5 2.564 2.076 4.855 2.155 8.701 0.25 2.483-1.239 3.045-1.903 5.056-5.46 1.566-2.787 3.146-6.786 4.463-11.115 1.258-4.363 2.193-9.089 2.647-13.254 0.406-3.851 0.979-7.366 1.224-7.874 0.443-0.839 0.568-0.76 1.73 1.129 0.694 1.123 1.729 2.301 2.34 2.633 1.112 0.609 4.495-0.362 5.062-1.439 0.163-0.309 0.131-2.406-0.076-4.649-0.459-4.958 0.721-8.435 3.567-10.473 1.064-0.75 2.095-1.285 2.354-1.153 0.253 0.129 1.197-0.014 2.098-0.321 1.773-0.601 6.33 0.849 8.569 2.748 1.567 1.331 2.48 3.709 2.623 6.162 0.116 2.437-0.516 4.957-1.929 6.586-1.582 1.823-3.176 2.917-6.648 4.541-2.224 1.039-2.575 1.421-2.804 3.06-0.362 2.536 0.982 4.23 3.959 4.874 1.267 0.273 2.347 0.63 2.398 0.796 0.13 0.418-2.178 2.601-7.039 6.622-3.247 2.669-5.747 5.05-7.931 7.414-2.201 2.353-3.999 4.738-5.699 7.485-2.085 3.359-3.36 6.053-3.942 8.324-0.61 2.254-0.481 4.112 0.316 5.836 1.085 2.347 2.56 3.823 5.306 5.279 1.47 0.783 5.083-0.623 6.251-2.432 2.723-4.29 2.763-4.758 1.195-5.7-3.438-2.067-4.38-3.442-4.588-6.642-0.17-2.611 0.067-3.517 1.424-5.424 3.685-5.019 10.331-12.72 13.005-14.553 1.037-0.729 3.922-3.412 6.318-6.026 3.529-3.911 4.604-5.492 5.902-8.669 1.351-3.336 1.848-6.426 1.353-9.43-0.506-3.008-1.92-5.89-4.264-8.759z"/>
	<path d="m1513.3 1219.9c0.7-1.381 1.403-2.769 2.094-4.133 1.372-2.733 2.677-5.383 3.804-7.715 2.286-4.646 3.71-8.098 3.624-8.359-0.323-0.974-0.882-0.805-2.739 2.252-0.947 1.519-2.269 3.732-4.053 6.885-0.886 1.579-1.901 3.387-3.059 5.45-1.161 2.061-2.408 4.412-3.941 6.974-13.736 23.958-23.747 37.348-27.733 40.979-5.337 4.807-5.616 4.837-8.961 4.564-2.829-0.247-3.727-0.629-6.985-2.933-2.239-1.583-4.026-2.535-4.45-2.374l1e-3 -2e-3c-1.549 0.589-4.361 6.035-4.702 9.096-0.186 1.685-0.152 3.203 0.071 3.362 0.231 0.164 0.297 0.998 0.146 1.854-0.25 1.42-1e-3 1.754 2.841 3.793 1.714 1.229 3.104 2.492 3.089 2.805s-1.128 1.353-2.469 2.307c-1.532 1.089-3.917 3.702-6.412 7.026-3.616 4.763-4.261 5.765-6.02 10.979-1.413 4.085-2.542 7.235-3.71 9.812-1.171 2.575-2.29 4.65-3.568 6.697-1.227 1.964-2.274 3.973-2.325 4.462-8e-3 0.082-0.336 0.561-0.938 1.379 0 0-0.776 0.964-2.135 2.651-1.398 1.655-3.395 4.018-5.791 6.854-1.199 1.418-2.497 2.954-3.871 4.578s-2.81 3.348-4.367 5.069c-3.081 3.472-6.367 7.175-9.652 10.878-3.31 3.681-6.729 7.263-9.878 10.673-1.584 1.696-3.116 3.334-4.568 4.889-1.486 1.522-2.891 2.961-4.188 4.289-5.188 5.313-8.474 9.028-8.474 9.028s-3.522 3.439-8.805 8.598c-1.321 1.29-2.752 2.687-4.265 4.165-1.527 1.464-3.175 2.967-4.859 4.545-3.389 3.132-6.956 6.526-10.609 9.825-3.682 3.267-7.364 6.535-10.816 9.598-1.713 1.547-3.415 2.988-5.035 4.348-1.615 1.366-3.142 2.657-4.552 3.849-2.819 2.384-5.169 4.37-6.813 5.761-1.674 1.354-2.631 2.128-2.631 2.128-4.113 2.677-8.494 4.758-12.576 5.942-0.759 0.219-1.735 0.689-2.174 1.039-0.446 0.342-1.979 0.839-3.402 1.103-2.453 0.453-4.976 1.599-12.531 5.673-2.892 1.579-5.091 3.352-7.89 6.75-0.328 0.395-1.635-0.107-3.524-1.361-4.075-2.709-6.275-3.553-9.602-3.67l-1e-3 1e-3c-2.438-0.081-3.224 0.207-5.979 2.101-3.909 2.708-4.032 3.95-0.653 6.845 1.677 1.434 2.208 2.204 2.634 3.847 0.761 2.923 0.137 6.989-1.384 9.04-0.715 0.966-1.404 2.07-1.529 2.453-0.66 2.12-3.379 4.655-8.688 8.387-3.276 2.281-7.679 5.578-9.881 7.177-1.087 0.82-4.094 2.84-8.063 5.434-1.995 1.28-4.187 2.775-6.579 4.205-2.387 1.439-4.891 2.949-7.389 4.456-2.498 1.508-4.957 2.992-7.263 4.384-2.326 1.357-4.498 2.624-6.401 3.734-3.795 2.24-6.49 3.894-7.169 4.42-3.655 2.833-2.229 3.369 2.405 0.886 9.292-4.796 29.724-16.028 32.064-17.318 3.065-1.57 7.174-3.809 11.309-6.142 2.079-1.148 4.124-2.384 6.043-3.578 1.923-1.187 3.727-2.323 5.284-3.332 3.689-2.39 6.989-4.284 7.332-4.209 0.346 0.081 1.103-0.192 1.688-0.599 1.664-1.153 5.071-1.609 7.544-1.017 2.756 0.663 6.108 4.028 6.741 6.818 0.358 1.582 0.652 1.933 1.889 2.235 2.131 0.523 6.263-1.757 8.243-4.548 1.742-2.564 2.651-6.454 1.804-7.672-0.299-0.432-0.539-1.449-0.535-2.259s-0.465-2.122-1.042-2.917c-1.149-1.588-0.99-1.727 4.248-3.691 1.768-0.679 4.277-2.168 6.443-3.887 2.17-1.715 4.07-3.559 4.752-4.782 0.645-1.157 1.569-2.407 2.054-2.78 0.486-0.372 1.458-1.773 2.156-3.109 0.918-1.764 1.442-2.715 2.423-4.059 0.965-1.362 2.394-3.109 5.123-6.429 1.81-2.202 3.343-3.96 5.168-5.797 0 0 0.963-0.779 2.647-2.141 1.655-1.399 4.019-3.398 6.855-5.796 1.418-1.199 2.955-2.499 4.58-3.873 1.63-1.369 3.343-2.819 5.066-4.375 3.473-3.082 7.178-6.369 10.883-9.657 3.675-3.32 7.265-6.734 10.674-9.886 1.694-1.587 3.353-3.1 4.889-4.573 1.523-1.487 2.962-2.892 4.291-4.19 5.316-5.19 8.146-9.365 8.146-9.365s3.477-3.561 8.692-8.901c1.304-1.335 2.716-2.782 4.21-4.312 1.46-1.562 3-3.21 4.592-4.914 3.165-3.427 6.601-7.029 9.928-10.729 3.303-3.722 6.606-7.445 9.702-10.934 1.565-1.73 3.009-3.463 4.39-5.095 1.381-1.633 2.686-3.177 3.891-4.602 2.409-2.851 4.416-5.227 5.821-6.89 1.366-1.696 2.146-2.665 2.146-2.665 2.626-2.605 6.131-5.698 9.323-8.269 3.223-2.547 5.974-4.696 7.322-5.19 1.159-0.443 3.235-1.878 4.614-3.189 1.378-1.31 3.703-3.474 5.167-4.808 3.752-3.484 6.81-7.951 7.17-10.208 0.165-1.068 0.618-2.506 1.01-3.198 0.688-1.216 0.826-1.179 4.122 1.059 5.436 3.698 9.051 3.187 13.799-2.256 1.186-1.346 2.3-3.17 2.525-4.133 0.39-1.67 0.284-1.803-3.425-4.353-3.748-2.576-3.838-2.7-4.496-5.791-1.049-5.071 0.29-9.739 5.972-19.975 2.198-3.863 4.031-7.773 4.326-8.537 0.241-0.689 1.785-3.562 4.233-7.913 0.615-1.086 1.284-2.266 2-3.529 0.693-1.277 1.432-2.638 2.211-4.072 1.57-2.86 3.3-6.012 5.142-9.369 0.723-1.315 1.481-2.657 2.194-4.031zm-225.32 254.72c-1.491 1.132-3.517 1.377-5.2 0.284-2.923-1.906-3.675-3.405-3.056-5.987 0.796-3.228 2.982-4.764 5.92-3.943 3.272 0.906 4.278 1.86 4.584 4.429 0.258 2.158-0.752 4.093-2.248 5.217zm186.72-190.03c-2.742 0.422-2.973 0.343-4.247-1.323-0.742-0.971-1.49-2.647-1.663-3.724-0.447-2.795 1.359-5.203 4.143-5.525 3.972-0.46 6.689 1.467 6.822 4.929 0.122 3.133-1.655 5.121-5.055 5.643z"/>
	<path d="m1248.5 1505.9c-3.571-0.46-5.256-0.181-9.143 1.511-3.106 1.269-6.701 3.776-10.364 7.129-1.837 1.667-3.67 3.583-5.507 5.593-1.846 1.995-3.657 4.152-5.381 6.421-1.314 1.73-2.823 3.279-3.346 3.437-0.85 0.258-0.956 3e-3 -1.019-2.385-0.061-2.255-0.299-2.851-1.505-3.836-1.564-1.277-3.177-1.312-4.642-0.248-0.733 0.53-1.426 1.342-2.065 2.398-0.648 1.041-1.236 2.338-1.742 3.875-1.527 4.634-5.208 7.041-8.958 7.124-3.75 0.095-7.57-2.174-9.499-6.777-1.876-4.486-0.614-8.905 3.524-12.164 2.11-1.665 5.646-1.99 10.03-0.945 3.573 0.866 6.19-0.483 7.146-2.319 0.95-1.855 0.196-4.268-2.981-5.768-3.129-1.483-3.336-2.177-0.915-2.958 1.099-0.354 2.89-0.713 3.981-0.798 1.042-0.081 3.848-0.444 7.113-0.911 3.274-0.45 6.922-1.155 9.748-1.676 2.332-0.446 4.734-1.475 8.102-3.469 3.101-1.797 5.077-3.566 6.287-5.4 1.2-1.851 1.587-3.844 1.376-6.316-0.345-4.035-1.877-6.023-5.337-7.057-2.155-0.645-2.866-0.551-4.779 0.644-1.236 0.772-2.274 1.825-2.306 2.34s0.62 2.132 1.449 3.593c1.814 3.193 1.799 5.775-0.058 7.8-1.489 1.628-9.863 5.257-12.995 5.628-2.975 0.35-5.723 0.81-11.335 2.102-4.182 0.951-6.82 1.618-8.906 2.355-2.106 0.696-3.659 1.457-5.629 2.624-3.153 1.864-4.12 2.81-6.38 6.221-1.119 1.68-1.948 3.41-2.512 5.132-0.569 1.713-0.855 3.456-0.855 5.223 0 3.532 1.142 7.158 3.459 10.806 1.958 3.107 8.983 9.024 10.062 8.487 0.312-0.146 1.627-0.087 2.943 0.159 2.944 0.544 5.444-0.213 12.261-3.715 1.328-0.682 2.588-1.396 3.757-2.124 1.164-0.738 2.22-1.521 3.175-2.282 1.904-1.53 3.361-3.041 4.2-4.396 0.809-1.324 6.019-6.866 8.244-8.919 0.493-0.456 1.831-1.865 2.969-3.128 2.785-3.09 6.148-4.998 8.996-5.105 3.012-0.107 6.078 1.74 7.087 4.309 0.444 1.131 1.187 2.075 1.806 2.292 2.398 0.839 6.512-3.706 6.26-6.934-0.073-0.96-0.914-2.992-1.868-4.516-1.53-2.452-1.993-2.807-3.948-3.057z"/>
	<path d="m1195 1520.2c-1.314-0.173-2.592-0.208-2.846-0.074-0.836 0.441-2.424 3.185-2.811 4.848-0.507 2.189 2.01 6.12 4.411 6.828 3.111 0.918 7.928-2.704 6.676-5.028-0.313-0.586-0.54-1.683-0.504-2.438 0.093-1.982-2.036-3.754-4.926-4.136z"/>
	<path d="m1174.1 1528.3c-2.526-2.083-4.919-3.35-7.256-3.811-2.34-0.467-4.606-0.092-6.954 0.97-2.07 0.961-2.217 1.561-0.612 2.542 1.687 1.031 2.977 3.744 2.693 5.713-0.246 1.707-2.117 3.866-5.679 6.523-1.785 1.32-3.976 2.802-6.626 4.344-2.664 1.514-5.761 3.148-9.297 4.905-7.234 3.612-7.992 3.849-8.357 2.98-0.219-0.52-0.139-1.169 0.179-1.442 9.079-8.169 14.312-16.007 13.943-20.975-0.262-3.713-3.338-7.483-5.849-7.245-1.073 0.087-4.086 3.294-3.771 4.012 0.093 0.209-0.036 1.323-0.288 2.477s-0.328 3.46-0.169 5.125c0.415 4.321-0.525 7.89-2.848 10.817-3.085 3.913-3.93 3.766-5.673-0.472-2.336-5.676-1.81-9.234 1.483-10.702l1.827-0.799-1.458-2.695c-1.521-2.813-3.735-4.192-7.32-4.583h-1e-3c-4.714-0.606-9.327 4.039-9.532 9.543-0.134 3.69 0.847 4.652 3.696 3.584 3.144-1.179 4.429-0.067 8.684 7.424 1.182 2.078 1.308 2.665 0.696 3.263-2.01 1.96-10.443-0.909-14.85-5.121-4.201-4-4.957-4.549-7.014-4.66-1.844-0.112-2.265 0.053-3.299 1.29-0.652 0.781-1.178 1.892-1.165 2.469 0.045 2.007 1.409 4.675 3.143 6.102 4.372 3.582 9.777 4.756 19.684 3.703 5.045-0.506 6.204-0.247 5.757 1.319-0.249 0.876-1.281 1.424-5.036 2.674-2.596 0.866-8.177 2.871-12.475 4.269-8.303 2.799-11.87 3.445-14.899 2.511-2.106-0.654-4.052-3.447-3.825-5.452 0.206-1.835-1.371-3.411-3.152-3.165-1.943 0.267-5.967 3.694-7.113 6.045-1.16 2.389-1.504 5.789-1.002 9.923 0.355 2.922 0.711 3.859 2.505 6.474 3.424 5.014 10.076 7.887 14.504 6.303 2.708-0.969 3.407-2.11 2.002-3.257-3.913-3.228-1.139-7.81 6.898-12.305 2.562-1.412 5.794-3.26 7.186-4.109 0.77-0.474 2.061-1.123 3.568-1.864 1.498-0.763 3.222-1.597 4.886-2.37 3.329-1.545 6.424-2.845 7.021-2.849 2.35-0.016 1.093 2.366-1.919 3.619-0.672 0.28-1.551 0.915-1.953 1.412-0.401 0.497-2.209 2.521-4.029 4.504-2.179 2.411-3.818 4.771-4.765 7.177-1.736 4.356-1.785 4.633-1.134 7.74 0.412 1.978 0.851 2.661 2.29 3.54 1.458 0.89 2.238 0.915 4.27 0.142 1.686-0.642 2.691-1.418 3.12-2.421 0.56-1.33 0.714-8.112 0.219-9.332-0.103-0.256 0.343-2.041 0.98-3.962 2.055-6.201 5.068-9.111 6.437-6.158 3.494 7.573 3.708 10.307 0.96 12.918-2.257 2.146-2.118 3.322 0.831 6.412 2.374 2.487 5.671 2.789 9.952 0.921 1.872-0.795 3.655-2.065 4.177-2.865 0.945-1.445 0.648-8.13-0.377-8.853-0.295-0.209-1.438-0.177-2.538 0.073-2.277 0.519-4.543-0.339-5.589-2.125-3.909-6.652-5.028-8.763-4.972-9.264 0.199-1.539 9.394-0.809 10.149 0.889 0.158 0.365 0.77 0.812 1.359 0.992s2.528 1.844 4.318 3.692c3.966 4.091 4.393 4.286 7.39 3.52 1.994-0.514 2.54-0.932 3.322-2.649 0.859-1.922 0.805-2.249-0.717-4.675-1.345-2.149-2.266-2.839-5.179-4.069-3.149-1.329-5.427-1.609-14.969-1.976-0.714-0.028-2.466 0.234-3.892 0.582-2.119 0.526-2.743 0.363-3.339-0.641l-0.734-1.242s2.041-0.721 4.052-1.518c2.019-0.779 4.037-1.558 4.037-1.558 5.719-2.224 9.846-3.712 12.971-4.868 3.121-1.164 5.303-1.861 7.209-2.338 2.894-0.725 3.662-0.641 5.909 0.632 1.694 0.959 2.688 1.916 2.875 2.781 1.018 4.724 0.987 4.699 3.44 3.554 3.188-1.463 6.444-7.07 6.861-11.509 0.42-4.498-1.813-9.172-5.857-12.505z"/>
	<path d="m1060.6 1576.2c-1.808 1.846-2.064 3.28-1.079 6.418 1.874 6.031 10.547 4.091 10.322-2.237-0.106-3.04-1.613-4.951-4.452-5.705-2.668-0.708-2.638-0.718-4.791 1.524z"/>
	<path d="m1069.5 1565.1c-4.671-2.707-7.036-3.034-12.464-1.678-5.344 1.245-8.406 2.702-14.197 6.953-4.396 3.273-7.978 5.456-10.984 7.112-3.013 1.634-5.481 2.634-7.772 3.201-2.772 0.699-3.549 0.603-5.457-0.554-1.922-1.164-2.314-1.742-2.968-4.337-0.414-1.646-1.131-3.24-1.593-3.543v-1e-3c-1.19-0.779-4.139 0.075-6.086 1.761-1.848 1.6-2.339 3.449-1.933 7.291 0.347 3.286 1.908 4.949 5.964 6.278 2.627 0.86 3.505 0.833 7.452-0.223 3.099-0.782 7.015-2.6 10.996-4.771 3.972-2.207 8.015-4.737 11.262-7.426 2.998-2.475 5.868-4.623 6.407-4.784 0.909-0.27 0.942-0.125 0.425 2.02-0.307 1.272-0.401 2.856-0.205 3.519 0.351 1.198 3.439 2.931 4.605 2.583 0.334-0.099 1.8-1.585 3.245-3.299 3.207-3.743 6.455-5.508 9.904-4.952 1.274 0.196 2.392 0.577 2.48 0.848s0.859 0.842 1.715 1.269c1.684 0.841 3.886 5.095 4.126 8.014 0.346 4.093-4.209 9.197-8.502 9.56-2.392 0.222-4.315-0.203-7.924-1.524-2.314-0.858-2.835-0.841-4.159 0.14-2.054 1.522-2.287 3.714-0.643 6.253 0.703 1.084 1.213 2.097 1.132 2.253-0.205 0.381-3.361 0.365-9.635-0.2-8.385-0.888-13.893-0.61-20.175 0.903-7.719 1.718-11.281 3.818-12.588 7.408-0.889 2.443-0.888 4.535 0.024 7.504 0.485 1.591 4.026 3.117 6.126 2.64 4.956-1.126 5.33-1.369 4.883-3.161-0.971-3.892-0.662-5.523 1.461-7.902 1.735-1.933 2.543-2.403 4.842-2.831 6.106-1.127 16.325-1.608 19.49-1.094 1.249 0.214 5.162 0.273 8.707 0.126 5.275-0.228 7.168-0.539 10.331-1.872 6.609-2.881 10.044-7.616 10.788-14.957 0.674-6.62-3.751-15.433-9.08-18.527z"/>
	<path d="m1024.3 1593.3c1.709-0.518 3.486-1.056 5.318-1.611 2.878-0.868 5.896-1.808 8.808-2.737 1.454-0.469 2.883-0.931 4.258-1.375 1.368-0.463 2.669-0.946 3.888-1.385 4.871-1.772 8.341-3.134 8.464-3.378 0.463-0.909-0.054-1.19-3.54-0.378-1.743 0.406-4.229 1.085-7.707 2.095-3.493 0.96-7.994 2.196-13.75 3.777-6.635 1.905-12.702 3.273-18.078 4.542-2.694 0.609-5.219 1.18-7.576 1.713-2.375 0.444-4.58 0.855-6.614 1.235-8.146 1.45-13.587 2.149-16.308 1.91-7.196-0.496-7.394-0.565-9.568-3.135-1.822-2.162-2.187-3.065-2.861-6.998-0.464-2.703-1.052-4.638-1.466-4.82h2e-3c-0.755-0.333-2.588-0.018-4.533 0.624-1.951 0.608-4.022 1.509-5.226 2.454-1.327 1.037-2.38 2.115-2.333 2.395s-0.495 0.922-1.206 1.427c-1.179 0.839-1.24 1.252-0.672 4.705 0.342 2.082 0.432 3.959 0.2 4.172s-1.751 0.175-3.372-0.086c-1.85-0.295-5.375-0.079-9.505 0.403-5.934 0.746-7.086 1.088-12.016 3.547-1.939 0.984-3.671 1.784-5.25 2.462-1.577 0.688-2.998 1.272-4.322 1.777-2.647 1.01-4.905 1.702-7.254 2.26-2.255 0.536-4.415 1.23-4.797 1.543-0.063 0.058-0.635 0.149-1.641 0.285 0 0-4.931 0.438-12.328 1.095-1.849 0.164-3.853 0.342-5.972 0.53-2.123 0.136-4.362 0.279-6.678 0.427-4.633 0.282-9.572 0.631-14.515 0.895-9.895 0.353-19.787 0.843-27.215 0.832-7.426 0.094-12.376 0.157-12.376 0.157s-4.922 0.182-12.306 0.089c-7.386 0.01-17.222-0.471-27.061-0.824-4.916-0.251-9.826-0.606-14.433-0.884-2.303-0.146-4.529-0.287-6.64-0.421-2.107-0.185-4.099-0.36-5.938-0.522-7.355-0.653-12.258-1.089-12.258-1.089-4.808-0.947-9.368-2.675-13.091-4.728-0.691-0.385-1.713-0.753-2.271-0.817s-1.997-0.769-3.194-1.567c-2.064-1.342-4.653-2.364-12.867-4.887-3.153-0.987-5.987-1.119-10.364-0.722-0.511 0.043-1.079-1.243-1.528-3.473-0.965-4.813-1.923-6.977-4.189-9.435h-2e-3c-1.663-1.807-2.421-2.167-5.719-2.713-4.694-0.758-5.65-0.015-5.31 4.438 0.171 2.205 3e-3 3.125-0.856 4.583-1.526 2.595-4.836 5-7.357 5.351-1.186 0.166-2.452 0.448-2.81 0.627-1.951 0.96-5.698 0.99-12.089-0.132-3.922-0.739-9.344-1.623-12.051-1.967-2.724-0.255-14.218-2.792-25.559-5.552-5.64-1.496-11.116-2.896-15.396-3.947-2.145-0.508-3.975-0.989-5.376-1.35-1.403-0.354-2.381-0.578-2.806-0.637-4.571-0.64-3.946 0.759 1.067 2.349 1.246 0.396 2.684 0.853 4.25 1.351 1.575 0.469 3.279 0.977 5.051 1.504 3.54 1.07 7.348 2.22 10.923 3.3 1.783 0.561 3.521 1.051 5.14 1.497 1.617 0.457 3.113 0.879 4.424 1.249 2.621 0.746 4.501 1.296 5.135 1.508 1.634 0.548 3.57 1.167 5.667 1.814 2.1 0.635 4.379 1.225 6.671 1.841 4.587 1.214 9.259 2.38 12.881 3.195 4.307 0.878 7.993 1.806 8.182 2.103 0.189 0.293 0.916 0.642 1.616 0.776 1.988 0.381 4.715 2.498 6.043 4.682 1.477 2.436 1.468 7.194-0.055 9.605-0.864 1.366-0.904 1.822-0.245 2.919 1.13 1.922 5.684 3.115 9.064 2.51 3.041-0.556 6.429-2.638 6.691-4.099 0.094-0.517 0.642-1.402 1.217-1.968s1.17-1.822 1.324-2.792c0.311-1.948 0.516-1.893 5.61 0.417 3.466 1.513 11.365 2.499 14.053 1.753 1.273-0.353 2.808-0.573 3.414-0.488 0.605 0.094 2.282-0.209 3.725-0.697 3.793-1.252 4.199-1.316 12.752-2.099 2.837-0.279 5.156-0.36 7.752-0.446 0 0 4.934 0.438 12.334 1.095 1.85 0.162 3.855 0.339 5.975 0.525 2.124 0.135 4.364 0.277 6.681 0.424 4.635 0.28 9.576 0.637 14.522 0.889 9.899 0.356 19.795 0.839 27.226 0.83 7.429 0.094 12.381-0.853 12.381-0.853s4.976-0.063 12.44-0.157c7.466 0.01 17.409-0.482 27.355-0.837 4.969-0.266 9.933-0.616 14.59-0.9 2.328-0.149 4.578-0.293 6.712-0.429 2.13-0.189 4.144-0.368 6.003-0.533 7.435-0.66 12.392-1.101 12.392-1.101 7.39 0.06 18.674 1.067 21.289 2.286 1.135 0.534 3.613 0.943 5.514 0.984 1.899 0.033 5.07 0.124 7.046 0.202 2.558 0.1 5.174-0.065 7.381-0.421 2.207-0.353 3.992-0.987 4.918-1.661 0.87-0.647 2.207-1.356 2.972-1.575 1.344-0.385 1.416-0.262 2.162 3.65 1.228 6.467 4.131 8.576 11.361 8.223 1.799-0.066 3.867-0.621 4.707-1.144 1.454-0.92 1.473-1.09 0.655-5.516-0.828-4.472-0.804-4.623 0.914-7.296 1.416-2.206 3.188-3.873 6.02-5.373 1.416-0.75 3.096-1.457 5.127-2.169 2.027-0.736 4.393-1.532 7.202-2.363 4.266-1.272 8.359-2.595 9.104-2.943 0.33-0.154 1.278-0.456 2.747-0.879 1.466-0.439 3.443-1.031 5.836-1.748 2.4-0.688 5.217-1.496 8.354-2.395 1.57-0.435 3.221-0.898 4.94-1.379zm-324.45 15.772c-2.681 3.398-8.322 2.546-9.157-1.381-0.724-3.395-0.195-4.991 2.073-6.409 2.856-1.786 5.476-1.257 6.973 1.406 1.672 2.974 1.708 4.362 0.111 6.384zm268.7-0.603c-2.125 2.332-4.802 2.393-7.579 0.339-2.241-1.671-2.348-1.887-2.069-3.96 0.163-1.206 0.822-2.906 1.464-3.779 1.663-2.279 4.66-2.605 6.847-0.912 3.128 2.458 3.686 5.742 1.337 8.312z"/>
	<path d="m636.96 1599.9c-1.552-0.63-3.409-1.125-5.501-1.482-2.093-0.353-4.42-0.567-6.887-0.729-4.945-0.28-10.538-0.018-16.202 0.81-2.165 0.336-4.306 0.288-4.79 0.039-0.78-0.43-0.674-0.684 0.966-2.403 1.548-1.624 1.801-2.213 1.648-3.769-0.403-4.039-4.431-4.727-10.221-1.765-4.371 2.238-8.694 1.394-11.377-1.282-2.7-2.639-3.793-6.952-1.903-11.559 1.858-4.529 5.856-6.694 11.066-6.01 2.667 0.321 5.414 2.532 7.782 6.344 3.88 6.19 11.03 3.96 8.649-2.716-1.155-3.287-0.811-3.923 1.443-2.73 1.023 0.543 2.535 1.583 3.373 2.268 1.584 1.335 9.016 6.8 13.75 10.089 1.949 1.391 4.395 2.282 8.194 3.221 6.965 1.695 10.493 0.984 13.684-2.783 2.616-3.129 2.931-5.587 1.219-8.774-1.063-1.998-1.63-2.442-3.821-2.977-1.416-0.346-2.89-0.352-3.276-0.014s-1.067 1.939-1.514 3.558c-0.973 3.529-2.812 5.353-5.565 5.507-1.102 0.055-3.791-0.703-6.498-1.772-2.698-1.107-5.425-2.47-6.661-3.466-2.342-1.887-4.63-3.431-9.524-6.438-7.224-4.66-9.325-5.717-13.781-6.806-1.778-0.438-3.009-0.652-4.294-0.661-1.278-0.033-2.612 0.151-4.611 0.533-7.884 1.512-13.017 6.597-14.907 15.021-0.813 3.577-0.023 12.692 1.124 13.064 0.327 0.106 1.207 1.104 1.96 2.219 1.695 2.469 3.954 3.846 11.287 6.07 5.706 1.767 10.987 2.412 14.078 1.716 1.509-0.365 9.147-0.722 12.165-0.57 0.67 0.034 2.606 7e-3 4.299-0.061 4.132-0.128 7.882 0.814 9.977 2.729 2.214 2.019 3.078 5.484 1.973 8.02-0.485 1.111-0.628 2.306-0.345 2.902 1.098 2.307 7.206 2.07 9.307-0.374 0.626-0.723 1.468-2.755 1.872-4.51 0.649-2.812 0.572-3.387-0.629-4.967-2.191-2.88-3.575-3.894-7.509-5.492z"/>
	<path d="m594.67 1575.6c-0.913-0.247-3.959 0.516-5.406 1.407-1.901 1.17-2.905 5.734-1.717 7.956 1.525 2.93 7.527 3.659 8.282 1.145 0.193-0.636 0.81-1.575 1.371-2.087 1.472-1.346 1.217-4.094-0.563-6.382-0.809-1.04-1.692-1.957-1.967-2.039z"/>
	<path d="m568.11 1556.5c-2.151-0.762-2.681-0.438-2.237 1.38 0.466 1.912-0.542 4.741-2.14 5.943-1.38 1.028-4.255 1.299-8.647 0.641-4.374-0.704-10.294-2.26-17.802-4.721-7.619-2.687-8.331-3.035-7.977-3.9 0.213-0.522 0.731-0.927 1.149-0.899 3.031 0.201 5.883 0.242 8.505 0.131 2.634-0.142 5.052-0.469 7.178-0.907 4.257-0.887 7.384-2.306 9.002-4.157 2.434-2.787 2.94-7.66 1.002-9.279-0.823-0.688-5.237-0.513-5.523 0.217-0.082 0.213-0.963 0.915-1.961 1.559-0.997 0.644-2.686 2.23-3.754 3.524-2.778 3.381-5.95 5.193-9.646 5.575-4.917 0.504-5.445-0.113-3.668-4.364 2.364-5.659 5.275-7.852 8.611-6.489l1.846 0.755 0.879-2.939c0.918-3.068 0.337-5.629-1.902-8.485h-1e-3c-2.91-3.745-9.507-3.606-13.522 0.08-2.695 2.489-2.692 3.882 0.068 5.167 3.07 1.359 3.193 3.046 0.904 11.34-0.634 2.301-0.961 2.807-1.82 2.804-1.399-0.013-3.112-1.972-4.454-4.756-1.338-2.796-2.33-6.345-2.396-9.412-0.124-5.832-0.29-6.709-1.668-8.237-1.231-1.367-1.647-1.544-3.259-1.388-1.017 0.099-2.179 0.521-2.579 0.939-1.392 1.456-2.314 4.304-2.094 6.528 0.559 5.613 3.607 10.134 11.28 16.566 3.942 3.165 4.582 4.159 3.154 4.959-0.796 0.443-1.924 0.126-5.469-1.63-2.431-1.262-7.749-3.899-11.816-5.86-1.972-0.952-3.639-1.791-5.049-2.567-1.396-0.807-2.541-1.538-3.49-2.23-1.896-1.385-3.003-2.619-3.746-4.013-1.033-1.936-0.436-5.277 1.147-6.542 1.448-1.158 1.444-3.379 3e-3 -4.448-1.569-1.17-6.872-1.524-9.316-0.736-2.499 0.843-5.139 2.985-7.704 6.251-1.813 2.308-2.224 3.223-2.813 6.351-1.134 5.978 1.478 12.828 5.771 14.752 2.611 1.204 3.918 0.883 3.733-0.913-0.504-5 4.768-6.426 13.551-3.749 2.806 0.822 6.425 1.743 8.012 2.121 1.764 0.411 5.528 1.72 8.953 3.031 3.414 1.338 6.568 2.499 6.984 2.937 1.681 1.631-0.901 2.444-3.93 1.229-0.675-0.275-1.754-0.426-2.385-0.369-0.632 0.06-3.328 0.18-6.004 0.262-3.219 0.098-6.078 0.677-8.451 1.711-4.322 1.88-4.554 2.042-6.294 4.703-1.109 1.693-1.282 2.484-0.884 4.113 0.404 1.65 0.941 2.214 2.933 3.085 1.653 0.723 2.918 0.873 3.933 0.464 1.331-0.531 6.225-5.18 6.739-6.392 0.109-0.254 1.681-1.186 3.483-2.075 5.814-2.868 10.049-2.902 8.917 0.175-2.889 7.821-4.676 9.911-8.479 9.845-3.127-0.049-3.849 0.854-3.956 5.134-0.078 3.425 2.049 5.945 6.414 7.611 1.9 0.726 4.042 1.133 4.974 0.945 1.683-0.334 6.192-5.238 5.983-6.482-0.059-0.359-0.885-1.158-1.833-1.775-1.963-1.277-2.949-3.506-2.431-5.493 1.941-7.456 2.643-9.738 3.039-10.055 1.257-1.014 7.174 6.167 6.512 7.885-0.147 0.37-0.033 1.123 0.254 1.674 0.286 0.552 0.486 3.08 0.445 5.647-0.085 5.678 0.08 6.115 2.751 7.666 1.779 1.032 2.467 1.106 4.234 0.447 1.96-0.731 2.152-0.998 2.795-3.794 0.568-2.463 0.422-3.648-0.778-6.547-0.651-1.574-1.323-2.806-2.654-4.513-1.32-1.731-3.345-3.829-6.544-7.423-0.482-0.533-1.896-1.61-3.141-2.392-1.855-1.165-2.199-1.675-1.905-2.817l0.36-1.395 7.863 3.624c11.245 4.912 15.999 7.145 19.355 9.198 2.568 1.507 3.054 2.102 3.746 4.577 0.522 1.865 0.55 3.24 0.069 3.986-2.627 4.069-2.632 4.03-0.079 4.93 3.309 1.161 9.524-0.34 12.964-3.194 3.487-2.908 5.216-7.792 4.71-12.986-0.623-6.52-3.146-10.426-8.004-12.139z"/>
	<path d="m462.01 1522c-2.582 0.023-3.792 0.88-5.312 3.789-2.912 5.531 4.534 10.401 8.839 5.796 2.07-2.214 2.364-4.64 0.906-7.211-1.37-2.416-1.342-2.401-4.433-2.374z"/>
	<path d="m476.15 1520.6c-1.416-5.158-2.835-7.104-7.593-10.058-2.331-1.445-4.306-2.436-6.588-3.194-1.141-0.379-2.359-0.7-3.737-0.991-1.366-0.314-2.885-0.611-4.649-0.906-5.366-0.9-9.51-1.771-12.814-2.712-3.311-0.932-5.713-2.059-7.729-3.286-2.429-1.509-2.92-2.111-3.463-4.258-0.546-2.166-0.416-2.849 0.957-5.145 0.871-1.457 1.49-3.088 1.375-3.624-0.287-1.398-3.027-2.795-5.568-3.027-2.424-0.198-4.073 0.752-6.5 3.75-2.076 2.564-2.155 4.855-0.25 8.701 1.239 2.483 1.903 3.045 5.46 5.056 2.787 1.566 6.786 3.145 11.115 4.463 4.363 1.258 9.089 2.193 13.254 2.647 3.851 0.406 7.366 0.979 7.874 1.224 0.839 0.442 0.76 0.568-1.129 1.73-1.123 0.694-2.3 1.729-2.633 2.34-0.608 1.112 0.362 4.495 1.439 5.062 0.309 0.163 2.406 0.131 4.649-0.077 4.958-0.459 8.435 0.721 10.473 3.567 0.749 1.064 1.285 2.095 1.152 2.354-0.129 0.253 0.014 1.197 0.321 2.098 0.601 1.772-0.849 6.33-2.748 8.569-1.331 1.567-3.71 2.48-6.162 2.623-2.437 0.116-4.957-0.516-6.586-1.929-1.823-1.583-2.917-3.176-4.541-6.648-1.039-2.224-1.421-2.576-3.06-2.804-2.536-0.362-4.23 0.982-4.874 3.959-0.272 1.267-0.63 2.347-0.796 2.398-0.419 0.13-2.601-2.178-6.622-7.039-2.67-3.247-5.05-5.747-7.414-7.931-2.353-2.201-4.738-3.999-7.485-5.699-3.359-2.085-6.053-3.36-8.324-3.942-2.254-0.61-4.112-0.481-5.836 0.316-2.347 1.085-3.823 2.56-5.279 5.306-0.783 1.469 0.623 5.083 2.431 6.251 4.29 2.723 4.758 2.763 5.7 1.195 2.067-3.438 3.442-4.38 6.642-4.588 2.611-0.17 3.517 0.066 5.424 1.424 5.019 3.685 12.72 10.331 14.553 13.005 0.729 1.037 3.412 3.922 6.026 6.318 3.911 3.529 5.492 4.604 8.669 5.902 3.336 1.352 6.426 1.848 9.43 1.353 3.01-0.505 5.891-1.919 8.76-4.263 5.171-4.228 8.274-13.574 6.676-19.49z"/>
	<path d="m138.51 1229c-1.667-1.837-3.583-3.67-5.593-5.507-1.995-1.846-4.152-3.657-6.421-5.381-1.73-1.314-3.279-2.824-3.437-3.346-0.258-0.85-3e-3 -0.956 2.385-1.019 2.255-0.061 2.851-0.299 3.836-1.505 1.277-1.564 1.311-3.177 0.248-4.642-0.53-0.733-1.342-1.426-2.398-2.065-1.041-0.648-2.338-1.236-3.875-1.742-4.634-1.527-7.041-5.208-7.123-8.958-0.095-3.75 2.174-7.57 6.777-9.499 4.486-1.876 8.905-0.614 12.164 3.524 1.665 2.11 1.99 5.646 0.945 10.03-0.866 3.573 0.483 6.19 2.319 7.146 1.855 0.95 4.268 0.196 5.768-2.981 1.483-3.129 2.177-3.336 2.958-0.915 0.354 1.099 0.713 2.89 0.798 3.981 0.081 1.042 0.444 3.848 0.911 7.113 0.45 3.274 1.155 6.922 1.676 9.748 0.446 2.332 1.475 4.734 3.469 8.102 1.797 3.101 3.566 5.077 5.4 6.287 1.851 1.2 3.844 1.587 6.316 1.376 4.035-0.345 6.023-1.877 7.057-5.337 0.645-2.155 0.551-2.866-0.644-4.779-0.772-1.237-1.825-2.274-2.34-2.306s-2.132 0.621-3.593 1.45c-3.193 1.815-5.775 1.799-7.8-0.058-1.628-1.489-5.257-9.864-5.628-12.996-0.35-2.975-0.81-5.723-2.102-11.335-0.951-4.182-1.618-6.82-2.355-8.906-0.696-2.106-1.457-3.659-2.624-5.629-1.864-3.153-2.81-4.12-6.221-6.38-1.68-1.119-3.41-1.948-5.132-2.512-1.713-0.569-3.456-0.855-5.223-0.855-3.533 0-7.158 1.142-10.806 3.459-3.107 1.958-9.024 8.983-8.487 10.062 0.146 0.312 0.087 1.627-0.159 2.944-0.544 2.944 0.213 5.444 3.715 12.261 0.682 1.328 1.396 2.588 2.124 3.757 0.738 1.164 1.521 2.22 2.282 3.174 1.53 1.904 3.041 3.361 4.397 4.199 1.324 0.809 6.866 6.019 8.919 8.245 0.457 0.493 1.865 1.831 3.128 2.969 3.09 2.785 4.998 6.148 5.105 8.996 0.107 3.012-1.74 6.078-4.309 7.087-1.131 0.444-2.076 1.187-2.292 1.806-0.839 2.398 3.706 6.512 6.934 6.26 0.96-0.073 2.992-0.914 4.516-1.868 2.448-1.531 2.804-1.994 3.054-3.949 0.46-3.571 0.181-5.256-1.511-9.143-1.269-3.105-3.776-6.7-7.128-10.363z"/>
	<path d="m128.15 1189.4c-2.189-0.507-6.12 2.01-6.828 4.411-0.918 3.111 2.704 7.928 5.028 6.676 0.586-0.314 1.683-0.54 2.438-0.504 1.982 0.094 3.754-2.036 4.137-4.926 0.173-1.313 0.207-2.592 0.074-2.846-0.442-0.836-3.186-2.424-4.849-2.811z"/>
	<path d="m451.12 1520.1c-1.52-0.948-3.732-2.271-6.891-4.058-1.58-0.889-3.386-1.896-5.45-3.061-2.063-1.155-4.413-2.409-6.97-3.939-23.961-13.733-37.348-23.744-40.981-27.732-4.808-5.341-4.837-5.618-4.561-8.964 0.247-2.823 0.622-3.722 2.932-6.98 1.579-2.241 2.537-4.028 2.369-4.453-0.296-0.77-1.797-1.866-3.613-2.804-1.817-0.938-3.949-1.728-5.479-1.896-1.688-0.188-3.199-0.158-3.357 0.069-0.168 0.227-1.007 0.296-1.856 0.148-1.422-0.257-1.757 0-3.801 2.843-1.224 1.698-2.478 3.09-2.804 3.09-0.306-0.02-1.353-1.135-2.3-2.478-1.096-1.53-3.702-3.91-7.029-6.407-4.759-3.613-5.766-4.265-10.978-6.022-4.087-1.412-7.237-2.537-9.813-3.712-2.577-1.165-4.65-2.281-6.694-3.564-1.965-1.224-3.979-2.271-4.462-2.33-0.079 0-0.563-0.336-1.382-0.928 0 0-0.967-0.78-2.646-2.142-1.659-1.392-4.018-3.396-6.861-5.785-1.412-1.204-2.952-2.498-4.571-3.87-1.629-1.372-3.357-2.814-5.075-4.374-3.465-3.08-7.177-6.368-10.88-9.646-3.682-3.317-7.256-6.733-10.672-9.882-1.688-1.58-3.337-3.12-4.887-4.571-1.52-1.481-2.962-2.883-4.285-4.186-5.321-5.183-9.033-8.471-9.033-8.471s-3.436-3.525-8.599-8.806c-1.283-1.323-2.685-2.755-4.166-4.265-1.461-1.53-2.962-3.179-4.541-4.857-3.13-3.396-6.526-6.96-9.823-10.613-3.268-3.682-6.536-7.365-9.596-10.81-1.55-1.718-2.991-3.416-4.354-5.035s-2.656-3.149-3.85-4.561c-2.379-2.814-4.364-5.163-5.756-6.812-1.353-1.668-2.133-2.626-2.133-2.626-2.675-4.117-4.759-8.5-5.943-12.578-0.217-0.76-0.681-1.738-1.037-2.172-0.336-0.444-0.839-1.984-1.106-3.406-0.444-2.448-1.589-4.976-5.667-12.528-1.58-2.893-3.357-5.094-6.753-7.888-0.395-0.326 0.109-1.639 1.362-3.525 2.705-4.077 3.554-6.279 3.673-9.606h-0.01c0.089-2.438-0.207-3.218-2.093-5.983-2.715-3.9-3.949-4.028-6.852-0.652-1.432 1.678-2.202 2.212-3.84 2.636-2.922 0.76-6.99 0.138-9.043-1.382-0.968-0.711-2.073-1.402-2.448-1.53-2.123-0.661-4.66-3.376-8.392-8.688-2.281-3.278-5.578-7.681-7.177-9.882-0.819-1.086-2.843-4.087-5.43-8.056-1.283-2.004-2.774-4.196-4.206-6.585-1.441-2.389-2.952-4.887-4.462-7.385-1.501-2.498-2.991-4.956-4.383-7.266-1.353-2.33-2.616-4.502-3.732-6.397-2.241-3.801-3.89-6.496-4.413-7.177-2.833-3.653-3.376-2.221-0.888 2.409 4.798 9.29 16.023 29.726 17.316 32.066 1.57 3.061 3.811 7.177 6.141 11.304 1.145 2.083 2.379 4.127 3.574 6.042 1.195 1.925 2.33 3.732 3.337 5.292 2.389 3.682 4.285 6.99 4.206 7.325-0.079 0.346 0.197 1.106 0.602 1.688 1.155 1.668 1.609 5.075 1.017 7.543-0.661 2.764-4.028 6.111-6.822 6.743-1.58 0.365-1.935 0.652-2.231 1.896-0.523 2.132 1.757 6.259 4.541 8.244 2.567 1.738 6.457 2.646 7.681 1.797 0.424-0.296 1.441-0.533 2.251-0.533 0.81 0.01 2.123-0.464 2.922-1.037 1.589-1.155 1.728-0.997 3.692 4.245 0.671 1.767 2.162 4.275 3.88 6.447 1.718 2.162 3.564 4.068 4.788 4.749 1.155 0.642 2.409 1.57 2.774 2.053 0.375 0.484 1.777 1.461 3.11 2.152 1.767 0.918 2.715 1.441 4.058 2.429 1.362 0.958 3.11 2.389 6.437 5.124 2.202 1.807 3.959 3.337 5.795 5.163 0 0 0.78 0.968 2.142 2.646 1.392 1.659 3.396 4.018 5.795 6.861 1.195 1.412 2.498 2.952 3.87 4.571 1.372 1.639 2.824 3.347 4.374 5.075 3.08 3.465 6.368 7.177 9.655 10.88 3.327 3.673 6.733 7.266 9.892 10.672 1.58 1.698 3.1 3.357 4.571 4.887 1.481 1.53 2.893 2.962 4.186 4.295 5.193 5.311 9.369 8.145 9.369 8.145s3.554 3.475 8.895 8.698c1.343 1.303 2.784 2.715 4.314 4.206 1.56 1.461 3.209 3.001 4.917 4.591 3.426 3.169 7.029 6.605 10.731 9.932 3.722 3.297 7.444 6.605 10.929 9.705 1.728 1.56 3.465 3.001 5.094 4.383 1.639 1.382 3.179 2.685 4.601 3.89 2.853 2.409 5.232 4.423 6.891 5.825 1.698 1.362 2.666 2.142 2.666 2.142 2.606 2.626 5.696 6.131 8.273 9.33 2.547 3.219 4.689 5.973 5.183 7.316 0.444 1.165 1.886 3.238 3.189 4.62 1.313 1.372 3.475 3.702 4.818 5.163 3.475 3.752 7.947 6.812 10.198 7.167 1.076 0.168 2.508 0.622 3.199 1.017 1.224 0.681 1.185 0.819-1.056 4.117-3.692 5.44-3.189 9.053 2.261 13.802 1.343 1.185 3.169 2.3 4.127 2.527 1.668 0.385 1.807 0.276 4.354-3.426 2.577-3.752 2.705-3.84 5.795-4.502 5.065-1.047 9.734 0.296 19.972 5.973 3.86 2.202 7.77 4.038 8.54 4.324 0.691 0.247 3.564 1.787 7.908 4.235 1.086 0.612 2.271 1.283 3.534 2.004 1.274 0.691 2.636 1.432 4.068 2.211 2.863 1.57 6.012 3.297 9.369 5.144 1.323 0.721 2.666 1.471 4.038 2.192 1.382 0.691 2.764 1.402 4.137 2.093 2.725 1.372 5.38 2.675 7.71 3.801 4.65 2.29 8.096 3.712 8.362 3.623 0.967-0.327 0.799-0.88-2.252-2.736zm-263.03-234.44c-0.898 3.268-1.856 4.275-4.423 4.581-2.162 0.257-4.097-0.75-5.223-2.251-1.125-1.491-1.372-3.515-0.276-5.193 1.905-2.932 3.396-3.682 5.983-3.061 2.646 0.652 4.156 2.241 4.156 4.413 0 0.474-0.069 0.977-0.217 1.511zm186.03 194.11c-3.13 0.119-5.124-1.659-5.647-5.055-0.415-2.745-0.336-2.982 1.323-4.255 0.977-0.74 2.646-1.491 3.732-1.659 0.286-0.049 0.563-0.069 0.839-0.069 2.419 0 4.393 1.718 4.68 4.216 0.464 3.968-1.462 6.683-4.927 6.822z"/>
	<path d="m124.82 1174.1c2.083-2.526 3.35-4.919 3.811-7.256 0.467-2.34 0.092-4.606-0.97-6.954-0.961-2.07-1.561-2.217-2.542-0.612-1.031 1.687-3.744 2.977-5.713 2.693-1.707-0.246-3.866-2.117-6.523-5.679-1.32-1.785-2.801-3.976-4.344-6.626-1.514-2.663-3.148-5.761-4.905-9.297-3.612-7.234-3.849-7.992-2.98-8.357 0.52-0.219 1.169-0.138 1.442 0.179 8.169 9.079 16.007 14.312 20.975 13.943 3.713-0.262 7.483-3.338 7.245-5.849-0.087-1.073-3.294-4.086-4.012-3.771-0.209 0.093-1.323-0.036-2.477-0.288s-3.46-0.328-5.125-0.169c-4.321 0.415-7.89-0.525-10.817-2.848-3.913-3.085-3.766-3.93 0.472-5.673 5.676-2.336 9.234-1.81 10.701 1.483l0.799 1.827 2.695-1.458c2.813-1.521 4.192-3.735 4.583-7.32l-1e-3 -1e-3c0.606-4.714-4.039-9.327-9.543-9.532-3.69-0.134-4.652 0.847-3.584 3.696 1.179 3.144 0.066 4.429-7.424 8.685-2.078 1.182-2.665 1.308-3.263 0.696-1.96-2.01 0.909-10.443 5.121-14.85 4-4.201 4.549-4.957 4.66-7.014 0.112-1.844-0.053-2.265-1.29-3.299-0.781-0.652-1.892-1.177-2.469-1.165-2.007 0.045-4.675 1.409-6.102 3.143-3.582 4.372-4.756 9.777-3.703 19.684 0.506 5.045 0.248 6.204-1.319 5.757-0.876-0.249-1.424-1.281-2.674-5.036-0.866-2.596-2.871-8.177-4.269-12.475-2.799-8.303-3.445-11.87-2.511-14.899 0.654-2.106 3.447-4.052 5.452-3.825 1.835 0.206 3.411-1.371 3.165-3.152-0.267-1.943-3.694-5.967-6.045-7.113-2.389-1.161-5.789-1.504-9.923-1.002-2.922 0.355-3.859 0.711-6.474 2.505-5.014 3.424-7.887 10.076-6.303 14.504 0.969 2.708 2.11 3.407 3.257 2.002 3.228-3.913 7.81-1.139 12.305 6.898 1.412 2.562 3.26 5.794 4.109 7.186 0.474 0.771 1.123 2.061 1.864 3.568 0.763 1.498 1.597 3.222 2.37 4.886 1.545 3.329 2.845 6.424 2.849 7.021 0.016 2.35-2.366 1.093-3.619-1.919-0.28-0.672-0.915-1.551-1.412-1.953-0.497-0.401-2.521-2.209-4.504-4.029-2.411-2.179-4.771-3.818-7.177-4.765-4.356-1.736-4.633-1.785-7.74-1.134-1.978 0.413-2.661 0.851-3.54 2.29-0.89 1.458-0.915 2.238-0.142 4.27 0.642 1.686 1.418 2.692 2.421 3.12 1.33 0.56 8.112 0.714 9.332 0.219 0.256-0.102 2.041 0.343 3.962 0.98 6.201 2.055 9.111 5.068 6.158 6.437-7.573 3.494-10.307 3.708-12.918 0.96-2.146-2.257-3.322-2.118-6.412 0.831-2.487 2.374-2.789 5.671-0.921 9.952 0.795 1.872 2.065 3.655 2.866 4.177 1.445 0.945 8.13 0.648 8.853-0.377 0.209-0.295 0.176-1.438-0.073-2.538-0.519-2.277 0.339-4.543 2.126-5.589 6.652-3.909 8.763-5.028 9.264-4.972 1.539 0.199 0.809 9.394-0.889 10.149-0.365 0.158-0.812 0.77-0.992 1.359s-1.844 2.528-3.692 4.318c-4.091 3.966-4.286 4.393-3.52 7.39 0.514 1.994 0.932 2.539 2.649 3.322 1.922 0.859 2.249 0.805 4.675-0.717 2.149-1.345 2.839-2.266 4.069-5.179 1.329-3.149 1.609-5.427 1.976-14.969 0.028-0.714-0.234-2.466-0.582-3.891-0.526-2.119-0.363-2.743 0.641-3.339l1.242-0.734s0.721 2.041 1.518 4.052c0.779 2.019 1.558 4.037 1.558 4.037 2.224 5.719 3.712 9.846 4.868 12.971 1.164 3.122 1.861 5.303 2.338 7.209 0.725 2.894 0.642 3.662-0.632 5.909-0.959 1.694-1.916 2.688-2.781 2.875-4.724 1.018-4.699 0.987-3.554 3.44 1.463 3.188 7.07 6.444 11.509 6.861 4.498 0.418 9.171-1.815 12.505-5.859z"/>
	<path d="m72.717 1069.8c3.04-0.106 4.951-1.613 5.705-4.452 0.708-2.668 0.717-2.637-1.524-4.791-1.846-1.808-3.28-2.064-6.418-1.079-6.031 1.874-4.091 10.547 2.237 10.322z"/>
	<path d="m87.995 1069.5c2.707-4.671 3.034-7.036 1.678-12.464-1.245-5.344-2.702-8.406-6.953-14.197-3.273-4.396-5.456-7.978-7.112-10.984-1.634-3.013-2.634-5.481-3.201-7.772-0.699-2.772-0.603-3.549 0.554-5.456 1.164-1.922 1.742-2.314 4.337-2.968 1.646-0.414 3.24-1.132 3.543-1.593h1e-3c0.779-1.19-0.075-4.139-1.761-6.086-1.6-1.848-3.449-2.339-7.291-1.933-3.286 0.347-4.949 1.908-6.278 5.964-0.86 2.627-0.833 3.505 0.223 7.452 0.782 3.099 2.6 7.015 4.771 10.996 2.206 3.972 4.737 8.015 7.426 11.261 2.475 2.998 4.623 5.868 4.784 6.407 0.27 0.909 0.125 0.942-2.02 0.425-1.272-0.307-2.856-0.401-3.519-0.205-1.199 0.351-2.931 3.439-2.583 4.605 0.099 0.334 1.585 1.8 3.299 3.245 3.743 3.207 5.508 6.455 4.952 9.904-0.196 1.274-0.577 2.392-0.848 2.48s-0.842 0.859-1.269 1.715c-0.841 1.684-5.095 3.886-8.014 4.126-4.093 0.346-9.197-4.209-9.56-8.503-0.222-2.392 0.203-4.315 1.524-7.924 0.858-2.314 0.841-2.835-0.14-4.159-1.522-2.054-3.714-2.287-6.253-0.643-1.084 0.703-2.097 1.213-2.252 1.132-0.381-0.205-0.365-3.361 0.2-9.635 0.888-8.385 0.61-13.893-0.903-20.175-1.718-7.719-3.818-11.28-7.408-12.588-2.443-0.889-4.536-0.888-7.504 0.024-1.591 0.485-3.117 4.026-2.64 6.126 1.126 4.956 1.369 5.33 3.161 4.883 3.892-0.97 5.523-0.662 7.902 1.461 1.933 1.734 2.403 2.543 2.831 4.842 1.127 6.106 1.608 16.325 1.094 19.49-0.214 1.249-0.273 5.162-0.126 8.707 0.228 5.275 0.539 7.168 1.872 10.331 2.881 6.609 7.616 10.044 14.957 10.788 6.619 0.675 15.433-3.75 18.526-9.079z"/>
	<path d="m45.914 980.98c0.75 1.416 1.457 3.096 2.169 5.127 0.736 2.027 1.532 4.393 2.363 7.202 1.272 4.266 2.595 8.359 2.943 9.104 0.154 0.33 0.456 1.278 0.879 2.747 0.439 1.466 1.031 3.443 1.748 5.836 0.688 2.4 1.496 5.217 2.395 8.354 0.44 1.571 0.902 3.221 1.384 4.94 0.518 1.709 1.056 3.486 1.611 5.319 0.868 2.878 1.808 5.896 2.737 8.808 0.47 1.454 0.931 2.883 1.375 4.258 0.463 1.368 0.946 2.669 1.385 3.888 1.772 4.871 3.134 8.341 3.378 8.464 0.909 0.463 1.19-0.054 0.378-3.54-0.406-1.743-1.085-4.229-2.095-7.707-0.959-3.493-2.196-7.994-3.777-13.75-1.905-6.634-3.273-12.701-4.542-18.078-0.609-2.694-1.18-5.219-1.713-7.576-0.444-2.375-0.855-4.58-1.235-6.614-1.45-8.146-2.149-13.587-1.91-16.308 0.496-7.196 0.565-7.394 3.135-9.568 2.162-1.822 3.065-2.187 6.998-2.861 2.703-0.464 4.638-1.052 4.82-1.466v2e-3c0.332-0.755 0.018-2.588-0.624-4.533-0.608-1.951-1.509-4.022-2.454-5.226-1.037-1.327-2.115-2.38-2.395-2.333s-0.922-0.495-1.428-1.206c-0.839-1.179-1.252-1.239-4.705-0.673-2.082 0.342-3.959 0.432-4.172 0.2s-0.175-1.751 0.086-3.372c0.295-1.85 0.079-5.375-0.403-9.505-0.747-5.934-1.088-7.086-3.547-12.016-0.984-1.939-1.784-3.671-2.462-5.25-0.688-1.577-1.272-2.998-1.778-4.322-1.01-2.647-1.702-4.904-2.26-7.254-0.536-2.255-1.23-4.415-1.543-4.797-0.058-0.063-0.149-0.635-0.285-1.641 0 0-0.438-4.931-1.095-12.328-0.164-1.849-0.342-3.853-0.53-5.971-0.136-2.123-0.279-4.362-0.427-6.678-0.283-4.633-0.631-9.572-0.895-14.515-0.353-9.895-0.843-19.787-0.832-27.215-0.094-7.426-0.401-12.376-0.401-12.376s0.062-4.922 0.156-12.306c-0.01-7.386 0.471-17.222 0.824-27.061 0.25-4.916 0.606-9.827 0.884-14.433 0.146-2.303 0.287-4.529 0.421-6.64 0.185-2.107 0.36-4.099 0.522-5.938 0.653-7.355 1.088-12.258 1.088-12.258 0.947-4.808 2.675-9.368 4.728-13.091 0.385-0.691 0.753-1.713 0.817-2.27 0.064-0.558 0.769-1.997 1.567-3.194 1.342-2.064 2.364-4.653 4.887-12.867 0.987-3.153 1.119-5.987 0.722-10.364-0.043-0.511 1.243-1.079 3.473-1.528 4.813-0.965 6.977-1.923 9.435-4.189v-2e-3c1.807-1.663 2.168-2.421 2.713-5.719 0.758-4.694 0.015-5.65-4.438-5.31-2.205 0.171-3.125 3e-3 -4.583-0.856-2.595-1.525-5-4.836-5.352-7.357-0.166-1.186-0.448-2.452-0.627-2.81-0.96-1.951-0.989-5.698 0.132-12.089 0.739-3.922 1.623-9.344 1.966-12.051 0.255-2.724 2.793-14.218 5.553-25.559 1.496-5.64 2.896-11.116 3.947-15.396 0.508-2.145 0.989-3.974 1.35-5.376 0.354-1.403 0.578-2.382 0.637-2.806 0.64-4.571-0.759-3.946-2.349 1.067-0.396 1.246-0.853 2.684-1.351 4.25-0.469 1.575-0.977 3.279-1.504 5.051-1.07 3.54-2.22 7.348-3.3 10.923-0.561 1.783-1.051 3.521-1.497 5.141-0.457 1.617-0.879 3.113-1.249 4.424-0.746 2.621-1.296 4.501-1.508 5.135-0.548 1.634-1.167 3.57-1.814 5.667-0.635 2.1-1.225 4.379-1.841 6.671-1.214 4.587-2.379 9.259-3.195 12.881-0.877 4.307-1.806 7.993-2.103 8.182-0.293 0.189-0.642 0.916-0.776 1.616-0.381 1.988-2.498 4.715-4.682 6.043-2.436 1.477-7.195 1.468-9.605-0.055-1.366-0.864-1.822-0.904-2.919-0.244-1.922 1.13-3.115 5.684-2.51 9.064 0.556 3.041 2.638 6.429 4.099 6.691 0.517 0.094 1.402 0.642 1.968 1.217s1.822 1.17 2.792 1.324c1.948 0.311 1.893 0.516-0.416 5.61-1.513 3.466-2.499 11.365-1.753 14.053 0.353 1.273 0.572 2.808 0.488 3.414-0.094 0.605 0.209 2.282 0.697 3.725 1.252 3.793 1.316 4.199 2.099 12.752 0.279 2.837 0.36 5.156 0.446 7.752 0 0-0.438 4.934-1.095 12.334-0.163 1.85-0.339 3.855-0.525 5.975-0.135 2.124-0.277 4.364-0.424 6.681-0.28 4.635-0.637 9.576-0.889 14.522-0.356 9.899-0.839 19.795-0.83 27.226-0.094 7.429 0.853 12.381 0.853 12.381s0.063 4.976 0.157 12.44c-0.01 7.466 0.482 17.409 0.837 27.355 0.266 4.969 0.616 9.934 0.9 14.59 0.149 2.328 0.293 4.578 0.429 6.712 0.189 2.13 0.368 4.144 0.533 6.003 0.66 7.435 1.101 12.392 1.101 12.392-0.06 7.39-1.067 18.674-2.286 21.289-0.534 1.135-0.943 3.613-0.984 5.514-0.033 1.899-0.124 5.07-0.202 7.046-0.1 2.558 0.065 5.174 0.421 7.381 0.353 2.207 0.987 3.992 1.661 4.918 0.647 0.87 1.356 2.207 1.575 2.972 0.385 1.344 0.262 1.416-3.65 2.162-6.467 1.228-8.576 4.131-8.223 11.361 0.066 1.799 0.621 3.867 1.144 4.707 0.92 1.454 1.09 1.473 5.516 0.655 4.472-0.828 4.623-0.804 7.296 0.914 2.203 1.412 3.871 3.185 5.37 6.016zm-1.627-20.013c1.671-2.242 1.887-2.348 3.96-2.069 1.206 0.163 2.906 0.822 3.778 1.464 2.279 1.663 2.605 4.66 0.912 6.847-2.458 3.128-5.741 3.686-8.311 1.337-2.332-2.125-2.394-4.803-0.339-7.579zm1.116-270.28c3.395-0.724 4.991-0.195 6.409 2.073 1.786 2.856 1.257 5.476-1.406 6.973-2.973 1.671-4.361 1.708-6.384 0.11-3.398-2.68-2.546-8.322 1.381-9.156z"/>
	<path d="m42.725 645.1c2.812 0.649 3.387 0.572 4.967-0.629 2.882-2.193 3.896-3.576 5.494-7.51 0.63-1.552 1.125-3.41 1.482-5.501 0.353-2.093 0.567-4.42 0.729-6.887 0.28-4.945 0.018-10.538-0.81-16.202-0.336-2.165-0.289-4.306-0.039-4.79 0.43-0.78 0.684-0.674 2.403 0.966 1.624 1.548 2.212 1.802 3.769 1.648 4.039-0.403 4.727-4.431 1.765-10.221-2.238-4.371-1.394-8.694 1.282-11.377 2.639-2.7 6.952-3.793 11.559-1.903 4.529 1.858 6.694 5.856 6.01 11.066-0.321 2.667-2.532 5.414-6.344 7.782-6.19 3.88-3.96 11.03 2.716 8.649 3.287-1.155 3.923-0.811 2.73 1.443-0.543 1.023-1.583 2.535-2.268 3.373-1.335 1.584-6.8 9.016-10.089 13.75-1.391 1.949-2.282 4.395-3.221 8.194-1.695 6.965-0.984 10.493 2.784 13.684 3.129 2.616 5.587 2.931 8.774 1.219 1.998-1.063 2.441-1.63 2.976-3.821 0.346-1.416 0.352-2.89 0.014-3.276s-1.939-1.067-3.558-1.514c-3.529-0.973-5.353-2.812-5.507-5.565-0.055-1.102 0.703-3.791 1.772-6.498 1.107-2.698 2.47-5.425 3.466-6.661 1.887-2.342 3.431-4.63 6.438-9.524 4.66-7.224 5.717-9.325 6.806-13.781 0.438-1.778 0.652-3.009 0.661-4.294 0.033-1.278-0.151-2.612-0.533-4.61-1.512-7.884-6.597-13.017-15.021-14.907-3.577-0.813-12.692-0.023-13.064 1.123-0.106 0.327-1.104 1.207-2.219 1.96-2.469 1.695-3.846 3.954-6.07 11.287-1.767 5.706-2.412 10.987-1.716 14.078 0.365 1.509 0.722 9.147 0.57 12.165-0.034 0.67-7e-3 2.606 0.061 4.299 0.128 4.132-0.814 7.882-2.729 9.977-2.019 2.214-5.484 3.078-8.02 1.973-1.111-0.485-2.306-0.628-2.902-0.345-2.307 1.098-2.07 7.206 0.374 9.307 0.721 0.626 2.753 1.468 4.508 1.873z"/>
	<path d="m75.451 596.64c1.04-0.809 1.957-1.693 2.038-1.967 0.247-0.913-0.516-3.96-1.407-5.407-1.17-1.901-5.734-2.905-7.956-1.717-2.93 1.525-3.659 7.527-1.145 8.282 0.636 0.193 1.575 0.811 2.087 1.371 1.346 1.473 4.094 1.218 6.383-0.562z"/>
	<path d="m71.737 526.38c0.359-0.059 1.158-0.885 1.775-1.833 1.277-1.963 3.506-2.949 5.493-2.431 7.456 1.941 9.738 2.643 10.055 3.039 1.014 1.257-6.167 7.174-7.885 6.512-0.37-0.147-1.123-0.033-1.674 0.254-0.552 0.286-3.08 0.486-5.647 0.445-5.678-0.085-6.115 0.08-7.666 2.751-1.032 1.779-1.106 2.467-0.447 4.234 0.731 1.96 0.998 2.152 3.794 2.795 2.463 0.568 3.648 0.422 6.547-0.778 1.574-0.651 2.806-1.323 4.513-2.654 1.731-1.32 3.829-3.345 7.423-6.544 0.533-0.482 1.61-1.896 2.392-3.141 1.165-1.855 1.675-2.199 2.817-1.905l1.395 0.36-3.624 7.863c-4.912 11.245-7.145 15.999-9.198 19.355-1.507 2.568-2.102 3.054-4.577 3.746-1.865 0.522-3.24 0.55-3.986 0.069-4.069-2.627-4.03-2.632-4.93-0.078-1.161 3.309 0.34 9.524 3.194 12.964 2.908 3.487 7.792 5.216 12.986 4.71 6.52-0.624 10.426-3.147 12.139-8.005 0.762-2.151 0.438-2.681-1.38-2.238-1.912 0.466-4.741-0.542-5.943-2.14-1.028-1.38-1.299-4.255-0.641-8.647 0.704-4.374 2.26-10.294 4.721-17.802 2.687-7.619 3.035-8.331 3.9-7.977 0.522 0.213 0.927 0.731 0.899 1.149-0.201 3.031-0.242 5.883-0.131 8.505 0.142 2.634 0.469 5.052 0.907 7.178 0.887 4.257 2.306 7.384 4.157 9.002 2.787 2.434 7.66 2.94 9.279 1.002 0.687-0.823 0.513-5.237-0.217-5.523-0.213-0.082-0.915-0.963-1.559-1.961-0.644-0.997-2.23-2.686-3.524-3.754-3.381-2.778-5.193-5.95-5.575-9.646-0.504-4.917 0.113-5.445 4.364-3.668 5.659 2.364 7.852 5.275 6.488 8.611l-0.755 1.846 2.939 0.879c3.068 0.918 5.629 0.337 8.485-1.902v-1e-3c3.745-2.91 3.606-9.507-0.08-13.522-2.489-2.696-3.882-2.692-5.167 0.068-1.359 3.069-3.046 3.193-11.34 0.904-2.301-0.634-2.807-0.961-2.804-1.82 0.013-1.399 1.972-3.112 4.756-4.454 2.796-1.338 6.345-2.33 9.412-2.396 5.832-0.124 6.709-0.289 8.237-1.667 1.367-1.231 1.544-1.647 1.388-3.259-0.098-1.017-0.521-2.179-0.939-2.579-1.456-1.392-4.304-2.314-6.528-2.094-5.613 0.56-10.134 3.607-16.566 11.28-3.165 3.942-4.159 4.582-4.959 3.154-0.443-0.796-0.126-1.924 1.63-5.469 1.262-2.431 3.899-7.749 5.86-11.816 0.952-1.972 1.791-3.639 2.567-5.049 0.807-1.396 1.538-2.541 2.23-3.49 1.385-1.896 2.619-3.003 4.013-3.746 1.936-1.033 5.277-0.436 6.542 1.147 1.159 1.448 3.379 1.444 4.449 4e-3 1.17-1.569 1.524-6.872 0.736-9.316-0.843-2.499-2.985-5.139-6.251-7.704-2.309-1.813-3.223-2.224-6.351-2.813-5.978-1.134-12.828 1.478-14.752 5.771-1.204 2.611-0.883 3.918 0.913 3.732 5-0.504 6.426 4.768 3.749 13.551-0.821 2.806-1.743 6.425-2.121 8.012-0.411 1.764-1.72 5.528-3.031 8.953-1.338 3.414-2.499 6.568-2.937 6.984-1.631 1.681-2.444-0.901-1.229-3.93 0.275-0.675 0.426-1.754 0.369-2.385-0.06-0.632-0.18-3.328-0.262-6.004-0.098-3.219-0.677-6.078-1.711-8.451-1.88-4.322-2.041-4.554-4.702-6.294-1.692-1.109-2.484-1.282-4.113-0.884-1.65 0.404-2.214 0.941-3.085 2.933-0.723 1.653-0.873 2.918-0.464 3.933 0.531 1.331 5.18 6.225 6.392 6.739 0.254 0.109 1.186 1.681 2.075 3.483 2.868 5.814 2.902 10.049-0.175 8.917-7.821-2.889-9.911-4.676-9.845-8.479 0.049-3.127-0.854-3.849-5.134-3.956-3.425-0.078-5.945 2.049-7.612 6.414-0.726 1.9-1.133 4.042-0.945 4.974 0.334 1.683 5.238 6.193 6.482 5.983z"/>
	<path d="m127.28 456.7c-5.531-2.912-10.402 4.534-5.796 8.839 2.214 2.07 4.64 2.364 7.211 0.906 2.416-1.37 2.401-1.342 2.373-4.433-0.021-2.583-0.879-3.792-3.788-5.312z"/>
	<path d="m113.03 469.48c4.228 5.171 13.574 8.274 19.49 6.676 5.158-1.416 7.105-2.835 10.058-7.594 1.445-2.331 2.436-4.306 3.194-6.588 0.379-1.141 0.7-2.359 0.991-3.737 0.314-1.366 0.611-2.885 0.906-4.649 0.9-5.366 1.771-9.51 2.712-12.814 0.932-3.311 2.059-5.713 3.286-7.729 1.509-2.429 2.111-2.92 4.258-3.463 2.166-0.546 2.849-0.416 5.145 0.957 1.457 0.871 3.088 1.49 3.624 1.375 1.398-0.287 2.795-3.027 3.027-5.568 0.199-2.424-0.752-4.073-3.75-6.501-2.564-2.076-4.855-2.155-8.701-0.25-2.483 1.239-3.045 1.903-5.056 5.461-1.566 2.787-3.145 6.786-4.463 11.115-1.258 4.363-2.193 9.089-2.647 13.254-0.406 3.851-0.979 7.366-1.224 7.874-0.442 0.839-0.568 0.76-1.73-1.129-0.694-1.123-1.729-2.301-2.34-2.633-1.112-0.608-4.495 0.362-5.062 1.439-0.163 0.309-0.131 2.405 0.076 4.649 0.459 4.958-0.721 8.435-3.567 10.473-1.064 0.749-2.095 1.285-2.354 1.153-0.253-0.129-1.197 0.014-2.098 0.32-1.772 0.601-6.33-0.849-8.569-2.748-1.567-1.331-2.48-3.709-2.623-6.162-0.116-2.437 0.516-4.957 1.929-6.586 1.582-1.823 3.176-2.917 6.648-4.541 2.224-1.039 2.576-1.421 2.804-3.06 0.362-2.536-0.982-4.23-3.959-4.874-1.267-0.272-2.347-0.63-2.398-0.796-0.13-0.418 2.178-2.601 7.039-6.622 3.247-2.669 5.747-5.05 7.931-7.414 2.201-2.353 3.999-4.738 5.699-7.485 2.085-3.359 3.36-6.053 3.942-8.324 0.61-2.254 0.481-4.112-0.316-5.836-1.085-2.347-2.56-3.823-5.306-5.279-1.469-0.783-5.083 0.623-6.251 2.432-2.723 4.289-2.763 4.758-1.195 5.7 3.438 2.067 4.38 3.442 4.588 6.642 0.17 2.611-0.066 3.517-1.424 5.424-3.685 5.019-10.331 12.72-13.004 14.553-1.037 0.729-3.922 3.412-6.318 6.026-3.529 3.911-4.604 5.492-5.902 8.669-1.352 3.336-1.848 6.426-1.353 9.43 0.505 3.009 1.919 5.891 4.263 8.76z"/>
	<path d="m139.78 433.16c-0.7 1.381-1.403 2.769-2.094 4.133-1.372 2.733-2.678 5.383-3.804 7.715-2.286 4.646-3.71 8.098-3.624 8.359 0.322 0.974 0.882 0.805 2.739-2.252 0.947-1.519 2.269-3.732 4.053-6.885 0.887-1.579 1.901-3.387 3.059-5.45 1.162-2.061 2.408-4.412 3.941-6.974 13.736-23.958 23.747-37.348 27.733-40.979 5.337-4.807 5.616-4.837 8.961-4.564 2.829 0.247 3.727 0.629 6.985 2.933 2.239 1.583 4.026 2.535 4.45 2.374l-1e-3 2e-3c1.549-0.589 4.361-6.035 4.702-9.096 0.186-1.685 0.152-3.203-0.071-3.362-0.231-0.164-0.297-0.998-0.146-1.854 0.251-1.42 2e-3 -1.754-2.841-3.793-1.714-1.229-3.105-2.492-3.089-2.805 0.015-0.313 1.128-1.353 2.469-2.307 1.532-1.089 3.917-3.702 6.411-7.026 3.616-4.763 4.261-5.765 6.02-10.979 1.413-4.085 2.542-7.235 3.71-9.812 1.171-2.575 2.29-4.651 3.568-6.697 1.227-1.964 2.275-3.974 2.325-4.462 9e-3 -0.082 0.336-0.561 0.938-1.379 0 0 0.776-0.964 2.135-2.651 1.398-1.654 3.395-4.018 5.791-6.854 1.199-1.418 2.497-2.953 3.871-4.578 1.373-1.625 2.81-3.348 4.367-5.069 3.08-3.472 6.366-7.175 9.652-10.878 3.31-3.681 6.729-7.263 9.877-10.673 1.584-1.696 3.116-3.335 4.568-4.889 1.486-1.522 2.891-2.961 4.188-4.289 5.188-5.313 8.474-9.028 8.474-9.028s3.522-3.439 8.805-8.598c1.321-1.29 2.752-2.687 4.265-4.165 1.527-1.464 3.175-2.967 4.859-4.544 3.389-3.132 6.956-6.526 10.609-9.826 3.682-3.267 7.364-6.534 10.816-9.598 1.712-1.547 3.415-2.988 5.035-4.348 1.615-1.366 3.142-2.657 4.552-3.849 2.819-2.384 5.169-4.37 6.813-5.761 1.674-1.354 2.631-2.128 2.631-2.128 4.113-2.677 8.494-4.759 12.576-5.942 0.759-0.219 1.735-0.689 2.174-1.039 0.446-0.342 1.978-0.839 3.402-1.103 2.452-0.453 4.976-1.599 12.531-5.673 2.892-1.579 5.091-3.352 7.889-6.751 0.328-0.395 1.635 0.107 3.524 1.361 4.075 2.709 6.275 3.553 9.602 3.67l1e-3 -1e-3c2.438 0.081 3.224-0.208 5.98-2.101 3.908-2.708 4.032-3.95 0.653-6.846-1.677-1.434-2.208-2.204-2.634-3.847-0.761-2.923-0.137-6.989 1.384-9.04 0.715-0.966 1.404-2.07 1.529-2.452 0.66-2.12 3.379-4.655 8.688-8.387 3.276-2.281 7.679-5.578 9.881-7.177 1.087-0.82 4.094-2.84 8.063-5.434 1.995-1.28 4.187-2.775 6.579-4.205 2.387-1.439 4.891-2.949 7.389-4.456 2.498-1.508 4.957-2.992 7.263-4.384 2.326-1.357 4.498-2.624 6.401-3.734 3.795-2.24 6.49-3.894 7.169-4.42 3.655-2.833 2.23-3.369-2.405-0.886-9.292 4.796-29.724 16.028-32.064 17.317-3.065 1.57-7.174 3.809-11.309 6.142-2.079 1.148-4.124 2.384-6.043 3.578-1.923 1.187-3.727 2.323-5.284 3.332-3.689 2.39-6.989 4.285-7.332 4.209-0.346-0.081-1.103 0.192-1.688 0.599-1.664 1.153-5.071 1.609-7.544 1.017-2.756-0.663-6.108-4.028-6.741-6.819-0.358-1.582-0.652-1.933-1.889-2.236-2.132-0.523-6.263 1.757-8.243 4.549-1.742 2.564-2.651 6.454-1.804 7.672 0.299 0.432 0.539 1.449 0.535 2.259s0.465 2.122 1.041 2.917c1.149 1.588 0.99 1.727-4.248 3.691-1.768 0.679-4.277 2.168-6.443 3.887-2.17 1.715-4.07 3.559-4.752 4.782-0.645 1.157-1.569 2.407-2.054 2.78-0.486 0.372-1.458 1.773-2.156 3.109-0.918 1.764-1.442 2.715-2.423 4.059-0.965 1.362-2.394 3.109-5.123 6.429-1.81 2.202-3.343 3.96-5.168 5.797 0 0-0.963 0.779-2.647 2.142-1.655 1.399-4.019 3.398-6.855 5.796-1.418 1.199-2.955 2.499-4.58 3.873-1.63 1.369-3.343 2.819-5.066 4.375-3.473 3.082-7.178 6.369-10.883 9.657-3.675 3.32-7.265 6.734-10.674 9.886-1.695 1.587-3.353 3.1-4.889 4.573-1.523 1.487-2.962 2.892-4.291 4.19-5.316 5.191-8.146 9.365-8.146 9.365s-3.477 3.561-8.692 8.901c-1.304 1.335-2.716 2.782-4.21 4.312-1.46 1.562-3 3.21-4.592 4.914-3.165 3.428-6.601 7.029-9.929 10.728-3.303 3.722-6.606 7.445-9.702 10.934-1.565 1.73-3.009 3.463-4.39 5.095-1.381 1.633-2.686 3.177-3.891 4.602-2.409 2.851-4.416 5.227-5.821 6.89-1.366 1.696-2.146 2.664-2.146 2.664-2.626 2.605-6.131 5.698-9.324 8.269-3.222 2.546-5.974 4.696-7.322 5.19-1.159 0.443-3.235 1.878-4.614 3.189-1.378 1.31-3.703 3.474-5.167 4.808-3.752 3.483-6.81 7.951-7.17 10.208-0.165 1.068-0.618 2.506-1.01 3.198-0.688 1.216-0.827 1.179-4.122-1.059-5.436-3.698-9.051-3.187-13.799 2.256-1.186 1.346-2.3 3.17-2.525 4.133-0.39 1.67-0.284 1.803 3.425 4.353 3.748 2.576 3.838 2.7 4.496 5.791 1.049 5.071-0.29 9.739-5.972 19.975-2.198 3.863-4.031 7.773-4.326 8.537-0.241 0.689-1.785 3.562-4.234 7.913-0.615 1.086-1.284 2.266-2 3.529-0.693 1.277-1.432 2.638-2.211 4.072-1.57 2.86-3.3 6.012-5.142 9.369-0.718 1.318-1.475 2.66-2.188 4.035zm225.32-254.72c1.491-1.132 3.517-1.377 5.2-0.284 2.923 1.906 3.675 3.405 3.056 5.987-0.796 3.228-2.982 4.764-5.92 3.943-3.272-0.906-4.278-1.86-4.584-4.429-0.258-2.158 0.752-4.092 2.248-5.217zm-186.72 190.03c2.742-0.422 2.973-0.343 4.247 1.324 0.742 0.97 1.49 2.647 1.663 3.724 0.447 2.795-1.359 5.202-4.143 5.525-3.972 0.46-6.689-1.467-6.822-4.929-0.122-3.134 1.655-5.121 5.055-5.644z"/>
	<path d="m404.63 147.15c3.571 0.46 5.256 0.181 9.143-1.511 3.106-1.269 6.701-3.776 10.364-7.129 1.837-1.667 3.67-3.583 5.507-5.593 1.846-1.995 3.657-4.152 5.381-6.421 1.314-1.73 2.824-3.279 3.346-3.437 0.85-0.258 0.956-3e-3 1.019 2.385 0.061 2.255 0.299 2.851 1.505 3.836 1.564 1.277 3.177 1.312 4.642 0.248 0.733-0.53 1.426-1.342 2.065-2.398 0.648-1.041 1.236-2.338 1.742-3.875 1.527-4.634 5.208-7.041 8.958-7.123 3.75-0.095 7.57 2.174 9.499 6.777 1.876 4.486 0.614 8.905-3.524 12.164-2.11 1.666-5.646 1.99-10.03 0.945-3.573-0.866-6.19 0.483-7.146 2.319-0.95 1.855-0.196 4.268 2.981 5.768 3.129 1.483 3.336 2.177 0.915 2.958-1.099 0.354-2.89 0.713-3.981 0.798-1.042 0.081-3.848 0.444-7.113 0.911-3.274 0.45-6.922 1.155-9.748 1.676-2.332 0.446-4.734 1.475-8.102 3.469-3.101 1.797-5.077 3.566-6.288 5.4-1.2 1.851-1.587 3.844-1.376 6.316 0.345 4.035 1.877 6.023 5.337 7.057 2.155 0.645 2.866 0.551 4.779-0.644 1.236-0.772 2.274-1.825 2.306-2.34s-0.621-2.132-1.45-3.593c-1.814-3.193-1.799-5.775 0.058-7.8 1.489-1.628 9.863-5.257 12.996-5.628 2.975-0.35 5.723-0.81 11.335-2.102 4.182-0.951 6.82-1.618 8.906-2.354 2.106-0.696 3.659-1.457 5.629-2.624 3.153-1.864 4.12-2.81 6.38-6.221 1.119-1.68 1.948-3.41 2.512-5.132 0.569-1.713 0.855-3.456 0.855-5.223 0-3.533-1.142-7.158-3.459-10.806-1.958-3.107-8.983-9.024-10.062-8.487-0.312 0.146-1.627 0.087-2.944-0.159-2.944-0.544-5.444 0.213-12.261 3.715-1.328 0.682-2.588 1.396-3.757 2.124-1.164 0.738-2.22 1.521-3.174 2.282-1.904 1.53-3.361 3.041-4.2 4.397-0.809 1.324-6.019 6.866-8.244 8.919-0.493 0.456-1.831 1.865-2.969 3.128-2.785 3.09-6.148 4.998-8.996 5.105-3.012 0.107-6.078-1.74-7.087-4.309-0.444-1.131-1.187-2.076-1.806-2.292-2.398-0.839-6.512 3.706-6.26 6.934 0.073 0.96 0.914 2.992 1.868 4.516 1.531 2.449 1.994 2.804 3.949 3.054z"/>
	<path d="m458.06 132.92c1.314 0.173 2.592 0.208 2.846 0.074 0.836-0.441 2.424-3.185 2.811-4.848 0.507-2.189-2.01-6.12-4.411-6.828-3.111-0.918-7.928 2.704-6.676 5.028 0.313 0.586 0.54 1.683 0.504 2.438-0.093 1.982 2.037 3.754 4.926 4.136z"/>
	<path d="m478.97 124.82c2.526 2.083 4.919 3.35 7.256 3.811 2.34 0.467 4.606 0.092 6.954-0.97 2.07-0.961 2.217-1.561 0.612-2.542-1.687-1.031-2.977-3.744-2.693-5.713 0.246-1.707 2.117-3.866 5.679-6.523 1.785-1.32 3.976-2.802 6.626-4.344 2.663-1.514 5.761-3.148 9.297-4.905 7.234-3.612 7.992-3.849 8.357-2.98 0.219 0.52 0.138 1.169-0.179 1.442-9.079 8.169-14.312 16.007-13.944 20.975 0.262 3.713 3.338 7.483 5.849 7.245 1.072-0.087 4.086-3.294 3.771-4.012-0.093-0.209 0.036-1.323 0.288-2.477s0.328-3.46 0.169-5.125c-0.415-4.321 0.525-7.89 2.848-10.817 3.085-3.913 3.93-3.766 5.673 0.472 2.336 5.676 1.81 9.234-1.483 10.702l-1.827 0.799 1.458 2.695c1.521 2.813 3.735 4.192 7.32 4.583h1e-3c4.714 0.606 9.327-4.039 9.532-9.543 0.134-3.69-0.847-4.652-3.696-3.584-3.144 1.179-4.429 0.067-8.685-7.424-1.182-2.078-1.308-2.665-0.696-3.263 2.01-1.96 10.443 0.909 14.85 5.121 4.201 4 4.957 4.549 7.014 4.66 1.844 0.112 2.265-0.053 3.299-1.29 0.652-0.781 1.177-1.892 1.165-2.469-0.045-2.007-1.409-4.675-3.143-6.102-4.372-3.582-9.777-4.756-19.684-3.704-5.045 0.506-6.204 0.248-5.757-1.319 0.249-0.876 1.282-1.424 5.036-2.674 2.596-0.867 8.177-2.871 12.475-4.269 8.303-2.799 11.87-3.445 14.899-2.511 2.106 0.654 4.052 3.447 3.825 5.452-0.206 1.835 1.371 3.411 3.152 3.165 1.943-0.267 5.967-3.694 7.113-6.045 1.16-2.389 1.504-5.789 1.002-9.923-0.355-2.922-0.711-3.859-2.505-6.474-3.424-5.014-10.076-7.887-14.504-6.303-2.708 0.969-3.407 2.11-2.002 3.257 3.913 3.228 1.139 7.81-6.898 12.305-2.562 1.412-5.794 3.26-7.186 4.109-0.77 0.474-2.061 1.123-3.569 1.864-1.498 0.763-3.222 1.597-4.886 2.37-3.329 1.545-6.424 2.845-7.021 2.849-2.35 0.016-1.093-2.366 1.919-3.619 0.672-0.28 1.551-0.915 1.953-1.412 0.401-0.497 2.209-2.522 4.029-4.504 2.179-2.411 3.818-4.771 4.765-7.177 1.736-4.356 1.785-4.633 1.134-7.74-0.412-1.978-0.851-2.661-2.29-3.54-1.458-0.89-2.238-0.915-4.27-0.142-1.686 0.642-2.691 1.418-3.12 2.421-0.56 1.33-0.714 8.112-0.219 9.332 0.102 0.256-0.343 2.041-0.98 3.962-2.055 6.201-5.068 9.111-6.437 6.158-3.494-7.573-3.708-10.307-0.96-12.918 2.257-2.146 2.118-3.322-0.831-6.412-2.374-2.487-5.671-2.789-9.952-0.921-1.872 0.795-3.655 2.065-4.177 2.866-0.945 1.445-0.648 8.13 0.377 8.853 0.295 0.209 1.438 0.176 2.538-0.073 2.277-0.519 4.543 0.339 5.589 2.126 3.909 6.652 5.028 8.762 4.972 9.264-0.199 1.539-9.394 0.809-10.149-0.889-0.158-0.365-0.77-0.812-1.359-0.992-0.589-0.181-2.528-1.844-4.318-3.692-3.966-4.091-4.393-4.286-7.39-3.52-1.994 0.514-2.539 0.932-3.322 2.649-0.859 1.922-0.805 2.249 0.717 4.675 1.345 2.149 2.266 2.839 5.179 4.069 3.149 1.329 5.427 1.609 14.969 1.976 0.714 0.028 2.466-0.234 3.892-0.582 2.119-0.526 2.743-0.363 3.339 0.641l0.734 1.242s-2.041 0.721-4.052 1.518c-2.019 0.779-4.037 1.558-4.037 1.558-5.719 2.224-9.846 3.712-12.971 4.868-3.122 1.164-5.303 1.861-7.209 2.338-2.894 0.725-3.662 0.641-5.909-0.632-1.694-0.959-2.688-1.916-2.875-2.781-1.017-4.724-0.987-4.699-3.44-3.554-3.187 1.463-6.444 7.07-6.861 11.509-0.417 4.497 1.817 9.17 5.86 12.504z"/>
	<path d="m592.52 76.898c1.808-1.846 2.064-3.28 1.079-6.418-1.874-6.031-10.547-4.091-10.322 2.237 0.106 3.04 1.613 4.951 4.452 5.705 2.667 0.708 2.637 0.717 4.791-1.524z"/>
	<path d="m583.58 87.995c4.671 2.707 7.036 3.034 12.464 1.679 5.344-1.245 8.406-2.702 14.197-6.953 4.396-3.273 7.978-5.456 10.984-7.112 3.013-1.634 5.481-2.634 7.772-3.201 2.772-0.699 3.549-0.603 5.456 0.554 1.922 1.164 2.314 1.742 2.968 4.337 0.414 1.646 1.131 3.24 1.593 3.543v1e-3c1.19 0.779 4.139-0.075 6.086-1.761 1.848-1.6 2.339-3.449 1.933-7.291-0.347-3.286-1.908-4.949-5.964-6.278-2.627-0.86-3.505-0.833-7.452 0.223-3.099 0.782-7.015 2.6-10.996 4.771-3.972 2.206-8.015 4.737-11.262 7.426-2.998 2.475-5.868 4.623-6.407 4.784-0.909 0.27-0.942 0.125-0.425-2.02 0.307-1.272 0.401-2.856 0.205-3.519-0.351-1.199-3.439-2.931-4.605-2.584-0.334 0.1-1.8 1.586-3.245 3.299-3.207 3.743-6.455 5.508-9.904 4.952-1.274-0.196-2.392-0.578-2.48-0.848-0.088-0.271-0.859-0.842-1.715-1.269-1.684-0.841-3.886-5.095-4.126-8.014-0.346-4.093 4.209-9.197 8.502-9.56 2.392-0.222 4.315 0.203 7.924 1.524 2.314 0.858 2.835 0.841 4.159-0.14 2.054-1.522 2.287-3.714 0.643-6.253-0.703-1.084-1.213-2.097-1.132-2.252 0.205-0.381 3.361-0.365 9.635 0.2 8.385 0.888 13.893 0.61 20.175-0.903 7.719-1.718 11.281-3.818 12.588-7.408 0.889-2.443 0.888-4.535-0.024-7.504-0.485-1.591-4.026-3.117-6.126-2.64-4.956 1.126-5.33 1.369-4.883 3.161 0.971 3.892 0.662 5.523-1.461 7.902-1.735 1.932-2.543 2.403-4.842 2.831-6.106 1.127-16.325 1.608-19.49 1.094-1.249-0.214-5.162-0.273-8.707-0.126-5.275 0.228-7.168 0.539-10.331 1.872-6.609 2.881-10.044 7.616-10.788 14.957-0.672 6.619 3.752 15.433 9.081 18.526z"/>
	<path d="m628.81 59.794c-1.709 0.518-3.486 1.056-5.319 1.611-2.878 0.868-5.896 1.808-8.808 2.737-1.454 0.47-2.883 0.931-4.258 1.375-1.368 0.463-2.669 0.946-3.888 1.385-4.871 1.772-8.341 3.134-8.464 3.378-0.463 0.909 0.054 1.19 3.54 0.378 1.743-0.406 4.229-1.085 7.707-2.095 3.493-0.959 7.994-2.196 13.75-3.777 6.634-1.904 12.702-3.273 18.078-4.542 2.694-0.609 5.219-1.18 7.576-1.713 2.375-0.444 4.58-0.856 6.614-1.236 8.146-1.45 13.587-2.149 16.308-1.91 7.196 0.496 7.394 0.564 9.568 3.135 1.822 2.162 2.187 3.065 2.861 6.998 0.464 2.703 1.052 4.638 1.464 4.821 0.755 0.332 2.588 0.018 4.533-0.624 1.951-0.608 4.022-1.509 5.226-2.454 1.327-1.037 2.38-2.115 2.333-2.395s0.495-0.922 1.206-1.428c1.179-0.839 1.24-1.252 0.672-4.705-0.342-2.082-0.432-3.959-0.2-4.172s1.751-0.175 3.372 0.086c1.85 0.295 5.375 0.079 9.505-0.403 5.934-0.747 7.086-1.088 12.016-3.547 1.939-0.984 3.671-1.784 5.25-2.462 1.577-0.688 2.998-1.272 4.322-1.777 2.647-1.01 4.905-1.702 7.254-2.26 2.255-0.536 4.415-1.23 4.797-1.543 0.063-0.058 0.635-0.149 1.641-0.285 0 0 4.931-0.438 12.328-1.095 1.849-0.164 3.853-0.342 5.972-0.53 2.123-0.136 4.362-0.279 6.678-0.427 4.633-0.283 9.572-0.631 14.515-0.895 9.895-0.353 19.787-0.843 27.215-0.832 7.426-0.094 12.376-0.157 12.376-0.157v-0.353c0.018 0.045 0.027 0.091 0.048 0.137 4.078-0.071 8.179 0.133 12.264 0.128 7.386-0.01 17.219 0.471 27.055 0.824 4.916 0.251 9.827 0.606 14.433 0.884 2.303 0.146 4.529 0.287 6.64 0.421 2.107 0.185 4.099 0.36 5.938 0.522 7.355 0.653 12.258 1.088 12.258 1.088 4.808 0.947 9.368 2.675 13.091 4.728 0.691 0.386 1.713 0.753 2.271 0.817s1.997 0.769 3.194 1.567c2.064 1.343 4.653 2.364 12.867 4.887 3.153 0.987 5.987 1.119 10.364 0.722 0.511-0.043 1.079 1.243 1.528 3.473 0.965 4.813 1.923 6.977 4.189 9.435 1.665 1.807 2.423 2.168 5.72 2.713 4.694 0.758 5.65 0.015 5.31-4.438-0.172-2.205-3e-3 -3.125 0.856-4.583 1.525-2.595 4.836-5.001 7.357-5.352 1.186-0.166 2.452-0.448 2.81-0.627 1.951-0.96 5.698-0.99 12.089 0.132 3.922 0.739 9.344 1.623 12.051 1.966 2.724 0.255 14.218 2.793 25.559 5.553 5.64 1.496 11.116 2.896 15.396 3.947 2.145 0.508 3.975 0.989 5.376 1.35 1.403 0.354 2.381 0.578 2.806 0.637 4.571 0.64 3.946-0.759-1.067-2.349-1.246-0.396-2.684-0.853-4.25-1.351-1.575-0.469-3.279-0.977-5.051-1.504-3.54-1.07-7.348-2.22-10.923-3.3-1.783-0.561-3.521-1.051-5.141-1.497-1.617-0.457-3.113-0.879-4.424-1.249-2.621-0.746-4.501-1.296-5.135-1.508-1.634-0.548-3.57-1.167-5.667-1.814-2.1-0.635-4.379-1.225-6.671-1.841-4.587-1.214-9.259-2.379-12.881-3.195-4.307-0.877-7.993-1.806-8.182-2.103-0.189-0.293-0.916-0.642-1.616-0.776-1.988-0.381-4.715-2.498-6.043-4.682-1.477-2.436-1.468-7.194 0.055-9.605 0.864-1.366 0.904-1.822 0.245-2.919-1.13-1.922-5.684-3.115-9.064-2.51-3.041 0.556-6.429 2.638-6.691 4.099-0.094 0.517-0.642 1.402-1.217 1.968s-1.17 1.822-1.324 2.792c-0.311 1.948-0.516 1.893-5.61-0.416-3.466-1.513-11.365-2.499-14.053-1.753-1.273 0.353-2.808 0.572-3.414 0.488-0.605-0.094-2.282 0.209-3.725 0.697-3.793 1.252-4.199 1.316-12.752 2.099-2.837 0.279-5.156 0.36-7.752 0.446 0 0-4.933-0.438-12.334-1.095-1.85-0.162-3.855-0.339-5.975-0.525-2.124-0.135-4.364-0.277-6.681-0.424-14.586-0.925-29.252-1.351-43.846-1.735-16.607-0.437-33.493 0.976-50.077 1.863-4.969 0.266-9.933 0.616-14.59 0.9-2.328 0.149-4.578 0.293-6.712 0.429-2.13 0.189-4.144 0.368-6.003 0.533-7.435 0.66-12.392 1.101-12.392 1.101-7.39-0.06-18.674-1.067-21.289-2.286-1.135-0.534-3.613-0.943-5.514-0.984-1.899-0.033-5.07-0.124-7.046-0.202-2.558-0.1-5.174 0.065-7.381 0.42-2.207 0.353-3.992 0.987-4.918 1.661-0.87 0.647-2.207 1.356-2.972 1.575-1.344 0.385-1.416 0.262-2.162-3.65-1.228-6.467-4.131-8.576-11.361-8.223-1.799 0.066-3.867 0.621-4.707 1.144-1.454 0.92-1.473 1.09-0.655 5.516 0.828 4.472 0.804 4.623-0.914 7.296-1.416 2.206-3.188 3.873-6.02 5.373-1.416 0.75-3.096 1.457-5.127 2.169-2.027 0.736-4.393 1.532-7.202 2.363-4.266 1.272-8.359 2.595-9.104 2.943-0.33 0.154-1.278 0.456-2.747 0.879-1.466 0.439-3.443 1.031-5.836 1.748-2.4 0.688-5.217 1.496-8.354 2.395-1.569 0.438-3.219 0.9-4.938 1.381zm324.45-15.772c2.681-3.398 8.322-2.546 9.157 1.381 0.724 3.395 0.195 4.991-2.073 6.409-2.856 1.786-5.476 1.257-6.973-1.407-1.672-2.972-1.709-4.361-0.111-6.383zm-268.7 0.604c2.125-2.332 4.802-2.393 7.579-0.338 2.241 1.671 2.348 1.887 2.069 3.96-0.163 1.206-0.822 2.906-1.464 3.778-1.663 2.279-4.66 2.605-6.847 0.912-3.129-2.459-3.687-5.743-1.337-8.312z"/>
	<path d="m1016.1 53.186c1.552 0.63 3.409 1.125 5.501 1.482 2.093 0.353 4.42 0.567 6.887 0.729 4.945 0.28 10.538 0.018 16.202-0.809 2.165-0.336 4.306-0.289 4.79-0.039 0.78 0.43 0.675 0.684-0.966 2.403-1.548 1.624-1.801 2.212-1.648 3.769 0.403 4.039 4.431 4.727 10.221 1.765 4.371-2.238 8.694-1.394 11.377 1.282 2.7 2.639 3.793 6.952 1.903 11.559-1.858 4.529-5.855 6.694-11.066 6.009-2.667-0.321-5.414-2.532-7.782-6.344-3.88-6.19-11.03-3.96-8.649 2.716 1.155 3.287 0.811 3.923-1.443 2.73-1.023-0.543-2.535-1.583-3.373-2.268-1.584-1.335-9.016-6.8-13.75-10.089-1.949-1.391-4.395-2.282-8.194-3.221-6.965-1.695-10.493-0.984-13.684 2.784-2.616 3.129-2.931 5.587-1.219 8.773 1.063 1.998 1.63 2.441 3.821 2.976 1.416 0.346 2.89 0.352 3.276 0.014 0.385-0.338 1.067-1.939 1.514-3.558 0.973-3.529 2.812-5.353 5.565-5.507 1.102-0.055 3.791 0.703 6.498 1.772 2.698 1.107 5.425 2.47 6.661 3.466 2.342 1.887 4.63 3.431 9.524 6.438 7.224 4.66 9.325 5.716 13.781 6.806 1.778 0.437 3.01 0.652 4.294 0.661 1.278 0.033 2.612-0.151 4.61-0.533 7.884-1.512 13.017-6.597 14.907-15.021 0.813-3.577 0.023-12.692-1.124-13.064-0.327-0.106-1.207-1.104-1.96-2.219-1.695-2.469-3.954-3.846-11.287-6.07-5.706-1.767-10.987-2.412-14.079-1.716-1.509 0.365-9.147 0.722-12.165 0.57-0.67-0.034-2.606-7e-3 -4.299 0.061-4.132 0.128-7.882-0.814-9.977-2.729-2.214-2.019-3.078-5.484-1.973-8.02 0.485-1.111 0.628-2.306 0.345-2.902-1.098-2.307-7.206-2.07-9.307 0.374-0.626 0.723-1.468 2.755-1.872 4.51-0.649 2.812-0.572 3.387 0.629 4.967 2.194 2.88 3.577 3.894 7.511 5.493z"/>
	<path d="m1058.4 77.489c0.913 0.247 3.959-0.516 5.406-1.407 1.901-1.17 2.905-5.734 1.717-7.956-1.525-2.929-7.527-3.659-8.282-1.145-0.193 0.636-0.811 1.575-1.371 2.088-1.472 1.346-1.217 4.094 0.563 6.382 0.809 1.04 1.693 1.956 1.967 2.038z"/>
	<path d="m1085 96.626c2.151 0.762 2.681 0.438 2.237-1.38-0.466-1.912 0.542-4.741 2.14-5.943 1.38-1.028 4.255-1.299 8.647-0.641 4.374 0.704 10.294 2.26 17.802 4.721 7.619 2.687 8.331 3.035 7.977 3.9-0.213 0.522-0.73 0.927-1.149 0.899-3.031-0.201-5.883-0.242-8.505-0.131-2.634 0.142-5.052 0.469-7.178 0.907-4.257 0.887-7.384 2.306-9.002 4.157-2.434 2.787-2.94 7.66-1.002 9.279 0.823 0.688 5.237 0.513 5.523-0.217 0.082-0.213 0.963-0.915 1.961-1.559 0.997-0.644 2.686-2.23 3.754-3.524 2.778-3.381 5.95-5.193 9.646-5.575 4.917-0.504 5.445 0.113 3.668 4.364-2.364 5.659-5.275 7.852-8.611 6.488l-1.846-0.755-0.879 2.939c-0.918 3.068-0.337 5.629 1.902 8.485h1e-3c2.91 3.745 9.507 3.606 13.522-0.081 2.695-2.489 2.692-3.882-0.068-5.167-3.07-1.359-3.193-3.046-0.904-11.34 0.634-2.301 0.961-2.807 1.82-2.804 1.399 0.013 3.112 1.972 4.454 4.756 1.338 2.796 2.33 6.345 2.396 9.412 0.124 5.832 0.29 6.709 1.668 8.237 1.231 1.367 1.647 1.544 3.259 1.388 1.017-0.098 2.179-0.521 2.579-0.939 1.392-1.456 2.314-4.304 2.094-6.528-0.559-5.613-3.607-10.134-11.28-16.566-3.942-3.165-4.582-4.159-3.154-4.959 0.796-0.443 1.924-0.126 5.469 1.63 2.431 1.262 7.749 3.899 11.816 5.86 1.972 0.952 3.639 1.791 5.049 2.567 1.396 0.807 2.542 1.538 3.49 2.23 1.896 1.385 3.003 2.619 3.746 4.013 1.033 1.936 0.436 5.277-1.147 6.542-1.448 1.158-1.444 3.379-4e-3 4.448 1.569 1.17 6.872 1.524 9.316 0.736 2.499-0.843 5.139-2.985 7.704-6.251 1.813-2.309 2.224-3.223 2.813-6.351 1.134-5.978-1.478-12.828-5.771-14.752-2.611-1.204-3.918-0.883-3.733 0.913 0.504 5-4.768 6.426-13.551 3.749-2.807-0.822-6.425-1.743-8.012-2.121-1.764-0.411-5.528-1.72-8.953-3.031-3.414-1.338-6.568-2.499-6.984-2.937-1.681-1.631 0.901-2.444 3.93-1.229 0.675 0.275 1.754 0.426 2.385 0.369 0.632-0.06 3.328-0.18 6.004-0.262 3.219-0.098 6.078-0.676 8.451-1.711 4.322-1.88 4.553-2.042 6.294-4.703 1.109-1.692 1.282-2.484 0.884-4.113-0.405-1.65-0.941-2.214-2.933-3.085-1.653-0.723-2.918-0.873-3.933-0.464-1.331 0.531-6.225 5.18-6.739 6.392-0.109 0.254-1.681 1.186-3.483 2.076-5.814 2.868-10.049 2.902-8.917-0.175 2.889-7.821 4.676-9.911 8.479-9.845 3.127 0.049 3.849-0.854 3.956-5.134 0.078-3.425-2.049-5.945-6.414-7.611-1.9-0.726-4.042-1.133-4.974-0.945-1.683 0.334-6.192 5.238-5.983 6.482 0.059 0.359 0.885 1.158 1.833 1.775 1.963 1.277 2.949 3.506 2.431 5.493-1.941 7.456-2.643 9.738-3.039 10.055-1.257 1.014-7.174-6.167-6.512-7.885 0.147-0.37 0.033-1.123-0.254-1.674-0.286-0.552-0.486-3.08-0.445-5.647 0.085-5.679-0.08-6.115-2.751-7.666-1.779-1.032-2.467-1.106-4.234-0.447-1.96 0.731-2.152 0.998-2.795 3.794-0.568 2.463-0.422 3.648 0.778 6.547 0.651 1.574 1.323 2.806 2.654 4.513 1.319 1.732 3.345 3.829 6.544 7.423 0.482 0.533 1.896 1.61 3.141 2.392 1.855 1.165 2.199 1.675 1.905 2.817l-0.36 1.395-7.863-3.624c-11.245-4.912-15.999-7.145-19.355-9.198-2.568-1.507-3.054-2.102-3.746-4.577-0.522-1.865-0.55-3.24-0.069-3.986 2.627-4.069 2.632-4.03 0.079-4.93-3.309-1.161-9.524 0.34-12.964 3.194-3.487 2.908-5.216 7.792-4.71 12.986 0.624 6.521 3.147 10.428 8.005 12.14z"/>
	<path d="m1191.1 131.06c2.582-0.023 3.792-0.88 5.312-3.789 2.912-5.531-4.534-10.402-8.839-5.796-2.07 2.214-2.364 4.64-0.906 7.211 1.37 2.416 1.342 2.402 4.433 2.374z"/>
	<path d="m1176.9 132.52c1.416 5.158 2.835 7.104 7.594 10.058 2.331 1.445 4.306 2.436 6.588 3.194 1.141 0.379 2.359 0.7 3.737 0.991 1.366 0.314 2.885 0.611 4.649 0.906 5.366 0.9 9.51 1.771 12.814 2.712 3.311 0.932 5.713 2.059 7.729 3.287 2.429 1.509 2.92 2.111 3.463 4.258 0.546 2.166 0.416 2.849-0.957 5.145-0.871 1.457-1.49 3.088-1.375 3.624 0.287 1.397 3.027 2.795 5.568 3.027 2.424 0.199 4.073-0.752 6.5-3.75 2.076-2.564 2.155-4.855 0.25-8.701-1.239-2.483-1.903-3.045-5.46-5.056-2.787-1.566-6.786-3.145-11.115-4.463-4.363-1.258-9.089-2.193-13.254-2.647-3.851-0.406-7.366-0.979-7.874-1.223-0.839-0.442-0.76-0.568 1.129-1.73 1.123-0.694 2.301-1.73 2.633-2.34 0.609-1.112-0.362-4.495-1.439-5.062-0.308-0.163-2.406-0.131-4.649 0.076-4.958 0.459-8.435-0.721-10.473-3.567-0.749-1.064-1.285-2.095-1.152-2.354 0.129-0.253-0.014-1.197-0.321-2.098-0.601-1.773 0.849-6.33 2.748-8.569 1.331-1.567 3.709-2.48 6.162-2.623 2.437-0.116 4.957 0.516 6.586 1.929 1.823 1.582 2.917 3.176 4.541 6.648 1.039 2.224 1.421 2.576 3.06 2.804 2.536 0.362 4.23-0.982 4.874-3.959 0.272-1.267 0.63-2.347 0.796-2.398 0.419-0.13 2.601 2.178 6.622 7.039 2.67 3.247 5.05 5.747 7.414 7.931 2.353 2.201 4.738 3.999 7.485 5.699 3.359 2.085 6.053 3.36 8.324 3.942 2.254 0.61 4.112 0.481 5.836-0.316 2.347-1.085 3.823-2.56 5.279-5.306 0.783-1.47-0.623-5.083-2.431-6.251-4.29-2.724-4.758-2.764-5.7-1.195-2.067 3.438-3.442 4.38-6.642 4.588-2.611 0.17-3.517-0.066-5.424-1.424-5.019-3.685-12.72-10.331-14.553-13.005-0.729-1.037-3.412-3.922-6.026-6.318-3.911-3.529-5.493-4.604-8.669-5.902-3.336-1.352-6.426-1.848-9.43-1.353-3.01 0.505-5.891 1.919-8.76 4.263-5.172 4.228-8.275 13.573-6.677 19.489z"/>
	<path d="m1240.9 151.32c-1.086-0.615-2.266-1.284-3.529-2-1.277-0.693-2.638-1.432-4.073-2.211-2.86-1.57-6.012-3.3-9.369-5.142-1.318-0.722-2.66-1.479-4.034-2.192-1.381-0.7-2.769-1.403-4.133-2.094-2.733-1.372-5.383-2.678-7.715-3.804-4.646-2.286-8.098-3.71-8.359-3.624-0.974 0.322-0.805 0.882 2.252 2.739 1.519 0.947 3.732 2.269 6.885 4.053 1.579 0.887 3.387 1.901 5.45 3.059 2.061 1.162 4.412 2.408 6.974 3.941 23.958 13.736 37.348 23.747 40.979 27.733 4.807 5.337 4.837 5.616 4.564 8.961-0.247 2.829-0.629 3.727-2.933 6.985-1.583 2.239-2.535 4.026-2.376 4.45 0.589 1.549 6.034 4.361 9.096 4.701 1.685 0.186 3.203 0.152 3.362-0.071 0.164-0.231 0.998-0.297 1.854-0.146 1.42 0.251 1.754 1e-3 3.793-2.841 1.229-1.714 2.491-3.104 2.805-3.089 0.313 0.015 1.353 1.128 2.307 2.469 1.089 1.532 3.702 3.917 7.026 6.411 4.763 3.616 5.765 4.261 10.979 6.02 4.085 1.413 7.235 2.542 9.812 3.71 2.575 1.171 4.65 2.29 6.697 3.568 1.964 1.227 3.974 2.274 4.462 2.325 0.082 9e-3 0.561 0.336 1.379 0.938 0 0 0.964 0.776 2.651 2.135 1.654 1.398 4.018 3.395 6.854 5.791 1.418 1.199 2.953 2.497 4.578 3.871 1.624 1.374 3.348 2.81 5.069 4.367 3.472 3.081 7.175 6.366 10.878 9.652 3.681 3.31 7.263 6.729 10.673 9.877 1.696 1.584 3.335 3.116 4.889 4.568 1.522 1.486 2.961 2.891 4.29 4.189 7.31 7.138 14.652 14.233 21.79 21.544 1.464 1.527 2.967 3.175 4.544 4.859 3.132 3.389 6.526 6.956 9.826 10.609 3.267 3.682 6.534 7.364 9.598 10.816 1.547 1.712 2.988 3.415 4.348 5.035 1.366 1.615 2.657 3.142 3.849 4.552 2.384 2.819 4.37 5.169 5.761 6.813 1.354 1.674 2.128 2.631 2.128 2.631 2.677 4.113 4.758 8.494 5.942 12.576 0.219 0.759 0.689 1.735 1.039 2.174 0.342 0.446 0.839 1.978 1.103 3.402 0.453 2.452 1.599 4.976 5.673 12.531 1.578 2.892 3.352 5.091 6.75 7.889 0.395 0.328-0.107 1.635-1.361 3.524-2.709 4.075-3.553 6.275-3.668 9.603-0.081 2.438 0.208 3.224 2.101 5.98 2.708 3.909 3.95 4.032 6.845 0.653 1.434-1.677 2.204-2.208 3.847-2.634 2.923-0.761 6.989-0.137 9.04 1.384 0.966 0.715 2.069 1.404 2.452 1.529 2.12 0.659 4.655 3.379 8.387 8.688 2.281 3.276 5.578 7.678 7.177 9.881 0.82 1.087 2.84 4.094 5.434 8.063 1.28 1.995 2.775 4.187 4.205 6.579 1.439 2.387 2.949 4.891 4.456 7.389 1.508 2.498 2.992 4.957 4.384 7.263 1.357 2.326 2.624 4.498 3.734 6.401 2.24 3.795 3.894 6.49 4.42 7.169 2.833 3.655 3.369 2.23 0.886-2.405-4.796-9.292-16.028-29.724-17.317-32.064-1.57-3.065-3.809-7.174-6.142-11.309-1.148-2.079-2.384-4.124-3.578-6.043-1.187-1.923-2.323-3.727-3.332-5.284-2.39-3.689-4.285-6.989-4.209-7.332 0.081-0.346-0.192-1.103-0.599-1.688-1.153-1.664-1.609-5.071-1.017-7.544 0.663-2.756 4.028-6.109 6.818-6.741 1.582-0.358 1.933-0.651 2.235-1.889 0.523-2.132-1.757-6.263-4.548-8.243-2.564-1.742-6.454-2.651-7.672-1.804-0.432 0.299-1.449 0.539-2.259 0.535s-2.122 0.465-2.917 1.042c-1.588 1.149-1.727 0.991-3.691-4.248-0.68-1.768-2.168-4.277-3.887-6.443-1.715-2.17-3.56-4.07-4.782-4.752-1.157-0.645-2.407-1.569-2.78-2.054-0.372-0.486-1.773-1.458-3.109-2.156-1.764-0.918-2.715-1.442-4.059-2.423-1.362-0.965-3.109-2.395-6.429-5.123-2.202-1.81-3.96-3.343-5.797-5.168 0 0-0.779-0.963-2.141-2.647-1.399-1.655-3.398-4.019-5.796-6.855-1.199-1.418-2.499-2.955-3.873-4.58-1.369-1.63-2.819-3.343-4.375-5.066-3.082-3.473-6.369-7.178-9.656-10.883-3.32-3.675-6.734-7.265-9.886-10.675-3.281-3.503-6.606-6.965-9.935-10.422-1.58-1.641-3.088-3.455-4.755-4.997-1.494-1.381-3.477-2.278-5.119-3.55-4.238-3.283-7.621-7.604-11.531-11.258-1.562-1.46-3.21-3-4.914-4.592-3.427-3.165-7.029-6.601-10.729-9.929-3.722-3.303-7.445-6.606-10.934-9.702-1.73-1.565-3.462-3.009-5.095-4.39s-3.177-2.686-4.602-3.891c-2.851-2.409-5.227-4.416-6.89-5.821-1.696-1.366-2.665-2.146-2.665-2.146-2.605-2.626-5.698-6.131-8.269-9.324-2.547-3.222-4.696-5.974-5.19-7.322-0.442-1.159-1.878-3.235-3.189-4.614-1.31-1.378-3.474-3.703-4.808-5.167-3.484-3.752-7.951-6.81-10.208-7.17-1.068-0.165-2.506-0.618-3.198-1.01-1.216-0.688-1.179-0.826 1.059-4.121 3.698-5.436 3.187-9.051-2.256-13.799-1.346-1.186-3.17-2.3-4.133-2.525-1.67-0.39-1.803-0.284-4.353 3.425-2.576 3.748-2.7 3.838-5.791 4.496-5.071 1.049-9.739-0.29-19.975-5.972-3.863-2.198-7.773-4.031-8.537-4.326-0.689-0.241-3.561-1.784-7.912-4.233zm224.07 216.12c0.906-3.272 1.86-4.278 4.429-4.584 2.158-0.258 4.092 0.752 5.217 2.248 1.132 1.491 1.377 3.517 0.284 5.2-1.906 2.923-3.405 3.675-5.987 3.056-3.228-0.796-4.764-2.982-3.943-5.92zm-186.02-194.11c3.134-0.121 5.121 1.656 5.644 5.056 0.422 2.742 0.343 2.973-1.323 4.247-0.971 0.742-2.647 1.49-3.724 1.663-2.795 0.447-5.203-1.359-5.525-4.143-0.46-3.973 1.466-6.689 4.928-6.823z"/>
	<path d="m1514.6 424.13c1.667 1.837 3.583 3.67 5.593 5.507 1.995 1.846 4.152 3.657 6.421 5.381 1.73 1.314 3.279 2.824 3.437 3.346 0.258 0.85 3e-3 0.956-2.385 1.019-2.255 0.061-2.851 0.299-3.836 1.504-1.277 1.564-1.311 3.178-0.248 4.642 0.53 0.733 1.342 1.426 2.398 2.065 1.041 0.648 2.338 1.236 3.875 1.742 4.634 1.527 7.041 5.208 7.124 8.957 0.095 3.75-2.174 7.57-6.777 9.499-4.486 1.876-8.905 0.614-12.164-3.524-1.666-2.11-1.99-5.646-0.945-10.03 0.866-3.573-0.483-6.19-2.319-7.146-1.855-0.95-4.268-0.196-5.768 2.981-1.483 3.129-2.177 3.336-2.958 0.915-0.354-1.099-0.714-2.89-0.798-3.981-0.081-1.042-0.443-3.848-0.911-7.113-0.45-3.274-1.155-6.922-1.676-9.748-0.446-2.332-1.475-4.734-3.469-8.102-1.797-3.101-3.566-5.077-5.4-6.288-1.851-1.2-3.844-1.587-6.316-1.376-4.035 0.345-6.023 1.877-7.057 5.337-0.645 2.155-0.551 2.866 0.644 4.779 0.772 1.237 1.825 2.274 2.34 2.306s2.131-0.621 3.593-1.45c3.193-1.814 5.775-1.799 7.8 0.058 1.628 1.489 5.257 9.864 5.627 12.995 0.35 2.975 0.81 5.723 2.102 11.335 0.951 4.182 1.618 6.821 2.354 8.906 0.696 2.106 1.457 3.658 2.624 5.629 1.864 3.153 2.81 4.119 6.221 6.379 1.68 1.119 3.41 1.948 5.132 2.512 1.713 0.569 3.456 0.855 5.223 0.855 3.532 0 7.158-1.142 10.806-3.459 3.107-1.958 9.024-8.983 8.487-10.062-0.146-0.312-0.087-1.627 0.159-2.944 0.544-2.944-0.213-5.444-3.715-12.261-0.682-1.328-1.396-2.588-2.124-3.757-0.738-1.164-1.521-2.22-2.282-3.174-1.53-1.904-3.042-3.361-4.397-4.199-1.324-0.809-6.866-6.019-8.919-8.245-0.456-0.493-1.865-1.831-3.128-2.969-3.09-2.785-4.998-6.148-5.105-8.996-0.107-3.012 1.74-6.078 4.309-7.087 1.131-0.444 2.075-1.187 2.292-1.806 0.839-2.398-3.706-6.512-6.934-6.26-0.96 0.073-2.992 0.914-4.516 1.868-2.448 1.531-2.804 1.994-3.054 3.949-0.46 3.571-0.181 5.256 1.511 9.143 1.269 3.111 3.777 6.705 7.129 10.368z"/>
	<path d="m1524.9 463.72c2.189 0.507 6.12-2.01 6.828-4.411 0.918-3.111-2.704-7.928-5.028-6.676-0.586 0.314-1.684 0.54-2.438 0.504-1.982-0.094-3.755 2.036-4.137 4.926-0.173 1.314-0.207 2.592-0.073 2.846 0.441 0.836 3.185 2.424 4.848 2.811z"/>
	<path d="m1528.3 478.97c-2.083 2.526-3.35 4.919-3.811 7.256-0.467 2.34-0.092 4.607 0.97 6.954 0.961 2.07 1.561 2.217 2.542 0.612 1.031-1.687 3.744-2.977 5.713-2.693 1.706 0.246 3.866 2.117 6.523 5.68 1.32 1.785 2.801 3.976 4.344 6.626 1.514 2.664 3.148 5.761 4.905 9.297 3.612 7.234 3.849 7.992 2.98 8.357-0.52 0.219-1.169 0.138-1.442-0.179-8.169-9.079-16.007-14.312-20.975-13.944-3.713 0.262-7.483 3.338-7.245 5.849 0.087 1.073 3.294 4.086 4.012 3.771 0.209-0.093 1.323 0.036 2.477 0.288s3.46 0.327 5.125 0.169c4.321-0.415 7.89 0.525 10.817 2.848 3.913 3.085 3.766 3.93-0.472 5.673-5.676 2.336-9.234 1.81-10.701-1.483l-0.8-1.827-2.695 1.458c-2.813 1.521-4.191 3.735-4.583 7.32v1e-3c-0.606 4.714 4.039 9.327 9.543 9.532 3.69 0.134 4.652-0.847 3.584-3.696-1.179-3.144-0.067-4.429 7.424-8.685 2.078-1.182 2.665-1.308 3.263-0.696 1.96 2.01-0.909 10.443-5.121 14.85-4 4.201-4.549 4.957-4.66 7.014-0.112 1.844 0.052 2.265 1.29 3.299 0.781 0.653 1.892 1.178 2.469 1.165 2.007-0.045 4.676-1.409 6.102-3.143 3.582-4.372 4.756-9.777 3.704-19.684-0.506-5.045-0.248-6.204 1.319-5.757 0.876 0.249 1.424 1.281 2.674 5.036 0.866 2.596 2.871 8.177 4.269 12.476 2.799 8.303 3.445 11.87 2.511 14.898-0.654 2.107-3.447 4.052-5.452 3.825-1.834-0.206-3.411 1.37-3.165 3.152 0.267 1.943 3.694 5.967 6.046 7.114 2.389 1.16 5.789 1.504 9.923 1.002 2.922-0.355 3.858-0.711 6.474-2.505 5.014-3.424 7.887-10.076 6.303-14.504-0.968-2.708-2.11-3.407-3.257-2.002-3.228 3.913-7.81 1.139-12.305-6.898-1.412-2.562-3.26-5.794-4.109-7.186-0.474-0.77-1.123-2.061-1.864-3.568-0.763-1.498-1.597-3.222-2.37-4.886-1.545-3.329-2.845-6.424-2.849-7.02-0.016-2.35 2.366-1.093 3.619 1.919 0.28 0.673 0.915 1.551 1.412 1.953 0.497 0.401 2.522 2.209 4.504 4.029 2.411 2.179 4.771 3.818 7.177 4.765 4.356 1.736 4.633 1.785 7.74 1.134 1.978-0.412 2.661-0.851 3.54-2.29 0.89-1.458 0.915-2.238 0.142-4.27-0.642-1.686-1.418-2.691-2.421-3.12-1.329-0.56-8.112-0.714-9.332-0.219-0.256 0.102-2.041-0.343-3.962-0.98-6.201-2.055-9.112-5.068-6.158-6.437 7.573-3.494 10.307-3.708 12.918-0.96 2.146 2.257 3.322 2.118 6.412-0.831 2.487-2.374 2.789-5.671 0.922-9.952-0.795-1.872-2.065-3.655-2.866-4.177-1.445-0.945-8.13-0.648-8.853 0.377-0.209 0.295-0.176 1.438 0.073 2.538 0.519 2.277-0.339 4.543-2.125 5.589-6.652 3.909-8.763 5.028-9.264 4.972-1.539-0.199-0.809-9.394 0.889-10.149 0.365-0.158 0.812-0.77 0.992-1.36 0.181-0.589 1.844-2.528 3.692-4.318 4.091-3.966 4.286-4.393 3.519-7.39-0.514-1.994-0.932-2.539-2.649-3.322-1.922-0.859-2.249-0.805-4.675 0.717-2.149 1.345-2.839 2.266-4.069 5.179-1.329 3.149-1.609 5.427-1.976 14.969-0.028 0.714 0.234 2.466 0.582 3.892 0.526 2.119 0.363 2.743-0.641 3.339l-1.242 0.734s-0.721-2.041-1.518-4.052c-0.779-2.018-1.558-4.037-1.558-4.037-2.224-5.719-3.712-9.846-4.868-12.971-1.164-3.122-1.861-5.303-2.338-7.209-0.724-2.894-0.641-3.662 0.632-5.909 0.959-1.694 1.916-2.689 2.781-2.875 4.724-1.017 4.699-0.987 3.554-3.44-1.463-3.188-7.07-6.445-11.509-6.862-4.499-0.419-9.173 1.815-12.506 5.858z"/>
	<path d="m1574.7 587.73c-0.708 2.668-0.718 2.637 1.524 4.791 1.846 1.808 3.28 2.064 6.418 1.079 6.031-1.874 4.091-10.547-2.237-10.322-3.04 0.106-4.952 1.612-5.705 4.452z"/>
	<path d="m1565.1 583.58c-2.707 4.671-3.034 7.036-1.679 12.464 1.245 5.344 2.702 8.406 6.953 14.197 3.273 4.396 5.456 7.978 7.112 10.984 1.634 3.013 2.634 5.481 3.201 7.772 0.698 2.772 0.603 3.549-0.554 5.456-1.164 1.922-1.742 2.314-4.337 2.968-1.646 0.414-3.24 1.131-3.543 1.593-0.779 1.19 0.074 4.139 1.76 6.086 1.6 1.848 3.449 2.339 7.291 1.933 3.285-0.347 4.948-1.908 6.278-5.964 0.86-2.627 0.833-3.505-0.223-7.452-0.782-3.099-2.6-7.015-4.771-10.996-2.206-3.972-4.737-8.015-7.426-11.262-2.475-2.998-4.623-5.868-4.784-6.407-0.27-0.909-0.125-0.942 2.02-0.425 1.272 0.307 2.856 0.401 3.519 0.205 1.199-0.351 2.931-3.439 2.584-4.605-0.099-0.334-1.586-1.8-3.299-3.245-3.743-3.207-5.508-6.455-4.952-9.904 0.196-1.274 0.578-2.392 0.848-2.48 0.271-0.088 0.842-0.859 1.269-1.715 0.841-1.684 5.095-3.886 8.014-4.126 4.093-0.346 9.198 4.209 9.56 8.503 0.222 2.392-0.203 4.315-1.524 7.924-0.858 2.314-0.841 2.835 0.14 4.159 1.522 2.054 3.714 2.287 6.253 0.643 1.084-0.703 2.097-1.213 2.252-1.132 0.381 0.205 0.365 3.361-0.2 9.635-0.888 8.385-0.61 13.893 0.903 20.175 1.718 7.719 3.818 11.28 7.407 12.588 2.443 0.889 4.536 0.888 7.504-0.024 1.591-0.485 3.117-4.026 2.64-6.126-1.127-4.956-1.369-5.33-3.161-4.883-3.892 0.97-5.523 0.662-7.902-1.461-1.932-1.735-2.403-2.543-2.83-4.842-1.127-6.106-1.608-16.326-1.094-19.49 0.214-1.249 0.273-5.162 0.126-8.707-0.228-5.275-0.539-7.168-1.872-10.331-2.881-6.609-7.616-10.044-14.957-10.788-6.619-0.673-15.432 3.751-18.526 9.08z"/>
</svg>