<?xml version="1.0" encoding="UTF-8"?>
<!DOCTYPE svg PUBLIC "-//W3C//DTD SVG 1.1//EN" "http://www.w3.org/Graphics/SVG/1.1/DTD/svg11.dtd">
<!-- Creator: CorelDRAW SE -->
<svg xmlns="http://www.w3.org/2000/svg" xml:space="preserve" width="335.982mm" height="335.982mm" version="1.1" style="shape-rendering:geometricPrecision; text-rendering:geometricPrecision; image-rendering:optimizeQuality; fill-rule:evenodd; clip-rule:evenodd"
viewBox="0 0 11685 11685"
 xmlns:xlink="http://www.w3.org/1999/xlink">
 <defs>
  <style type="text/css">
   <![CDATA[
    .fil0 {fill:#262626}
   ]]>
  </style>
 </defs>
 <g id="Vrstva_x0020_1">
  <metadata id="CorelCorpID_0Corel-Layer"/>
  <g id="_2041606208">
   <g>
    <path class="fil0" d="M3818 11685l-49 0c43,-39 91,-102 90,-191 -24,-6 -238,39 -280,51 -105,30 -160,55 -193,140l-28 0c13,-39 32,-77 68,-102 25,-17 124,-59 153,-64l166 -27c47,-3 129,-41 159,-27 -2,21 -41,149 -52,170 -10,19 -21,36 -34,50zm-328 0l-33 0c3,-2 6,-4 9,-7 30,-20 63,-37 93,-53 29,-15 180,-72 199,-70 4,45 -155,53 -268,130zm-524 0l-70 0c23,-39 33,-82 32,-145 -1,-49 -14,-188 -34,-223 -20,11 -101,101 -128,126 -64,60 -96,152 -102,242l-29 0c2,-43 8,-81 19,-108 34,-84 61,-126 129,-189 146,-136 75,-86 108,-179l24 0c6,19 5,88 9,118 6,40 15,75 21,113 24,149 -15,180 -14,244 28,-11 57,-52 83,-76 28,-26 56,-50 83,-76 87,-83 131,-80 124,-163 -12,-166 -58,-256 -83,-381 -55,-11 -106,-3 -162,-5 -52,-3 -116,-17 -164,-33 -80,-27 -91,-31 -140,-99 -16,-22 -68,-113 -68,-133 18,-10 293,11 353,-1 -9,-67 -28,-65 19,-133 35,-50 67,-37 113,-65 1,-89 78,-164 150,-208 33,-20 75,-41 103,-62 49,-36 37,-86 75,-92 11,28 0,135 0,175 5,227 -68,196 -158,373 -40,77 -106,72 -150,121 36,75 103,327 120,423 8,48 4,104 28,145 84,-88 225,-170 303,-262 -24,-87 -142,-178 -167,-291 -22,-97 84,-167 143,-224 28,-27 32,-58 61,-69 18,13 11,26 12,51 2,35 9,30 15,58 27,134 86,192 54,345 42,-13 71,-66 96,-99 102,-131 111,-215 173,-357 -67,-41 -90,-52 -84,-130 5,-65 21,-98 80,-132 166,-94 225,91 237,104 76,-47 201,-31 286,-64 40,-16 52,-44 86,-35 -69,128 -168,227 -279,307 -92,67 -219,78 -330,65 -23,35 -49,106 -67,148 -28,61 -60,74 -86,121 47,7 80,-18 141,-13 40,3 99,-4 144,-4 52,0 97,4 146,1 60,-4 98,19 146,23 63,-39 58,-36 130,-42 49,56 66,42 82,120 11,55 18,86 -29,133 -32,33 -76,61 -124,58 -62,-5 -79,-55 -110,-91 -42,61 -107,103 -140,169 -13,27 -30,70 -38,99 -14,47 5,76 -32,92 -41,-61 -101,-193 -100,-261 1,-136 89,-205 165,-270 -70,-22 -299,-9 -369,15 -81,27 -95,77 -155,127 -52,43 -100,100 -152,138 -49,36 -106,87 -153,129 -116,104 -263,212 -376,332zm-126 0l-34 0c12,-55 6,-95 1,-156 -8,-101 56,-37 33,156zm-428 0l-85 0c11,-5 18,3 44,-4 86,-24 141,-154 23,-187 -97,-28 -226,96 -124,191l-47 0c-13,-18 -23,-41 -25,-60 -16,-155 251,-235 292,-70 15,62 -31,100 -78,130zm238 -940c2,0 259,-1 269,1 64,10 90,42 143,78 41,26 63,79 55,124 -56,-44 -106,-67 -172,-87 -32,-9 -50,-11 -84,-23 -23,-8 -55,-19 -73,-8 15,27 214,73 271,110 -46,25 -187,-8 -241,-25 -93,-29 -136,-81 -168,-170zm933 351c-43,-61 -125,-173 -151,-236 -38,-88 77,-214 152,-241 10,18 58,172 67,205 19,73 29,154 -24,223 -12,-50 -38,-184 -65,-236 -17,-33 -7,-16 -24,-17 -36,34 79,124 45,302zm-402 -543c89,27 106,165 -48,227 -48,20 -43,22 -86,-11 -40,-31 -51,-28 -65,-81 -9,-38 -6,-62 21,-95 39,-47 121,-57 178,-40zm1146 473c80,-182 249,-91 228,46 -9,60 -78,123 -139,99 -92,-35 -65,-104 -79,-131 -4,-6 -4,-1 -10,-14zm-225 367c-118,-125 -57,-347 67,-415 25,-14 41,-14 66,-30 24,-13 -4,-16 38,-9 14,2 24,7 36,12 -77,65 -185,116 -189,234 36,7 25,-5 39,-36 26,-57 92,-142 145,-146 5,106 -24,105 -93,188 -75,89 -64,113 -109,202zm-980 -873c11,-169 182,-202 267,-281 14,29 8,157 3,195 -11,80 -71,132 -117,193l-40 -71c16,-35 38,-68 59,-101 18,-29 54,-65 52,-95 -26,-5 -17,-7 -38,22l-94 141c-13,1 -74,-1 -92,-3zm1020 -77c-30,76 -79,112 -156,81 -73,-29 -115,-56 -88,-146 17,-58 88,-101 146,-89 35,6 65,20 84,51 26,43 24,45 -7,75l21 28zm33 -26c51,-19 278,-70 308,-61 -81,100 -136,161 -244,232 -62,41 -223,66 -292,38l33 -72c29,7 70,5 98,-6 71,-29 245,-57 242,-118 -27,-9 -44,20 -77,36 -35,17 -51,14 -83,25 -4,-20 5,-50 15,-74z"/>
    <path class="fil0" d="M3981 10390l22 43c72,-9 91,-63 19,-97 -21,15 -29,26 -41,54z"/>
    <path class="fil0" d="M3066 10631c-17,90 108,76 63,-6 -22,-7 -42,-8 -63,6z"/>
    <path class="fil0" d="M2293 11564c-1,25 1,25 16,46l52 -11c5,-42 10,-40 -22,-68 -22,14 -30,13 -46,33z"/>
    <path class="fil0" d="M4411 11044c26,22 16,20 48,20 32,-30 22,-68 -23,-71 -27,18 -23,21 -25,51z"/>
    <path class="fil0" d="M2704 11627c17,4 12,12 37,-13 19,-20 12,-16 -2,-28 -16,12 -31,23 -35,41z"/>
    <path class="fil0" d="M3521 10715c17,7 42,0 55,-14l-8 -12c-21,-2 -33,8 -47,26z"/>
    <path class="fil0" d="M2719 11668c28,-11 42,-15 44,-48 -23,9 -33,23 -44,48z"/>
    <path class="fil0" d="M2886 10798c13,-8 7,-13 -6,-24 -8,17 -10,23 6,24z"/>
    <path class="fil0" d="M2913 10799c-5,10 5,27 10,8 5,-20 -6,-15 -10,-8z"/>
    <path class="fil0" d="M4097 11281l2 -32c-14,21 -12,15 -2,32z"/>
   </g>
   <g>
    <path class="fil0" d="M174 22c-24,23 2,31 7,125 3,36 10,122 6,152 -49,-35 -97,-185 -82,-299l-28 0c-2,14 -4,30 -4,48 -2,55 17,108 30,160 19,76 47,87 70,141 -17,21 -78,53 -107,75 -23,18 -44,28 -66,33l0 40c168,41 413,123 479,148 141,54 224,428 222,454 -60,-12 -93,2 -149,20 -101,33 -128,150 -181,232 -28,43 -60,80 -88,122l23 18c75,-57 136,-76 227,-96 30,-6 56,-18 86,-26 12,25 5,52 22,77 81,122 168,50 223,23 31,52 83,76 146,88 24,4 158,1 178,-4 4,-33 -58,-99 -76,-142l-77 -150c-14,-26 -85,-107 -108,-125 -58,-43 -134,-34 -196,-26 -6,-59 -68,-260 -95,-325 -15,-38 -46,-66 -55,-96 184,61 371,199 538,295 54,31 120,70 170,106 52,36 121,65 178,101 67,41 119,39 170,107 44,59 128,273 129,345 -85,-51 -178,-114 -308,-72 -65,21 -171,119 -217,177 28,30 49,3 98,2 30,-1 76,1 106,5 73,11 133,59 204,80 -24,41 -66,73 -51,133 11,46 52,80 93,100 60,30 87,13 135,-15 69,-39 51,-50 89,-115 -28,-66 -24,-63 -81,-111 -11,-46 -1,-89 -24,-145 -18,-46 -28,-90 -44,-139 -14,-43 -40,-97 -49,-136 -14,-59 -49,-82 -56,-129 53,10 75,36 142,43 45,5 120,7 161,17 23,110 72,228 165,294 111,80 236,143 379,168 -2,-34 -33,-37 -60,-70 -58,-70 -82,-194 -151,-252 9,-15 166,-129 25,-257 -51,-46 -87,-50 -150,-35 -77,19 -80,44 -97,121 -155,-15 -237,3 -394,-53 -39,-14 -99,-24 -124,-60 156,-18 192,-92 311,-160 25,-14 18,-20 50,-32 24,-9 38,-6 45,-28 -20,-23 -50,-17 -84,-36 -73,-38 -173,-117 -258,-66 -100,60 -149,200 -225,250 -111,-45 -233,-153 -343,-205 31,-36 86,-50 129,-73 85,-46 304,-188 364,-245 61,26 76,90 163,104 195,30 189,108 403,34 38,-14 143,-37 166,-56 -18,-33 -61,-6 -111,-42 -29,-20 -61,-54 -90,-78 -65,-55 -161,-105 -245,-78 -41,-35 -39,-69 -98,-87 -79,-23 -71,-6 -132,23 -30,-52 -96,-320 -110,-334 -20,6 -91,83 -106,105 -50,69 -50,81 -51,165 0,50 7,116 21,165 15,55 39,100 46,156 -111,63 -183,135 -336,199 -77,32 -87,-11 -194,-68 -33,-17 -65,-36 -98,-54 -31,-18 -79,-33 -99,-56 62,-20 103,6 236,-63 35,-18 66,-37 101,-55 28,-13 94,-33 110,-45l-7 -23c-99,-2 -30,50 -205,-47 -80,-44 -129,-58 -220,-63 -95,-6 -312,77 -351,165l-303 -87 439 -305c50,40 114,108 185,64 97,-60 57,-183 -23,-238l-160 0c-17,14 -31,33 -39,51 -19,43 0,69 1,108 -8,22 -152,118 -175,121 28,-96 44,-186 17,-280l-25 0c14,72 29,171 -33,297 -25,-53 4,-242 -49,-275zm-174 1046l0 -26c30,20 61,36 93,47 -3,-70 -26,-85 -16,-180 11,-118 1,-202 -77,-286l0 -35c43,44 80,98 95,154 27,104 -4,205 17,309 5,25 24,62 22,84 -39,-7 -87,-33 -134,-67zm454 -959c43,-181 230,-91 235,19 4,122 -136,111 -185,37 -20,-30 -5,-36 -29,-49 -15,-7 7,11 -21,-7zm-63 451c78,-102 309,-178 462,-95 33,18 143,67 160,83 -27,29 -155,85 -201,101 -107,37 -162,21 -260,-29 29,-12 55,0 91,-8 194,-39 235,-120 141,-81 -64,27 -102,47 -174,50 -45,2 -173,-11 -219,-21zm332 605c17,23 28,53 29,81 -94,27 -86,67 -167,102 -27,11 -183,55 -208,56 13,-33 98,-182 120,-208 42,-50 143,-86 206,-68 -31,51 -172,164 -183,196 79,12 145,-139 203,-159zm-18 308c-117,-72 -14,-247 109,-172 45,27 60,97 29,142 -26,37 -99,54 -138,30zm48 -341c140,-14 183,29 257,138 25,35 134,224 136,249 -144,51 -265,-65 -273,-69 50,-147 -73,-180 -88,-194 -9,-9 -25,-60 -27,-74 170,47 247,283 298,261 -3,-19 -105,-145 -128,-167 -24,-24 -51,-50 -80,-72 -36,-28 -82,-33 -95,-72zm726 -995c2,2 82,246 84,255 10,65 -12,99 -29,161 -13,47 -56,85 -101,91 24,-67 30,-122 28,-191 0,-32 -4,-51 -4,-87 1,-24 1,-58 -15,-71 -21,22 -3,226 -19,291 -39,-36 -52,-180 -53,-236 -1,-98 35,-155 109,-213zm-41 995c44,-59 126,-172 177,-217 72,-63 227,7 277,70 -15,15 -146,108 -174,127 -64,41 -138,76 -219,47 43,-27 162,-93 203,-135 26,-27 14,-12 9,-28 -44,-23 -93,114 -273,136zm390 -551c3,93 -124,152 -230,26 -34,-40 -35,-35 -17,-85 17,-48 11,-58 57,-87 33,-21 57,-25 96,-10 57,22 92,97 94,156zm-91 1236c198,20 165,209 28,232 -60,10 -141,-36 -138,-101 5,-98 79,-94 100,-117 5,-5 -1,-4 10,-14zm-419 -98c83,-151 312,-163 416,-66 20,19 26,33 48,53 21,18 14,-9 21,33 2,14 1,25 0,38 -86,-53 -168,-140 -282,-106 6,36 13,22 47,26 63,6 164,42 184,92 -99,38 -108,10 -208,-30 -107,-44 -127,-26 -226,-40zm523 -1205c164,-42 249,110 350,167 -23,22 -146,56 -184,63 -79,15 -147,-26 -220,-51l55 -60c39,5 77,15 114,24 34,9 79,32 107,21 -3,-27 2,-19 -32,-30l-164 -45c-5,-12 -22,-70 -26,-89zm392 946c-81,-6 -131,-41 -126,-123 5,-78 18,-127 112,-130 60,-1 123,53 130,111 5,35 2,68 -23,97 -32,37 -35,36 -73,16l-20 29zm35 23c34,42 154,241 154,274 -120,-46 -195,-80 -297,-160 -58,-46 -132,-191 -127,-266l79 9c3,30 17,69 36,91 51,59 132,215 188,194 0,-29 -33,-35 -58,-62 -27,-28 -29,-45 -50,-71 18,-10 49,-11 75,-9z"/>
    <path class="fil0" d="M2233 1290l-34 34c31,66 88,68 98,-11 -20,-16 -33,-20 -64,-23z"/>
    <path class="fil0" d="M1718 497c-91,11 -38,126 26,58 -1,-24 -6,-44 -26,-58z"/>
    <path class="fil0" d="M590 54c-24,7 -23,9 -38,29l27 47c41,-9 41,-4 57,-43 -20,-16 -22,-24 -46,-33z"/>
    <path class="fil0" d="M1746 1903c-12,31 -13,21 -3,52 39,21 71,0 60,-44 -26,-20 -27,-15 -57,-8z"/>
    <path class="fil0" d="M821 1403c1,-30 1,-36 -20,-56 -38,11 -46,26 -44,67 33,16 35,5 64,-11z"/>
    <path class="fil0" d="M659 464c1,17 -8,16 24,31 25,12 18,6 26,-11 -17,-12 -32,-22 -50,-20z"/>
    <path class="fil0" d="M1780 955c-1,18 13,39 31,48l9 -12c-5,-21 -18,-29 -40,-36z"/>
    <path class="fil0" d="M625 491c19,23 27,35 59,27 -15,-19 -32,-24 -59,-27z"/>
    <path class="fil0" d="M1503 378c12,9 15,3 21,-14 -18,-2 -25,-2 -21,14z"/>
    <path class="fil0" d="M1511 404c-11,-2 -25,13 -4,12 19,-2 12,-11 4,-12z"/>
    <path class="fil0" d="M1423 1679l31 -8c-24,-7 -18,-7 -31,8z"/>
   </g>
   <g>
    <path class="fil0" d="M1986 11222c-250,242 -739,167 -1109,180 -39,2 -77,7 -116,5 -58,-4 -276,38 -330,55 -60,20 -164,66 -216,75 112,-104 269,-127 411,-169 34,-11 72,-18 107,-27 163,-42 296,-137 529,-159 92,-8 148,-1 239,13 83,13 105,31 252,51 94,13 147,-10 233,-24zm-1939 463l-26 0c5,-7 10,-14 15,-20 36,-47 69,-82 107,-126 178,-204 236,-241 476,-363 49,-25 86,-31 133,-51 178,-76 500,-199 642,-312 146,-117 302,-145 460,-393l-22 -33c-50,28 -56,100 -232,209 -226,140 -256,162 -508,257 -88,33 -173,74 -260,112 -375,165 -629,359 -832,674l0 -78c90,-184 123,-253 142,-450 12,-121 8,-185 -51,-288 -13,-23 -19,-65 -78,-43 -3,33 43,58 44,85 2,39 -44,53 -46,103 -2,43 38,173 11,392 -4,37 -10,71 -16,108 0,3 -3,16 -6,32l0 -205c8,-85 9,-168 0,-235l0 -146 1 0c20,-14 24,-27 30,-44l-31 -51 0 -61c41,-25 113,5 143,32 41,38 72,105 117,138 13,-91 -108,-256 -171,-318 -26,-26 -56,-47 -89,-66l0 -26c7,3 13,7 20,10 119,67 260,260 268,413 0,11 59,226 63,234 52,-41 84,-208 84,-276 -2,-128 -84,-334 -159,-442 -133,-193 -134,-221 -175,-436 -20,-104 -11,-158 25,-259 50,-138 117,-257 83,-405 -9,-42 -46,-78 -32,-108 29,10 38,53 55,79 18,26 43,55 63,80 42,53 73,104 113,157 154,205 201,279 198,534 -1,69 1,128 5,197 4,68 46,323 78,371 26,-88 72,-181 106,-266 36,-89 64,-166 104,-252 53,-112 208,-247 294,-433 -103,-43 -135,-169 -159,-268 -69,-293 173,-866 387,-952 77,58 129,17 152,14 16,26 1,26 24,43l60 -88c32,13 26,35 69,53 43,18 51,3 79,10 1,44 -11,54 32,89 48,39 49,30 100,42 49,107 91,52 154,85 -8,56 -27,105 -47,158 58,28 61,9 103,26 -4,73 -286,540 -351,611 -100,110 -211,190 -366,210 -148,19 -134,21 -182,109 -48,89 -209,196 -328,510 -43,113 -93,225 -126,340 -18,61 -47,117 -75,174 -26,52 -67,105 -91,157 41,-4 253,-116 313,-142 100,-42 204,-87 305,-126 145,-57 494,-255 564,-408 16,-36 4,-60 15,-99 10,-32 18,-64 28,-96 40,-139 247,-380 357,-458 77,-55 521,-330 589,-314 4,39 -17,67 14,105 45,-3 107,-64 161,-70 11,30 -7,48 21,73 27,25 54,24 83,37 2,28 -3,51 11,76 23,40 35,21 66,38 7,30 1,75 17,106 21,37 81,47 98,76 -24,60 -202,141 -213,186l43 23c-16,113 -16,81 57,152 -24,39 -220,98 -298,132 -187,83 -423,136 -627,151 -124,9 -181,48 -358,-44 -43,63 -126,161 -185,206l-418 270c-97,59 -544,235 -664,288 -113,50 -344,202 -406,305 30,-10 84,-53 119,-70 75,-36 285,-87 372,-109 168,-43 322,-127 499,-157 104,-18 253,-18 352,8 24,6 49,15 74,22 141,38 269,41 408,-16 115,-46 124,-116 208,-186l20 23c-10,45 -307,416 -476,479 -193,71 -78,51 -301,81 -137,18 -190,16 -327,-2 -219,-28 -454,-55 -675,-53 -74,1 -237,44 -304,77 -26,13 -45,29 -67,40 -44,23 -31,6 -56,42zm2048 -501c-58,107 -241,267 -355,312 -137,54 -289,85 -440,80 -128,-4 -284,-49 -489,-57 -79,-3 -160,-13 -239,-16 -169,-8 -159,16 -227,17 68,-47 337,-83 430,-91 290,-28 645,19 921,-40 59,-13 156,-49 204,-83 33,-22 64,-37 95,-62 30,-24 60,-57 100,-60zm-1855 -1789c63,59 96,291 109,380 9,65 5,136 14,203 28,198 39,221 73,396 13,66 37,131 46,198 9,70 20,127 26,199 3,44 -27,206 -45,219 -2,-16 2,-75 1,-102 -11,-252 -195,-461 -277,-633 -37,-79 -58,-199 -69,-287 -7,-59 -2,-53 5,-109 10,-72 55,-170 84,-239 42,-102 22,-133 33,-225zm-128 1406c28,17 122,131 145,161 39,49 55,128 67,190 21,103 -44,127 -106,185 -28,26 -140,155 -157,164 64,-141 61,-157 96,-286 18,-63 20,-249 -13,-334 -12,-30 -32,-50 -32,-80zm189 -1348c33,26 100,135 134,178 106,132 142,233 151,395 2,42 -2,72 -3,113 -3,280 79,487 79,531 -2,122 -165,428 -227,478 -3,-16 45,-105 52,-132 34,-144 58,-188 35,-337 -51,-320 -126,-440 -150,-812 -4,-73 -22,-238 -45,-309 -10,-32 -27,-72 -26,-105zm193 1663c183,-303 205,-424 337,-736 62,-148 58,-205 176,-346 83,-100 143,-201 211,-312l59 37c-38,70 -61,101 -109,164 -37,47 -83,96 -117,143 -80,115 -133,247 -182,377 -25,65 -60,132 -81,198 -51,161 -81,227 -178,366 -30,42 -8,52 -37,71 -24,16 -53,36 -79,38zm956 -2581l-81 145c27,-27 93,-112 100,-140l65 8c-25,48 -164,175 -152,224 23,0 28,-29 44,-52 26,-37 109,-142 141,-165 26,49 14,47 74,70l-74 131c-34,-23 -1,-28 -35,-42l-272 482c-51,107 -75,130 -105,250 -26,102 23,161 15,226 -48,-42 -38,-31 -40,-91 -1,-69 -19,-111 -5,-202 4,-31 23,-71 5,-98 -54,74 -12,261 -15,313 -108,-149 -72,-389 -21,-555 43,-143 130,-336 231,-448 36,-40 69,-75 125,-56zm653 1930c26,-15 246,-72 363,-124 46,-20 79,-20 123,-39 81,-34 163,-51 243,-89 35,-17 96,-37 115,-59 37,-40 65,-46 112,-73 27,45 1,69 58,117 -40,39 -184,78 -243,102 -41,16 -79,38 -119,54 -34,13 -86,27 -124,37 -90,26 -453,90 -528,74zm802 -431c24,-21 76,-57 106,-65 7,8 41,78 50,95l-98 54c-20,-21 -50,-57 -58,-84zm-17 -15l-13 -65 -48 -27c21,-20 76,-45 103,-55 20,21 -5,5 57,66 14,14 6,3 12,14 -30,20 -77,62 -111,67zm-426 -106c42,10 212,-131 270,-130 6,14 16,63 20,81 -37,32 -232,114 -156,101 28,-5 146,-66 168,-80l52 58c1,1 9,13 9,13l7 18c-15,3 -89,44 -112,54 -40,16 -76,39 -114,48 16,28 59,-6 119,-35 28,-14 106,-53 133,-55 6,68 62,92 79,145 -159,98 -335,136 -505,199 -85,32 -168,59 -254,87 -99,31 -197,55 -293,-2 37,-26 164,-6 214,-70 -37,-5 -65,27 -114,32 -103,10 -68,31 -128,-4 41,-77 154,-152 170,-197 -62,48 -175,159 -179,161 -55,-129 256,-346 352,-398 84,-47 376,-271 433,-280 10,19 13,35 28,55 16,23 32,31 44,53 -38,44 -219,113 -243,146zm-518 136c78,-147 247,-307 389,-391 80,-47 380,-244 440,-229l6 36c-38,36 -160,64 -218,115 22,5 142,-62 217,-85l62 96c-18,15 -39,36 -59,36 15,29 53,-10 77,-24 19,34 3,36 18,60 17,27 26,13 43,41 -20,24 -50,37 -76,57 -24,20 -53,47 -83,51l7 -53c-43,-17 -49,-4 -81,-48 -32,-44 -16,-36 -19,-79 -30,-13 -28,-7 -55,8 -75,40 -123,80 -199,127l-142 99c-65,46 -129,78 -196,122 -67,44 -119,112 -181,161 -5,-30 19,-39 42,-63 86,-89 173,-182 279,-245 24,-14 104,-61 113,-78 -32,-3 -164,94 -198,121 -75,58 -151,155 -186,165zm886 -511c4,-34 101,-73 121,-76 30,55 13,60 86,91 -18,22 -71,45 -79,66 31,3 56,-41 102,-41 1,35 23,61 38,90 -26,25 -66,28 -65,55 44,0 59,-41 101,-40l16 77c-52,50 -45,11 -42,44l51 -21c21,17 68,47 76,64 -23,25 -158,133 -197,134l14 -50c-28,-30 -13,20 -93,-48l2 -46c-14,-1 -129,55 -149,66l-42 -49c30,-48 166,-119 184,-154 -12,-24 -44,-28 -63,-52 -20,-40 9,-57 6,-88 -29,-10 -40,12 -67,-22zm-1328 -516c48,-22 97,-151 125,-199 73,61 -18,45 164,89 -35,74 -188,293 -187,310 22,0 92,-113 106,-136 36,-57 69,-109 103,-168 52,46 77,70 150,85 -49,109 -226,384 -299,488 -40,57 -113,142 -171,178 -47,28 -168,77 -221,60 27,-27 49,-27 74,-43 27,-18 35,-52 67,-69l-11 -19c-49,43 -56,85 -128,94l41 -84c-28,17 -49,61 -62,91 -46,-54 20,-175 -2,-207 -36,25 -30,150 -31,196 -44,-26 -56,-156 -51,-203 9,-85 47,-172 92,-247 48,-80 81,-169 131,-246 47,-73 95,-159 140,-235 36,23 32,29 82,51l-112 214zm528 -92c23,-2 64,8 90,16 -76,167 -187,354 -287,506 -35,53 -122,148 -169,182 -43,29 -158,88 -208,84 19,-21 83,-45 166,-138 72,-81 212,-318 281,-422l127 -228zm-184 -179c34,23 44,56 93,83 -13,26 -40,54 -24,77l49 -70c53,62 65,74 12,143 -125,-26 -133,-83 -163,-107 -51,16 -45,14 -100,-9l133 -117zm75 -61c14,12 49,48 55,59 -12,21 -25,28 -21,47 22,-21 23,-23 34,-50l76 17c-16,41 -17,68 -42,116 -28,-20 -27,-29 -35,-59 -34,-12 -35,4 -73,-27 -17,-14 -29,-31 -43,-48l49 -55zm-23 -2l-15 31c-1,1 -4,0 -4,0l-9 0c-1,0 -3,0 -4,0 -12,1 -164,128 -175,139 -42,-30 -29,-38 -52,-75 -29,-4 -26,8 -50,-12 5,-69 73,-100 73,-168 -30,3 -29,0 -59,-13l56 -89c15,11 30,25 46,33 35,17 33,1 52,25 -6,33 -26,74 -48,99 31,3 53,-63 67,-89 27,34 4,32 51,65 12,9 25,18 37,26l34 28z"/>
    <path class="fil0" d="M1175 11268c61,2 102,-25 174,-27 27,0 47,11 65,-1 -5,-8 16,-15 -56,-15 -29,0 -167,27 -183,43z"/>
    <path class="fil0" d="M1756 9153c25,-8 45,-46 61,-67 16,-21 51,-66 22,-83 -11,22 -82,141 -83,150z"/>
    <path class="fil0" d="M209 9889c12,-10 61,-97 60,-109 -25,8 -61,85 -60,109z"/>
    <path class="fil0" d="M239 10001c13,-26 45,-79 42,-104 -18,12 -49,80 -42,104z"/>
    <path class="fil0" d="M1205 11305l137 -22c-7,-13 1,-10 -26,-6 -33,5 -87,10 -111,28z"/>
    <path class="fil0" d="M517 10110c21,-15 12,-19 15,-41 5,-35 21,-16 2,-43 -24,16 0,7 -9,37 -7,25 -20,14 -8,47z"/>
    <path class="fil0" d="M1407 9187c23,1 31,-32 37,-55 -24,14 -28,27 -37,55z"/>
    <path class="fil0" d="M229 9923c26,-18 49,-65 53,-99l-53 99z"/>
    <path class="fil0" d="M1299 8900c22,-2 30,-27 22,-47 -17,12 -22,26 -22,47z"/>
    <path class="fil0" d="M3012 10160c0,0 1,1 0,2 0,0 1,1 1,1 0,0 -17,3 -1,-3zm-11 21c25,-17 32,-7 34,-30 -16,4 -46,8 -34,30z"/>
    <path class="fil0" d="M2910 9798c24,2 44,-5 40,-32l-40 32z"/>
    <path class="fil0" d="M1529 9364c21,-14 26,-15 9,-35 -14,17 -18,15 -9,35z"/>
    <path class="fil0" d="M1561 9306c28,5 41,-6 15,-26l-15 26z"/>
    <path class="fil0" d="M1343 8823c18,-10 18,-5 10,-28 -19,6 -21,8 -10,28z"/>
    <path class="fil0" d="M957 10949l11 19 17 -22c-18,-4 -14,-9 -28,3z"/>
    <polygon class="fil0" points="1460,9094 1488,9083 1469,9062 "/>
    <path class="fil0" d="M891 10998c20,-6 21,-3 17,-24 -21,5 -19,3 -17,24z"/>
    <path class="fil0" d="M2479 10017c22,2 35,-2 34,-24l-34 24z"/>
    <path class="fil0" d="M1690 8834c17,-11 15,-9 6,-28 -15,10 -13,12 -6,28z"/>
    <path class="fil0" d="M1685 8732c5,-23 11,-11 -9,-29 -5,25 -10,14 9,29z"/>
    <path class="fil0" d="M2062 10154c19,-2 19,6 14,-21 -23,11 -14,-1 -14,21z"/>
    <path class="fil0" d="M2326 9980c18,4 32,-4 31,-22l-31 22z"/>
    <path class="fil0" d="M2989 9763c15,-11 12,-9 3,-23 -16,11 -19,5 -3,23z"/>
    <path class="fil0" d="M2493 9626c22,-5 15,-4 15,-20 -18,6 -19,0 -15,20z"/>
    <path class="fil0" d="M1660 8772c4,-23 10,-10 -9,-28 -5,23 -9,12 9,28z"/>
    <path class="fil0" d="M2141 10115c-1,-19 11,-5 -11,-18 -8,19 -10,18 11,18z"/>
    <path class="fil0" d="M2157 10327c-24,-10 -7,-8 -21,3 15,16 11,14 21,-3z"/>
    <path class="fil0" d="M1029 10943l2 -24c-21,9 -24,8 -2,24z"/>
    <path class="fil0" d="M2737 9677c22,-3 13,3 13,-19 -27,14 -14,4 -13,19z"/>
    <path class="fil0" d="M2398 9951c26,-13 12,0 9,-19 -17,10 -17,1 -9,19z"/>
    <path class="fil0" d="M1203 9786l10 19c11,-24 13,-23 -10,-19z"/>
    <path class="fil0" d="M1282 9409c-2,21 -8,5 7,17 15,-13 12,-16 -7,-17z"/>
    <polygon class="fil0" points="1316,9345 1337,9352 1330,9332 "/>
    <path class="fil0" d="M2386 10403c-6,10 -5,6 6,16 10,-23 13,-16 -6,-16z"/>
    <path class="fil0" d="M1447 9555l-13 -14c-6,23 -5,22 13,14z"/>
    <path class="fil0" d="M1462 9509c11,22 -1,12 16,8 -12,-25 -3,-11 -16,-8z"/>
    <path class="fil0" d="M2524 10117c20,10 14,9 22,-10l-22 10z"/>
    <path class="fil0" d="M2204 10302c-3,5 7,20 9,3 3,-14 -3,-18 -9,-3z"/>
    <path class="fil0" d="M2455 10399c4,-22 6,-5 -5,-19 -5,18 -12,7 5,19z"/>
    <path class="fil0" d="M2457 9645l22 -10c-14,-2 -16,-4 -22,10z"/>
    <path class="fil0" d="M2448 10157c15,4 12,2 19,-12l-19 12z"/>
    <path class="fil0" d="M1273 8963c-2,4 4,14 7,2 2,-10 -2,-12 -7,-2z"/>
   </g>
   <g>
    <path class="fil0" d="M11685 4760l0 143c-6,-67 -15,-143 -34,-175 -59,44 -77,13 -127,29 16,52 15,80 45,125 17,24 22,88 30,126 20,86 17,170 32,257 8,47 0,80 9,129 24,126 28,353 36,382 3,-7 6,-16 9,-27l0 110c-16,38 -43,80 -88,133 26,29 58,70 88,113l0 39c-28,-44 -63,-89 -110,-137l-37 14c15,54 83,78 147,267l0 54c-47,-129 -109,-253 -176,-304 -31,-25 -57,-19 -92,-38 -29,-17 -58,-33 -87,-49 -126,-72 -313,-329 -364,-454 -35,-88 -199,-583 -169,-646 39,5 62,33 106,11 7,-44 -38,-118 -31,-172 31,-5 45,17 76,-4 30,-21 35,-47 55,-72 27,4 49,14 77,6 44,-13 27,-29 52,-55 30,0 73,16 107,7 41,-10 64,-67 96,-76 53,36 91,228 132,250l33 -37c106,42 74,34 160,-21 10,10 18,37 25,72zm0 2396l0 31c-39,-29 -83,-57 -141,-91 -60,-36 -116,-86 -174,-125 -115,-78 -231,-160 -324,-264 -39,-44 -76,-100 -113,-147 -50,-62 -75,-91 -134,-144l-50 49c92,91 176,173 255,277 110,147 167,157 296,251 165,121 271,187 385,275l0 34c-54,-38 -105,-67 -142,-77 -43,-10 -263,22 -535,-46 -39,-10 -68,-21 -109,-29 -160,-29 -266,-17 -419,56 -50,23 -172,63 -205,88 33,10 75,2 109,0 74,-6 239,15 311,27 368,64 501,18 824,43 75,6 122,17 166,35l0 26c-32,-13 -63,-24 -79,-26 -72,-11 -130,-14 -200,-21 -67,-7 -136,1 -203,-1 -178,-8 -203,-2 -402,-21 -67,-6 -135,-27 -201,-33 -90,-8 -323,-30 -395,18 87,32 122,19 211,84 61,44 146,111 214,137 52,19 46,24 105,30 88,10 209,17 294,-1 181,-38 417,-162 656,-127l0 30c-128,-18 -324,12 -439,57 -218,85 -245,80 -464,70 -106,-5 -157,-26 -246,-84 -123,-81 -223,-173 -375,-175 -43,0 -87,27 -113,7 17,-27 61,-25 90,-36 30,-11 63,-29 92,-42 61,-30 119,-48 180,-74 235,-102 317,-131 565,-69 67,17 125,29 192,41 67,11 325,29 379,9 -79,-46 -159,-112 -234,-165 -78,-55 -146,-100 -221,-159 -97,-78 -192,-260 -354,-386 -65,91 -195,92 -297,92 -301,0 -802,-368 -837,-596 75,-61 46,-122 49,-145 29,-9 26,6 47,-13l-71 -79c20,-28 40,-17 67,-55 27,-37 15,-49 28,-74 43,9 50,23 94,-11 49,-38 40,-40 64,-88 115,-22 72,-76 119,-130 52,21 96,51 143,83 40,-51 23,-58 48,-94 70,20 460,403 514,482 84,123 136,250 120,405 -16,149 -11,135 64,202 75,67 142,249 420,437 99,68 197,143 301,202 27,14 51,32 75,50zm0 492l0 23c-91,-19 -262,54 -333,98 -117,73 -192,216 -235,343 -40,120 -61,232 -55,358 4,83 21,281 74,347 19,-62 -28,-142 -23,-208 26,-325 14,-227 117,-518 32,-92 28,-86 51,-77 0,3 -56,153 -62,168 -21,47 -49,121 -59,171 -15,70 -37,267 -14,331 40,-74 55,-138 66,-221 17,-135 98,-336 225,-420 32,-21 161,-86 195,-97 -1,-15 4,2 -5,-21 -8,-23 -21,-30 -35,-40l-97 32c-55,-43 4,-131 45,-159 41,-27 102,-42 145,-71l0 23c-52,26 -125,64 -142,80 30,8 53,-8 85,-12 17,-2 36,-3 57,-2l0 20c-38,-1 -77,6 -125,20 -26,7 -68,3 -60,66 32,10 67,-29 93,-23 39,7 42,55 89,68 1,1 2,1 3,1l0 31c-63,12 -162,64 -214,96 -89,54 -145,129 -183,225 -55,140 -43,117 -64,249 -16,108 -81,151 -58,248 19,80 -21,42 -4,111 7,27 37,96 35,115 -32,16 -40,-58 -50,-90 -38,-113 -89,-230 -100,-350 -22,-241 42,-564 210,-746 86,-93 280,-179 428,-169zm-2037 -1683l122 112c-20,-33 -87,-116 -113,-130l23 -61c41,36 132,200 183,200 5,-22 -22,-34 -40,-55 -31,-34 -113,-138 -129,-175 54,-15 50,-3 86,-57l110 103c-31,28 -27,-6 -49,24l406 377c92,73 109,103 219,159 94,49 163,15 223,38 -51,37 -39,30 -98,17 -67,-14 -112,-6 -197,-41 -29,-11 -64,-38 -94,-27 60,69 251,72 301,87 -170,70 -395,-21 -545,-108 -129,-75 -297,-204 -382,-328 -31,-45 -57,-85 -26,-135zm1795 -1069c-16,-29 -38,-88 -39,-119 9,-4 85,-21 104,-26l30 108c-25,14 -67,36 -95,37zm-19 13l-66 -3 -38 41c-14,-25 -25,-84 -30,-113 26,-15 4,6 79,-40 16,-11 3,-5 15,-8 13,33 43,89 40,123zm-201 389c19,-38 -79,-236 -64,-292 14,-3 64,-1 83,-1 22,44 57,253 62,176 2,-29 -31,-158 -39,-183l69 -37c1,0 15,-6 15,-6l19 -2c-1,15 22,97 26,121 7,43 21,83 20,122 31,-9 8,-59 -7,-123 -7,-31 -27,-116 -22,-142 67,10 104,-39 160,-43 58,177 54,356 77,537 11,89 18,176 25,267 8,103 8,204 -70,284 -16,-41 33,-161 -19,-224 -12,34 12,69 5,118 -14,103 15,74 -32,124 -66,-57 -113,-185 -153,-211 32,72 114,207 116,211 -139,24 -279,-329 -307,-434 -26,-93 -177,-429 -172,-487 21,-5 37,-4 60,-14 26,-11 37,-24 62,-30 34,47 59,239 86,269zm12 537c-125,-111 -241,-312 -290,-470 -28,-89 -150,-426 -122,-481l37 3c26,45 25,171 61,238 10,-20 -27,-152 -32,-231l108 -38c10,21 25,47 21,67 31,-8 3,-55 -5,-81 37,-11 36,5 62,-4 30,-10 18,-22 50,-32 19,24 24,57 38,87 14,28 33,62 30,93l-50 -20c-26,39 -15,47 -65,68 -50,21 -39,8 -81,0 -20,27 -13,26 -5,56 22,82 49,138 77,222l64 162c30,73 46,143 73,218 28,76 82,142 115,214 -31,-2 -33,-27 -52,-55 -67,-104 -137,-211 -174,-329 -8,-26 -34,-115 -49,-127 -10,30 53,181 72,220 39,87 116,183 117,220zm-293 -981c-32,-12 -47,-115 -46,-136 61,-15 63,2 109,-62 18,23 27,80 46,93 10,-30 -27,-65 -17,-109 35,7 65,-9 97,-16 18,30 12,71 39,75 10,-42 -27,-67 -16,-107l79 3c36,61 0,46 33,50l-8 -54c21,-17 61,-56 79,-60 19,29 93,185 85,223l-46 -26c-36,21 16,18 -68,81l-44 -13c-4,13 24,138 30,160l-58 29c-40,-40 -77,-189 -107,-214 -26,6 -37,36 -65,49 -44,10 -54,-22 -84,-26 -16,26 2,42 -38,60zm-809 1173c-9,-52 -123,-130 -164,-168 76,-56 40,28 125,-139 64,52 241,251 258,254 5,-21 -89,-115 -108,-135 -47,-48 -90,-92 -139,-139 56,-39 86,-58 117,-126 94,73 322,309 405,403 47,53 113,144 134,208 17,52 36,181 7,229 -20,-33 -14,-54 -24,-82 -12,-30 -43,-46 -52,-81l-21 6c31,58 70,74 62,147l-72 -60c9,31 48,62 74,82 -63,32 -166,-60 -202,-47 16,41 139,65 184,76 -36,37 -165,18 -210,3 -81,-29 -156,-86 -219,-147 -66,-65 -145,-118 -209,-184 -60,-63 -132,-129 -196,-190 31,-30 36,-25 68,-68l182 158zm34 -535c3,-23 22,-61 36,-84 145,112 301,264 426,396 43,46 116,153 137,207 19,48 50,174 34,221 -16,-23 -25,-91 -96,-193 -62,-89 -260,-280 -345,-371l-192 -176zm-217 137c30,-27 64,-29 102,-71 22,19 43,52 69,41l-57 -63c73,-37 87,-47 142,21 -54,116 -111,111 -141,134 4,53 3,47 -33,95l-82 -157zm-42 -86c14,-11 57,-37 69,-41 18,17 22,31 41,32 -15,-26 -16,-28 -41,-45l35 -70c36,26 62,33 103,68 -26,22 -35,20 -65,20 -20,31 -5,35 -44,65 -17,13 -36,21 -56,31l-42 -60zm-7 21l26 22c0,2 -1,4 -1,4l-2 9c0,1 -1,3 -1,4 -2,12 87,188 95,202 -39,34 -44,20 -85,34 -11,27 1,26 -23,45 -67,-21 -81,-94 -147,-109 -4,29 -7,27 -26,53l-74 -75c14,-11 31,-23 43,-36 25,-31 8,-32 37,-45 30,13 66,42 84,70 10,-30 -48,-67 -71,-86 40,-19 32,3 76,-35 11,-10 23,-20 34,-30l35 -27z"/>
    <path class="fil0" d="M10320 5810c-2,-26 -34,-54 -51,-75 -17,-20 -53,-65 -76,-41 18,17 118,113 127,116z"/>
    <path class="fil0" d="M10679 7485c-8,-13 -81,-82 -93,-83 2,26 69,78 93,83z"/>
    <path class="fil0" d="M10794 7482c-22,-18 -66,-62 -91,-65 7,21 66,66 91,65z"/>
    <path class="fil0" d="M10965 7237c-10,-25 -16,-16 -36,-24 -34,-14 -12,-25 -42,-13 10,28 6,2 34,18 23,13 9,22 44,19z"/>
    <path class="fil0" d="M10273 6157c6,-22 -25,-37 -45,-48 7,26 19,33 45,48z"/>
    <path class="fil0" d="M10716 7474c-11,-30 -52,-63 -84,-74l84 74z"/>
    <path class="fil0" d="M9968 6196c3,-22 -19,-35 -40,-32 8,20 20,28 40,32z"/>
    <path class="fil0" d="M11590 4821c0,-1 2,-1 2,0 0,0 1,0 1,0 0,0 -1,16 -3,0zm18 16c-11,-29 0,-34 -21,-41 -1,17 -3,47 21,41z"/>
    <path class="fil0" d="M11214 4837c7,-24 5,-45 -22,-47l22 47z"/>
    <path class="fil0" d="M10473 6079c-9,-23 -9,-28 -32,-16 13,17 10,20 32,16z"/>
    <path class="fil0" d="M10424 6035c11,-26 3,-41 -22,-21l22 21z"/>
    <path class="fil0" d="M9903 6136c-5,-20 0,-19 -24,-16 1,19 2,22 24,16z"/>
    <polygon class="fil0" points="10194,6084 10190,6055 10165,6068 "/>
    <path class="fil0" d="M11328 5306c6,-20 6,-34 -16,-38l16 38z"/>
    <path class="fil0" d="M9995 5801c-7,-19 -6,-17 -27,-12 7,16 9,15 27,12z"/>
    <path class="fil0" d="M9894 5781c-22,-10 -8,-12 -30,3 23,11 11,13 30,-3z"/>
    <path class="fil0" d="M11365 5743c2,-19 10,-17 -17,-17 5,24 -5,13 17,17z"/>
    <path class="fil0" d="M11256 5447c8,-16 4,-32 -14,-36l14 36z"/>
    <path class="fil0" d="M11198 4752c-7,-17 -5,-14 -21,-9 6,19 0,20 21,9z"/>
    <path class="fil0" d="M10951 5202c-1,-22 -1,-15 -16,-19 1,19 -5,19 16,19z"/>
    <path class="fil0" d="M9927 5815c-21,-8 -8,-12 -29,3 21,10 9,11 29,-3z"/>
    <path class="fil0" d="M11345 5658c-19,-4 -3,-12 -21,7 18,11 16,14 21,-7z"/>
    <path class="fil0" d="M11554 5691c-14,21 -8,5 -1,21 19,-11 16,-7 1,-21z"/>
    <path class="fil0" d="M11057 4977c2,-22 5,-12 -16,-17 7,29 1,15 16,17z"/>
    <path class="fil0" d="M11245 5370c-7,-28 2,-11 -17,-13 7,18 -3,16 17,13z"/>
    <path class="fil0" d="M10808 6495l21 -6c-21,-16 -19,-18 -21,6z"/>
    <path class="fil0" d="M10460 6330c19,7 2,10 18,-3 -10,-17 -13,-15 -18,3z"/>
    <polygon class="fil0" points="10405,6282 10417,6264 10396,6266 "/>
    <path class="fil0" d="M11681 5486c2,2 3,3 4,4l0 -17c-3,-2 -1,2 -4,13z"/>
    <path class="fil0" d="M10640 6204l-17 9c20,11 20,10 17,-9z"/>
    <path class="fil0" d="M10598 6179c24,-6 12,3 11,-14 -26,5 -11,0 -11,14z"/>
    <path class="fil0" d="M11435 5286c14,-18 12,-12 -4,-24l4 24z"/>
    <path class="fil0" d="M11541 5640c5,3 21,-2 6,-9 -14,-5 -19,-1 -6,9z"/>
    <path class="fil0" d="M11685 5413c-6,-3 1,-1 -11,6 11,5 9,9 11,7l0 -13z"/>
    <path class="fil0" d="M10961 5242l-5 -24c-5,13 -7,15 5,24z"/>
    <path class="fil0" d="M11456 5369c8,-14 5,-11 -6,-22l6 22z"/>
    <path class="fil0" d="M10023 6236c3,3 15,-1 4,-6 -9,-5 -12,-1 -4,6z"/>
   </g>
   <g>
    <path class="fil0" d="M11517 9805c-24,35 -30,173 -36,223 -8,76 -19,147 -33,222 -13,73 -39,145 -48,217 -10,74 -17,150 -29,224 -22,138 -9,321 0,463 6,108 114,291 168,405 15,33 37,93 55,126l-48 0c-7,-9 -15,-18 -19,-24 -189,-278 -469,-505 -669,-801 -123,-183 -238,-392 -329,-593 -37,-82 -271,-544 -334,-567 6,34 126,248 151,301 136,290 253,699 436,924 96,118 177,221 291,322 161,144 151,147 293,317 33,38 64,79 94,119l2 2 -28 0c-34,-49 -69,-86 -114,-132 -77,-81 -230,-132 -339,-148 -64,-9 -123,-23 -188,-29 -60,-7 -131,-6 -195,-11 -303,-24 -864,-49 -1137,-123 -117,-32 -240,-76 -354,-120 -52,-20 -321,-114 -341,-140 32,-9 93,15 130,20 249,32 709,-6 963,-12 386,-9 448,-3 803,59 77,13 224,66 249,67 -27,-39 -82,-103 -115,-141 -128,-150 -207,-319 -277,-501 -48,-125 -104,-253 -155,-377 -20,-46 -141,-334 -191,-354 16,74 -9,286 -13,373 -2,62 -3,126 -5,187 -2,55 -6,120 -17,174 -38,1 -43,-37 -71,-56 -50,20 -133,88 -198,-55 -26,1 -61,-8 -70,-7 -33,3 -15,0 -63,-18 -105,-39 -56,-42 -99,-123 -39,-8 -83,-14 -106,-51 -9,-38 137,-229 161,-256 33,-38 65,-82 97,-122 25,-30 98,-96 107,-125 -102,56 -190,109 -298,158 -28,12 -50,15 -77,27 -23,11 -48,27 -73,34 -81,21 -102,-31 -114,-38 -29,-15 -53,-1 -85,-25 -25,-53 22,-127 5,-182 -22,-16 -24,-9 -41,-19 -11,-6 -19,-16 -33,-25 -25,-15 -45,-24 -69,-46 -59,-54 -28,-93 5,-150 -19,-42 -133,-96 -59,-109l91 -13c41,-4 191,1 230,11 39,10 68,9 107,15 106,17 355,103 424,106 -26,-38 -61,-55 -97,-81 -67,-51 -121,-110 -185,-164 -433,-365 -340,-325 -154,-412l11 -48c26,-12 80,-4 113,-8 52,-6 80,-20 126,-47l-2 -96c37,-15 62,8 106,-11 17,-32 7,-53 39,-70 104,105 209,469 221,631 5,68 9,140 39,204 26,2 48,18 67,34 13,-18 59,-178 65,-207 7,-33 24,-63 33,-101 8,-34 15,-68 24,-103 18,-73 84,-359 144,-393 20,20 14,49 22,80 73,-22 101,-11 164,24 85,48 44,93 80,162 16,1 117,28 129,36 97,69 -31,171 106,242 62,31 72,36 102,103 0,0 4,11 -54,56 -31,24 -52,28 -89,37 -58,14 -140,37 -195,59 -100,41 -318,108 -402,142 49,31 122,20 181,38 54,17 111,29 167,43 91,23 316,40 340,86 -17,24 -72,53 -110,101 27,70 69,63 -11,150 -53,58 -2,110 27,174 -48,58 -55,12 -97,50 -34,47 18,143 -24,180 -71,-15 -204,-180 -253,-241 -38,-47 -84,-93 -118,-138 -32,-44 -85,-88 -123,-133 -2,30 102,181 140,259 137,285 262,546 441,814 72,108 247,315 340,411 58,60 125,124 176,190 27,35 140,196 166,206 -38,-109 -100,-204 -148,-305 -88,-187 -65,-339 -74,-535 -3,-80 18,-165 27,-245 17,-167 59,-317 86,-483 13,-81 16,-162 29,-244 15,-92 -10,-217 19,-245 25,22 10,96 18,132 11,48 31,103 48,149 51,135 59,162 116,275l0 46c-22,-43 -43,-86 -63,-129 -42,-91 -69,-186 -105,-278zm85 1880c9,-36 4,-99 9,-139 25,-181 76,-180 -31,-290 -30,-30 -99,-71 -106,-115 52,28 134,122 175,165 33,-54 -3,-234 -15,-298 -15,-80 -8,-85 -70,-144 -29,-27 -91,-77 -111,-104 62,21 108,89 147,107 13,-78 -52,-160 -4,-432 5,-31 -4,-51 26,-44 19,13 -12,123 -17,155 -13,97 15,270 39,366 15,61 16,138 37,193 1,-2 3,-3 4,-5l0 50c0,2 0,3 -1,5 -1,11 0,31 1,49l0 81c-8,85 -35,178 -32,206 6,-4 19,-16 32,-29l0 22c-9,9 -19,18 -27,27 -24,28 -30,120 -27,174l-29 0zm66 0c6,-4 12,-9 17,-14l0 14 -17 0zm-591 -403c-146,-209 -544,-227 -754,-268 -49,-10 -482,-4 -565,-2 -95,1 -188,6 -283,7 -95,2 -185,12 -283,9 -87,-3 -195,-5 -281,-3 42,36 485,187 561,204 337,75 858,96 1213,122 502,35 512,118 585,129 -99,-144 -171,-161 -316,-225 -71,-32 -112,-58 -176,-52 -37,4 -194,41 -206,39 32,-41 101,-34 147,-55 -21,-13 -193,-42 -224,-44 -55,-4 -31,6 -52,18 -7,4 -51,18 -65,23 -39,13 -85,74 -108,46 36,-4 37,-17 60,-38 26,-24 51,-29 83,-43 -40,-21 -154,-17 -195,-16 -100,4 -521,28 -573,-19 25,-27 79,-8 113,-1 44,8 67,9 114,10 62,2 191,5 245,-9 -41,-38 -127,-42 -119,-65 3,-6 102,31 120,39 73,30 60,25 139,25 87,0 204,5 289,17 65,9 222,34 277,52 40,13 242,99 254,100zm-114 -1638c-63,-33 -100,-27 -172,-40 -98,-19 -271,-68 -339,-76 -134,-16 -123,-34 -173,17l178 92c-32,1 -120,-60 -171,-61 -44,0 -6,-17 -63,-13l-13 44 128 88c-12,26 -87,-64 -136,-53 87,111 192,219 290,323 59,63 226,297 297,307 1,-27 -1,-60 -2,-89 -3,-94 -106,-128 -157,-201 31,9 57,33 81,55 117,109 53,71 123,43 35,-14 28,7 47,-14 4,-29 -41,-123 -67,-142 -29,-21 -79,-46 -104,-65 37,-5 89,35 121,59 27,-21 61,-67 78,-96 -10,-34 -29,-70 -57,-89 -32,-22 -40,9 -75,-32 29,-4 73,9 97,26 27,-17 76,-60 89,-83zm-876 94c-7,23 -15,60 -29,75 -14,-58 45,-116 18,-174 -17,18 -52,67 -69,90 -7,11 -49,99 -41,57 19,-98 116,-93 73,-198 -95,61 -206,189 -276,277 -57,72 -170,218 -208,296 33,37 62,23 102,43 23,-21 35,-38 55,-56 24,-20 44,-46 57,-18 -7,5 -87,63 -95,85 5,127 26,69 99,120 34,-17 -6,-2 23,-20 16,31 42,38 68,16 14,-13 19,-48 28,-67 10,-22 25,-43 35,-64 8,-17 16,-50 25,-62 19,76 -147,212 -12,285 28,15 58,8 85,-9 37,-24 33,-113 31,-153 -2,-35 -13,-52 14,-70 10,22 7,94 6,124 -3,62 -16,63 34,121 16,-17 12,-21 15,-48l24 -531c1,-44 17,-173 -27,-190 -28,7 -26,41 -35,71zm110 -150l-21 -39c-49,-3 -33,33 -46,50 -24,-15 1,-4 -18,-20l-47 -3c18,36 39,67 82,61 24,-22 7,-19 19,-31 8,-9 9,1 31,-18zm81 -86c-13,-47 -37,-81 -85,-43 -44,35 -1,61 22,88 40,-11 45,-4 63,-45zm-125 11c-30,-63 -28,-21 -70,-64l-49 45c17,36 39,47 72,59 29,-14 26,-18 47,-40zm-141 -24c-42,20 -37,41 -20,81l42 -19 -22 -62zm430 -883c-48,72 -97,284 -119,382 -27,116 -55,179 -86,285l-20 69c-4,16 -6,8 -3,27 60,-44 98,-156 124,-157 16,23 -106,149 -111,189 28,-27 61,-43 93,-67 24,-18 60,-59 84,-56 -2,25 -56,55 -78,71 -36,26 -57,33 -89,66 24,15 39,31 58,43l576 -200c61,-15 131,-25 164,-82 -19,-43 -35,-57 -76,-78 -57,-28 -46,-41 -75,-60 -29,-2 -75,34 -109,44 -42,12 -68,26 -75,69 -11,-66 73,-82 173,-138 -22,-62 35,-113 -34,-160 -3,-2 -136,-44 -146,-46l-138 132c-9,14 -16,40 -19,35 -38,-7 84,-125 98,-138 163,-147 -93,-271 -148,-177 -15,25 -21,56 -30,82 -15,45 -6,44 -9,85 -31,-23 10,-147 24,-182l-29 -38zm-326 721c-79,3 -45,135 29,122 76,-12 56,-124 -29,-122zm-59 110c-4,-31 -26,-34 -53,-50 -46,21 -53,28 -31,75 34,-3 63,0 84,-25zm-104 38c-21,-39 -59,-46 -99,-53 -45,-8 -65,-19 -106,-32 -179,-55 -501,-125 -675,-74 58,70 71,50 150,62 27,5 53,14 80,20 25,4 54,1 77,9 -23,37 -133,-13 -231,-15 -68,98 -63,129 42,188 56,31 46,42 112,17 42,-16 83,-28 125,-26 -6,10 -1,6 -15,12 -2,1 -14,4 -16,4l-109 36c-1,51 -25,146 -14,185 66,35 95,-22 208,-74 20,-9 47,-15 67,-12 -46,30 -151,70 -178,108 14,32 20,40 60,31l254 -109c101,-48 141,-77 225,-133 53,-35 58,-30 49,-50 -14,-30 -59,17 -103,1l97 -39 -3 -35 -132 -3c17,-25 81,-7 135,-18zm125 -160c20,-18 17,-21 11,-51l-19 -144c-19,-211 -100,-428 -197,-614 -50,51 -12,84 3,138 9,32 45,111 33,137l-89 -210c-31,2 -52,-2 -83,8 20,86 -10,33 40,162 8,22 55,151 55,160 -49,-50 -70,-156 -103,-222 -105,51 -96,29 -193,46 22,37 139,183 141,196 -41,1 -130,-162 -169,-183 -68,101 -42,16 -166,110 24,74 231,243 299,300 51,43 103,96 155,137 85,68 101,62 125,78 24,16 11,22 39,18 -15,-44 -59,-97 -88,-133 54,-16 62,135 179,125 1,-41 17,-18 0,-63 -9,-22 -27,-44 -28,-66 22,9 14,6 25,28l20 35c2,1 5,5 5,4 0,-1 3,3 5,4z"/>
    <path class="fil0" d="M9453 11124c-22,4 -76,-24 -88,-47 28,-5 67,24 88,47z"/>
    <path class="fil0" d="M9998 9032c-15,-14 -35,-86 -27,-104 21,15 31,81 27,104z"/>
    <path class="fil0" d="M9887 9018c-25,-3 -43,-64 -44,-76 21,2 15,4 28,32 7,17 15,28 16,44z"/>
    <path class="fil0" d="M10692 9829c-25,9 -12,1 -39,-12 -21,-9 -20,1 -39,-16 34,-11 54,4 78,28z"/>
    <path class="fil0" d="M9583 9434c-20,13 -75,10 -93,-8 27,-11 65,7 93,8z"/>
    <path class="fil0" d="M11528 10767l-63 -59c32,6 66,23 63,59z"/>
    <path class="fil0" d="M10153 11224c-19,1 -49,-8 -62,-25 17,-20 15,-9 32,2 17,11 23,7 30,23z"/>
    <path class="fil0" d="M10454 9774c-23,0 -53,-20 -71,-36 20,-5 20,-3 40,11 12,8 22,14 31,25z"/>
    <path class="fil0" d="M11554 11158l-60 -43c28,-2 60,12 60,43z"/>
    <path class="fil0" d="M9394 11149c-24,-5 -55,-16 -64,-40 20,-1 49,24 64,40z"/>
    <path class="fil0" d="M9861 10008c-10,19 -25,41 -44,54 3,-20 26,-64 44,-54z"/>
    <path class="fil0" d="M11502 10674l-50 -45c23,4 62,15 50,45z"/>
    <path class="fil0" d="M9532 9545c-14,16 -34,28 -49,9 12,-14 34,-15 49,-9z"/>
    <path class="fil0" d="M9746 9000c-22,0 -44,-14 -18,-32l18 32z"/>
    <path class="fil0" d="M9632 9527l-55 2c14,-22 37,-15 55,-2z"/>
    <path class="fil0" d="M9946 8867c-15,-13 -24,-18 -6,-38 12,12 12,17 6,38z"/>
    <path class="fil0" d="M9615 9661c-5,11 -1,6 -9,15 -2,2 -15,13 -18,15l-3 -26 30 -4z"/>
    <path class="fil0" d="M10618 9178c0,-19 -1,-23 19,-34 8,20 -2,22 -19,34z"/>
    <path class="fil0" d="M10127 11255l-58 -36c25,2 45,13 58,36z"/>
    <path class="fil0" d="M10549 9202c-8,15 -9,17 -27,23 2,-23 2,-26 27,-23z"/>
    <path class="fil0" d="M9707 9620c-12,16 -12,19 -35,9 14,-17 7,-8 35,-9z"/>
    <path class="fil0" d="M10488 9022c0,19 14,10 -18,22 0,-22 0,-21 18,-22z"/>
    <path class="fil0" d="M10410 9137c-1,-15 8,-22 22,-34 0,17 -6,24 -22,34z"/>
    <path class="fil0" d="M10110 9374c9,-23 -3,-6 19,-20l-4 29 -15 -9z"/>
    <path class="fil0" d="M9442 9428c-20,9 -21,15 -19,-11 13,0 5,-15 19,11z"/>
    <path class="fil0" d="M10533 9658c-25,5 -13,8 -30,-10 21,-3 17,-9 30,10z"/>
    <path class="fil0" d="M10065 10140c4,-19 0,-15 17,-15 -2,13 13,22 -17,15z"/>
    <path class="fil0" d="M10003 9998c-4,-2 -15,12 -12,-23 16,8 15,0 12,23z"/>
    <path class="fil0" d="M10419 8887c0,-25 -3,-10 16,-20 0,14 2,20 -16,20z"/>
    <path class="fil0" d="M10199 9485l15 -24c5,23 11,29 -15,24z"/>
    <path class="fil0" d="M10093 10056c4,20 14,4 -10,24 -3,-25 -12,-15 10,-24z"/>
    <path class="fil0" d="M10465 9264c-3,-20 -11,-11 10,-23 6,23 10,8 -10,23z"/>
    <path class="fil0" d="M10103 9501c-4,20 -2,19 -20,10 7,-11 0,-12 20,-10z"/>
    <path class="fil0" d="M10717 9685c0,-17 -11,-2 11,-20 5,19 12,19 -11,20z"/>
    <polygon class="fil0" points="10155,9382 10154,9401 10138,9389 "/>
    <path class="fil0" d="M9981 10068c-13,23 -7,9 -17,8 8,-13 -7,-12 17,-8z"/>
    <path class="fil0" d="M10420 8939l-13 15c-4,-14 0,-24 13,-15z"/>
    <path class="fil0" d="M10699 9671l-8 17c-7,-13 -17,-15 8,-17z"/>
   </g>
   <g>
    <path class="fil0" d="M8606 11400c-42,0 -161,71 -205,95 -68,35 -134,64 -204,95 -68,29 -143,47 -207,80 -11,5 -21,10 -32,15l-38 0c135,-65 269,-110 407,-173 74,-34 144,-76 219,-111 85,-39 175,-128 215,-120 -5,33 -74,62 -101,89 -33,35 -68,82 -97,122 -68,94 -93,127 -132,193l-24 0c8,-14 17,-29 26,-43 52,-85 116,-160 173,-242zm-1309 285l-19 0c24,-84 51,-167 85,-248 83,-205 195,-416 311,-603 48,-76 303,-527 287,-592 -25,24 -137,242 -167,292 -166,274 -442,598 -528,875 -30,96 -58,184 -79,276l-31 0c-13,-212 -153,-455 -218,-609 -19,-46 -264,-404 -311,-472 -53,-78 -109,-154 -163,-231 -54,-79 -111,-148 -163,-232 -46,-73 -104,-165 -154,-235 -6,55 113,508 141,580 124,323 395,768 570,1078 26,44 47,84 67,121l-19 0c-3,-6 -6,-12 -9,-18 -28,-53 -68,-112 -99,-168 -147,-265 -438,-746 -527,-1015 -38,-115 -70,-242 -96,-361 -12,-54 -82,-330 -72,-362 25,22 39,87 55,120 111,225 397,587 543,795 222,317 250,371 396,701 31,72 69,224 82,245 17,-44 40,-126 53,-174 55,-189 152,-349 265,-508 77,-109 153,-226 227,-338 28,-42 201,-303 190,-355 -54,54 -244,151 -318,196 -53,32 -107,67 -159,99 -47,29 -103,62 -154,82 -22,-31 7,-56 7,-90 -44,-30 -146,-62 -64,-195 -15,-21 -26,-56 -32,-63 -22,-25 -9,-12 -21,-62 -25,-109 5,-70 49,-150 -15,-37 -35,-77 -17,-117 27,-28 267,-12 302,-7 50,6 105,8 156,13 39,4 134,28 163,20 -103,-54 -196,-98 -296,-161 -26,-16 -41,-34 -66,-49 -22,-13 -49,-25 -68,-43 -62,-55 -31,-101 -32,-115 -4,-32 -28,-45 -26,-85 30,-50 117,-52 154,-96 1,-27 -6,-25 -7,-45 0,-12 3,-25 3,-41 -1,-30 -5,-51 0,-83 13,-79 62,-74 127,-79 25,-39 7,-164 59,-110l61 70c26,31 105,159 119,197 13,37 29,61 46,97 45,97 111,353 146,412 18,-43 12,-81 15,-126 5,-84 24,-161 33,-244 65,-564 82,-464 258,-357l47 -17c23,15 47,64 68,90 34,40 61,55 109,79l79 -56c33,23 28,56 68,83 37,-4 48,-24 80,-6 -30,144 -275,433 -403,533 -54,42 -112,85 -149,145 13,22 12,50 9,75 22,0 181,-49 209,-60 31,-13 66,-16 102,-29 33,-13 65,-25 99,-37 70,-26 346,-129 408,-98 -7,28 -34,39 -55,63 58,48 65,78 70,150 8,97 -53,88 -90,156 7,14 41,113 41,127 -4,119 -160,69 -142,222 8,70 10,80 -30,143 0,0 -7,9 -77,-15 -36,-12 -52,-27 -79,-53 -45,-41 -109,-96 -158,-130 -89,-60 -266,-205 -341,-256 2,58 52,113 69,172 16,55 38,108 57,163 31,89 141,285 116,331 -29,-1 -84,-31 -145,-36 -43,61 -14,92 -130,74 -79,-13 -94,59 -130,119 -76,-8 -41,-40 -95,-54 -59,-2 -110,94 -164,79 -27,-66 37,-268 61,-343 18,-57 30,-121 50,-175 18,-51 25,-120 42,-175 -27,14 -94,184 -139,259 -161,272 -309,521 -433,817 -23,56 -52,142 -79,230zm-200 0l-18 0c-8,-50 -15,-87 -46,-125 -24,-30 -142,-139 -147,-151 52,5 84,66 128,93 -1,-25 -72,-184 -88,-212 -27,-48 -22,-22 -44,-33 -7,-3 -43,-32 -55,-42 -32,-24 -109,-30 -98,-63 23,27 35,21 65,28 34,8 52,27 81,45 -5,-45 -70,-137 -94,-171 -59,-81 -312,-418 -302,-487 37,5 51,61 64,93 18,41 30,61 54,100 33,53 102,162 143,200 10,-56 -34,-130 -11,-135 7,-1 30,101 34,121 15,78 13,64 56,130 48,72 109,172 146,250 28,59 95,204 110,259 4,15 13,56 22,100zm1336 -835c-7,-70 -33,-98 -62,-165 -38,-92 -93,-263 -124,-325 -61,-120 -39,-121 -110,-134l22 199c-19,-26 -17,-133 -44,-176 -24,-37 11,-15 -24,-60l-43 14 -3 155c-28,5 5,-108 -31,-142 -44,134 -76,281 -109,420 -20,83 -122,352 -90,417 21,-14 48,-34 72,-51 76,-54 48,-159 81,-242 9,31 3,66 -2,98 -25,158 -29,83 32,126 31,22 10,27 39,32 26,-13 79,-103 81,-135 1,-35 -6,-91 -4,-122 25,28 21,93 18,133 33,11 90,14 123,12 23,-27 42,-63 43,-97 0,-39 -30,-29 -15,-80 20,22 32,66 32,95 29,13 91,30 118,28zm-563 -677c-23,7 -58,21 -79,17 41,-44 122,-27 156,-82 -25,-4 -86,-5 -114,-6 -12,-1 -109,13 -69,-3 91,-39 141,45 205,-49 -104,-45 -272,-67 -384,-77 -92,-7 -276,-21 -362,-8 -12,47 16,63 21,108 30,7 51,8 77,15 30,8 62,11 47,37 -9,-3 -101,-37 -123,-32 -104,74 -44,60 -46,149 33,19 -2,-6 29,8 -17,30 -8,56 25,65 18,5 50,-10 72,-13 23,-4 49,-4 72,-7 19,-2 50,-15 65,-14 -53,58 -258,-4 -244,149 3,32 26,53 55,65 41,18 112,-34 144,-59 28,-20 37,-39 66,-26 -13,20 -75,57 -99,73 -54,32 -62,22 -82,95 22,4 24,-1 48,-14l456 -274c37,-23 153,-81 143,-128 -22,-19 -49,1 -79,11zm186 8l21 -39c-25,-42 -46,-9 -68,-11 0,-28 5,-1 7,-25l-23 -41c-20,35 -34,69 -5,102 31,7 19,-4 36,-1 12,2 4,7 32,15zm117 20c32,-36 46,-75 -12,-94 -53,-17 -51,33 -61,67 31,27 29,35 73,27zm-79 -98c36,-60 2,-35 14,-94l-64 -15c-21,34 -18,58 -9,93 27,15 29,11 59,16zm-58 -130c-40,-24 -55,-9 -78,27l38 25 40 -52zm973 -131c-86,-1 -290,76 -384,112 -111,43 -179,53 -284,86l-69 22c-16,5 -10,-1 -24,12 69,26 184,-5 200,16 -11,26 -183,-5 -220,12 38,9 70,28 107,41 28,10 83,18 94,39 -22,13 -77,-16 -103,-26 -41,-15 -59,-28 -104,-37 1,28 -3,50 -3,72l485 369c46,42 93,95 159,91 25,-39 28,-60 22,-106 -8,-63 9,-61 9,-96 -14,-25 -69,-44 -97,-66 -33,-28 -59,-43 -99,-25 49,-46 109,16 211,68 40,-53 114,-34 114,-117 0,-3 -38,-137 -42,-147l-187 -42c-16,1 -42,9 -39,4 -15,-35 150,0 169,5 213,54 174,-227 65,-221 -29,1 -57,13 -84,20 -46,13 -41,20 -76,40 1,-39 128,-73 165,-80l15 -46zm-781 128c-46,-65 -137,37 -85,92 52,56 135,-23 85,-92zm-124 11c24,-20 14,-40 12,-71 -42,-28 -52,-30 -79,15 21,26 34,52 67,56zm-89 -65c20,-39 5,-75 -11,-113 -18,-41 -19,-64 -32,-105 -53,-180 -174,-487 -312,-603 -26,87 -2,87 31,159 12,25 18,52 28,77 10,24 30,47 36,70 -44,1 -63,-118 -116,-200 -120,-3 -143,18 -133,138 5,64 -10,62 48,103 36,26 69,53 90,90 -11,0 -5,2 -18,-6 -2,-1 -11,-10 -12,-11l-90 -71c-44,27 -135,60 -162,91 7,74 71,67 176,132 20,11 39,31 47,49 -50,-22 -141,-87 -188,-89 -19,30 -22,39 8,68l231 151c96,57 142,74 235,114 59,24 58,31 69,13 17,-29 -47,-40 -58,-86l86 59 27 -21 -70 -112c30,1 51,64 90,103zm203 15c25,7 26,2 48,-19l109 -95c166,-133 301,-321 403,-505 -71,-13 -77,36 -114,80 -21,25 -67,99 -96,103l126 -191c-19,-24 -27,-44 -52,-64 -61,64 -33,9 -114,123 -13,19 -94,129 -102,134 15,-68 91,-145 128,-208 -100,-60 -78,-65 -146,-136 -18,39 -75,217 -85,226 -23,-33 63,-198 60,-242 -123,-1 -37,-26 -184,-77 -49,61 -74,327 -85,415 -7,66 -22,139 -28,205 -9,108 4,118 4,147 0,29 -12,21 7,42 29,-36 48,-103 63,-147 43,37 -79,127 -6,219 34,-22 25,4 53,-35 13,-20 21,-47 39,-60 5,23 3,15 -9,37l-18 36c0,1 -1,6 -1,6 1,-1 0,4 0,6z"/>
    <path class="fil0" d="M6365 10413c-16,-17 -22,-77 -10,-100 20,21 17,68 10,100z"/>
    <path class="fil0" d="M8409 9708c3,-20 52,-77 72,-80 -1,26 -51,71 -72,80z"/>
    <path class="fil0" d="M8359 9607c-12,-21 29,-71 39,-78 10,19 5,15 -12,41 -10,16 -14,28 -27,37z"/>
    <path class="fil0" d="M8129 10727c-21,-16 -7,-10 -12,-39 -3,-23 -11,-17 -7,-42 28,22 26,48 19,81z"/>
    <path class="fil0" d="M7844 9585c-22,-9 -49,-57 -44,-82 24,16 29,58 44,82z"/>
    <path class="fil0" d="M6670 11050c-12,-15 -21,-45 -14,-65 26,3 16,7 16,27 0,21 6,24 -2,38z"/>
    <path class="fil0" d="M8044 10498c-14,-19 -13,-55 -10,-78 15,13 13,14 13,39 0,14 0,26 -3,39z"/>
    <path class="fil0" d="M6312 10377c-9,-23 -17,-55 -3,-76 12,16 8,54 3,76z"/>
    <path class="fil0" d="M7520 10134c-21,3 -48,2 -69,-7 18,-8 68,-13 69,7z"/>
    <path class="fil0" d="M7724 9604c-22,-3 -43,-13 -35,-36 18,3 31,20 35,36z"/>
    <path class="fil0" d="M8297 9480c-13,-18 -14,-44 16,-32l-16 32z"/>
    <path class="fil0" d="M7793 9677l-31 -45c26,0 33,23 31,45z"/>
    <path class="fil0" d="M8518 9573c2,-19 1,-30 28,-26 -4,17 -8,19 -28,26z"/>
    <path class="fil0" d="M7673 9737c-12,2 -6,3 -18,1 -2,-1 -19,-6 -22,-6l20 -18 20 23z"/>
    <path class="fil0" d="M8631 10305c15,-11 18,-14 38,-3 -12,18 -19,11 -38,3z"/>
    <path class="fil0" d="M6629 11045l-3 -67c13,22 15,44 3,67z"/>
    <path class="fil0" d="M8572 10261c-17,2 -19,2 -34,-10 20,-11 23,-12 34,10z"/>
    <path class="fil0" d="M7758 9790c-20,0 -23,1 -27,-23 22,2 11,2 27,23z"/>
    <path class="fil0" d="M8689 10110c-16,10 -2,17 -29,-3 19,-11 17,-11 29,3z"/>
    <path class="fil0" d="M8549 10109c13,-10 23,-6 41,-1 -15,10 -23,9 -41,1z"/>
    <path class="fil0" d="M8186 9991c24,-6 4,-6 27,4l-26 13 -1 -17z"/>
    <path class="fil0" d="M7771 9465c-19,-13 -24,-10 -1,-23 7,11 15,-4 1,23z"/>
    <path class="fil0" d="M8183 10500c-17,-19 -13,-7 -8,-30 14,16 17,9 8,30z"/>
    <path class="fil0" d="M7523 10377c18,-7 13,-9 22,6 -12,5 -11,22 -22,-6z"/>
    <path class="fil0" d="M7607 10247c-1,-4 -19,-6 12,-23 3,17 8,13 -12,23z"/>
    <path class="fil0" d="M8763 9979c20,-14 6,-9 26,2 -13,7 -16,13 -26,-2z"/>
    <path class="fil0" d="M8143 10126l28 -1c-16,17 -18,26 -28,1z"/>
    <path class="fil0" d="M7609 10354c-15,14 5,14 -26,5 19,-17 6,-18 26,-5z"/>
    <path class="fil0" d="M8474 10225c16,-13 3,-15 24,-4 -15,18 0,12 -24,4z"/>
    <path class="fil0" d="M8076 10055c-19,8 -17,9 -19,-11 13,0 10,-7 19,11z"/>
    <path class="fil0" d="M8263 10668c14,-10 -4,-10 23,-2 -14,15 -9,21 -23,2z"/>
    <polygon class="fil0" points="8205,10032 8188,10042 8189,10022 "/>
    <path class="fil0" d="M7537 10267c-27,2 -12,-1 -16,-10 15,0 6,-12 16,10z"/>
    <path class="fil0" d="M8720 10008l-20 -3c10,-11 21,-13 20,3z"/>
    <path class="fil0" d="M8265 10645l-19 3c7,-13 3,-22 19,-3z"/>
   </g>
   <g>
    <path class="fil0" d="M0 9231l0 -24c54,-19 100,-39 108,-52 -18,-8 -61,-12 -108,-14l0 -25c30,4 60,7 89,11 96,13 139,-12 144,16 -9,6 -195,72 -233,88zm0 -321l0 -22c72,31 150,50 237,56 159,10 467,-38 623,-102 -54,-29 -480,-30 -585,-47 -152,-24 -125,-18 -275,-61l0 -21 118 37c64,20 390,60 441,43 -26,-20 -171,-46 -213,-56 -100,-26 -225,-76 -346,-106l0 -16c28,7 59,16 95,27 51,16 98,34 148,49 144,41 147,46 300,80 44,10 109,32 153,32 57,1 103,7 158,13 27,4 51,13 78,12 30,-1 59,-16 75,4 -34,22 -143,31 -189,46 -62,20 -127,36 -191,51 -190,43 -440,57 -627,-19zm0 -423l0 -23c134,-62 260,-121 403,-231 -3,-136 -219,-370 -215,-624 2,-89 14,-184 53,-264 21,-43 111,-218 150,-229 3,6 -3,105 -1,125 15,143 73,279 100,420 9,47 28,92 38,142 17,82 24,178 -3,259 -8,28 -4,33 -21,61l-35 53c114,-59 258,-310 295,-440 11,-41 17,-84 11,-128 -4,-33 -1,-9 10,-37 0,-53 -145,-228 38,-587 28,-54 139,-206 184,-247l194 -168c21,-21 27,-47 55,-37 1,18 -25,49 -33,69 -61,145 -112,343 -147,493 -36,162 -84,355 -217,471l-54 63c-1,29 -12,86 -9,106 331,-229 600,-123 914,-158 104,-12 74,-4 146,-8 42,-2 118,-50 149,-20 -47,31 -111,31 -169,53 -193,74 -322,234 -481,298 -193,78 -429,51 -578,-104 -19,17 -39,74 -52,100 -31,67 -80,130 -124,189 -23,30 -65,63 -81,92 28,6 60,-7 88,-11 77,-12 160,-5 237,4 104,14 196,46 299,68 149,30 300,71 452,85 49,4 134,-8 152,15 -50,13 -114,6 -175,16 -122,19 -327,119 -534,119 -92,0 -238,0 -322,-35 -53,-23 -95,-45 -144,-77 -60,-40 -82,-75 -132,-117 -27,8 -47,26 -72,42 -80,53 -156,100 -243,142l-126 60zm395 -379l-132 -257c-69,-134 -67,-301 -28,-440 13,-43 67,-161 103,-189 8,46 -25,165 -34,209 -31,137 -12,193 12,327 12,68 59,202 79,320l0 30zm41 68c-14,-41 -30,-177 -53,-258 -46,-163 -28,-83 -59,-251 -21,-117 -27,-118 -2,-235l33 -166c5,-30 -5,-33 10,-58 12,37 12,87 22,129 11,46 21,81 34,127 24,86 39,168 61,252 40,145 77,344 -46,460zm51 35c108,-48 318,-38 436,-17l400 100c-76,10 -341,11 -432,10 -57,-1 -371,-70 -404,-93zm-15 24c74,11 229,63 387,85 44,6 220,-1 271,-6 52,-6 76,8 135,1 47,-6 225,4 266,25l-302 87c-132,38 -423,42 -535,-20 -76,-43 -175,-92 -222,-172zm325 -471c158,-161 540,-200 739,-158 -45,22 -332,113 -383,124 -85,17 -282,67 -356,34zm109 -639c-7,39 -21,75 -29,113 -8,36 -15,74 -22,111l-44 223c-32,-56 -63,-193 -61,-258 4,-161 61,-298 157,-427 72,-97 78,-112 170,-189 -14,62 -129,188 -171,427zm211 -267c-22,80 -49,161 -66,242 -30,141 -97,369 -222,455l109 -492c34,-121 136,-385 251,-448 0,28 -59,201 -72,243zm-306 934c46,-12 84,15 244,-23 87,-21 168,-37 252,-65 87,-29 170,-64 259,-83 53,-11 194,-45 241,-31 -261,127 -344,259 -530,316 -70,21 -180,29 -250,7 -66,-20 -174,-65 -216,-121z"/>
    <path class="fil0" d="M1164 7802c62,-7 104,-25 127,-12 -26,16 -33,17 -63,23 -33,7 -46,3 -57,21 46,-10 88,-8 130,-32 -1,-2 -4,-9 -4,-10 -1,-1 -2,-6 -2,-7l-1 -9c22,-8 40,-7 49,-23 -24,-17 -65,24 -144,32 -20,2 -35,-1 -35,17z"/>
    <path class="fil0" d="M218 8885c22,16 44,9 69,6 22,-2 62,4 71,-13 -12,-10 4,-10 -66,2 -31,5 -45,4 -74,5z"/>
    <path class="fil0" d="M186 8863c21,7 102,2 118,-7 -17,-19 -28,-8 -54,-3 -21,4 -43,7 -64,10z"/>
    <path class="fil0" d="M377 7705c17,3 49,-5 57,-19l-3 -11c-17,3 -45,18 -54,30z"/>
    <path class="fil0" d="M385 7742l52 -24c-12,-12 -9,-9 -25,-1 -21,9 -26,8 -27,25z"/>
   </g>
   <g>
    <path class="fil0" d="M11685 37l0 28c-24,21 -49,42 -78,62 -72,52 -154,114 -229,160 24,13 21,2 16,13 6,12 35,46 48,64 42,61 82,135 97,210 46,227 31,314 -114,502 -31,39 -61,75 -83,120 -11,22 -48,104 -60,115l-13 -1c-11,-23 7,-92 5,-124 -6,-87 -24,-172 -36,-257 -6,-40 -4,-86 -12,-124 -11,-63 -17,-188 -6,-249 16,-90 33,-102 74,-177 11,-20 34,-37 41,-56 -24,2 -61,33 -85,50 -203,144 -367,221 -553,414 23,134 272,333 305,585 12,88 14,184 -13,268 -14,46 -77,233 -114,249 -3,-4 -12,-104 -17,-123 -37,-139 -114,-265 -161,-400 -16,-45 -42,-87 -60,-135 -28,-78 -49,-173 -36,-257 5,-28 0,-33 13,-63l26 -58c-104,75 -208,345 -226,479 -5,43 -4,86 8,128 9,32 2,9 -4,38 8,53 177,204 49,586 -19,58 -106,225 -144,272l-168 195c-17,25 -19,50 -48,45 -4,-17 17,-53 22,-73 39,-152 60,-356 72,-510 12,-166 30,-363 144,-498l44 -70c-3,-29 0,-87 -6,-106 -294,275 -575,211 -881,293 -101,27 -73,14 -143,29 -41,8 -109,67 -144,42 42,-38 105,-48 159,-78 180,-102 284,-279 431,-366 180,-106 417,-115 588,17 16,-19 27,-79 36,-107 20,-71 59,-141 94,-205 19,-34 56,-73 67,-103 -29,-2 -58,15 -86,24 -74,23 -157,29 -234,31 -105,2 -202,-17 -307,-22 -151,-9 -306,-26 -459,-17 -49,3 -132,28 -153,7 48,-20 113,-22 171,-41 118,-38 306,-167 510,-197 92,-14 236,-36 324,-14 56,15 101,30 154,55 66,30 92,61 148,95 25,-11 43,-32 65,-52 71,-64 139,-122 219,-176l314 -211c-48,-8 -99,29 -316,-6 -52,-9 -101,-20 -153,-27 -148,-19 -153,-23 -309,-34 -45,-3 -112,-16 -156,-9 -56,7 -102,9 -158,10 -27,1 -52,-5 -79,0 -29,6 -56,25 -74,7 30,-26 136,-51 180,-73 58,-29 120,-55 181,-79 201,-78 482,-133 686,-55 52,20 111,56 158,87 43,30 112,90 157,106 129,-96 209,-147 312,-233zm-357 1138c-8,-25 28,-168 35,-207 9,-52 46,-265 45,-312 -3,-90 -43,-251 -13,-325 12,21 12,33 28,56 51,74 77,134 94,222 8,45 28,56 22,164 -9,181 -111,260 -211,402zm-38 60c-5,-30 -1,-77 -6,-116l-42 -350c-20,-173 -12,-319 127,-445 4,28 -5,83 -7,116 -3,38 7,78 15,115 29,143 -12,308 -38,453 -7,38 -12,74 -21,111l-15 67c0,1 0,3 -1,4l-12 45zm42 -946c-163,106 -458,10 -654,-9 -43,-4 -189,-8 -219,-23 48,-25 377,-34 443,-24l320 49c37,5 77,-3 110,7zm-24 -25c-26,7 -169,-10 -212,-16 -28,-3 -47,-13 -72,-16 -158,-20 -129,-19 -284,-20 -107,-1 -527,61 -585,40 144,-85 442,-179 600,-193 217,-18 395,52 553,205zm-584 645l169 235c87,122 110,287 92,431 -5,45 -42,169 -73,202 -15,-44 0,-167 3,-212 9,-140 -17,-192 -61,-321 -22,-66 -89,-191 -126,-305l-4 -30zm-51 -61c20,39 56,171 90,247 70,155 41,78 97,240 38,112 44,112 36,232l-7 169c-1,31 10,31 -2,59 -17,-35 -24,-85 -41,-125 -18,-44 -32,-76 -52,-120 -37,-82 -63,-161 -98,-240 -61,-137 -128,-329 -23,-462zm-56 -27c-99,64 -308,85 -428,82l-411 -39c74,-21 336,-62 426,-75 56,-7 377,14 413,32zm11 -26c-75,0 -236,-28 -395,-26 -45,1 -218,33 -267,46 -50,14 -77,3 -133,19 -46,13 -224,30 -267,15l285 -131c125,-57 412,-105 532,-60 82,31 187,65 245,137zm-251 515c-132,182 -503,278 -707,266 41,-29 312,-162 360,-180 81,-29 269,-108 347,-86zm-12 647c1,-39 9,-77 12,-116 2,-36 3,-75 5,-112l10 -227c40,50 91,181 99,245 20,160 -16,305 -92,446 -57,107 -61,122 -140,212 5,-63 100,-205 106,-448zm-170 295c11,-82 25,-166 30,-248 9,-144 41,-379 152,-483l-35 503c-15,125 -77,401 -181,480 -4,-27 29,-207 34,-252zm165 -968c-45,19 -86,-3 -239,59 -83,34 -160,61 -239,102 -82,41 -159,88 -244,120 -50,19 -185,74 -233,66 238,-164 301,-306 476,-390 67,-32 174,-56 247,-45 68,10 181,38 232,88z"/>
    <path class="fil0" d="M10009 1327c-60,16 -99,39 -124,31 24,-20 30,-23 59,-33 32,-12 45,-10 53,-29 -44,17 -86,21 -123,51 0,2 5,9 5,9 1,1 2,6 3,7l2 9c-21,10 -39,13 -45,30 26,13 61,-33 137,-53 20,-5 35,-5 33,-22z"/>
    <path class="fil0" d="M10783 115c-24,-13 -45,-3 -70,4 -21,6 -61,5 -67,23 13,9 -3,11 64,-11 30,-10 44,-11 73,-16z"/>
    <path class="fil0" d="M10818 132c-22,-4 -101,13 -116,24 20,16 29,4 54,-5 20,-7 41,-13 62,-19z"/>
    <path class="fil0" d="M10802 1306c-18,-1 -48,12 -55,27l6 9c16,-4 41,-23 49,-36z"/>
    <path class="fil0" d="M11470 880l-61 26c16,14 15,12 39,-1 18,-10 21,-7 22,-25z"/>
    <path class="fil0" d="M11482 841c-20,4 -56,22 -53,45 17,-13 45,-28 53,-45z"/>
    <path class="fil0" d="M10788 1270l-48 31c13,10 10,8 25,-2 20,-13 24,-13 23,-29z"/>
   </g>
   <g>
    <path class="fil0" d="M0 2916l0 -186c0,-12 0,-24 0,-35l0 -122c166,165 278,304 512,444 41,24 223,141 261,130 -19,-25 -213,-133 -265,-175 -66,-53 -161,-142 -217,-206 -79,-90 -180,-197 -291,-304l0 -21c54,54 107,109 160,162 139,141 288,319 461,420 -11,-34 -43,-41 -65,-69 -45,-60 -99,-157 -84,-225 49,7 27,-9 84,-34 28,-13 63,-19 82,-42 28,-35 23,-59 78,-65 224,-25 122,-24 232,-142 49,-52 119,-37 174,-4 34,-48 55,-74 113,-40 61,36 32,62 58,108 32,5 33,-10 62,5 24,12 35,28 62,41 101,-54 79,-16 149,40 23,-21 48,-41 78,-47 45,23 62,48 76,94 14,48 -5,74 -1,110 104,-95 196,-105 288,6 65,77 110,187 105,289 48,30 78,40 126,79 -6,21 -8,41 -14,61 -7,25 -21,39 -23,59 13,32 77,67 92,111 -50,83 -95,49 -136,87 37,25 88,83 78,131 -18,79 -92,42 -66,139 -56,93 -78,82 -96,196 -19,123 -96,104 -129,114 11,48 -33,113 -76,138 -58,34 -108,7 -138,20 -46,45 -35,96 -125,38 -39,60 -49,95 -127,91 -70,-3 -84,-36 -115,-91 -29,-52 -50,-74 -70,-133l-40 -132 -11 2c15,52 -45,191 -70,241 -86,168 -148,-18 -174,-25 -35,4 -71,14 -101,-13 -24,-21 -56,-78 -75,-87 -34,-17 -248,28 -277,-107 -26,-124 17,-209 123,-309 -33,-13 -189,24 -258,7 -29,-8 -36,-21 -52,-43 -22,-33 -30,-30 -53,-54 -13,-14 -19,-39 -18,-58 2,-38 8,-37 36,-52 -17,-41 12,-59 29,-98 -42,-73 -47,-121 32,-168l-3 -84c111,-38 186,24 251,12 -56,-40 -126,-83 -186,-116 -175,-96 -304,-277 -425,-377 -5,19 4,148 -21,289zm0 -789l0 -23c65,-23 118,-56 178,-97l411 -319c-27,-15 -52,-22 -80,-36 -96,-44 -76,-64 -240,-104 -95,-23 -186,-8 -269,31l0 -29 5 -3c171,-81 343,-12 490,68 110,61 154,26 158,50 -3,20 -29,28 -52,45 -89,68 -205,146 -284,219 -83,76 -198,151 -317,198zm0 -104l0 -20c31,3 60,8 77,29 -3,1 -48,-6 -77,-9zm0 -108l0 -22c51,-35 129,-86 144,-105l25 -37c17,-30 5,-126 13,-144 14,48 -8,124 7,158l67 -29 4 21c-31,-6 -112,52 -138,75 50,26 156,10 176,45 -16,6 -79,-9 -104,-11 -31,-1 -76,-20 -101,-14 -21,4 -58,32 -93,63zm1131 1465c33,-30 52,-12 74,18 -19,20 -16,16 -41,26 -24,-18 -26,-16 -33,-44zm91 -103c30,11 36,56 40,81 -44,18 -58,7 -82,-37 13,-29 12,-33 42,-44zm-74 166c-15,93 -475,185 -593,196 -35,4 -71,5 -106,6 -65,2 -57,-23 -87,-62 44,-28 156,-28 188,-65 -31,-3 -78,12 -106,24 -23,9 -96,25 -110,18 -39,-35 -19,-57 -5,-93 14,-33 -6,-24 55,-106 29,7 87,12 113,0 -48,-29 -164,21 -154,-83 10,-107 148,-18 173,-34 -5,-25 -76,-27 -101,-35 -13,-31 -19,-47 -7,-82 56,-25 286,30 347,53 116,43 41,6 180,75 53,26 141,64 186,95 -41,41 -130,-17 -180,-6 18,35 137,9 175,57 -41,37 -116,17 -165,41 55,7 153,-38 197,1zm1 -410c23,69 74,142 82,214 -24,25 -33,7 -67,43 -41,-40 -62,-116 -99,-143 10,16 33,67 44,89 15,28 48,65 42,95 -130,-70 -288,-162 -410,-243 -91,-60 -311,-280 -225,-322 17,-9 6,0 14,-8 8,-8 9,-23 25,-36 13,-11 55,-22 73,-31 55,40 101,99 157,133 -16,-41 -94,-109 -135,-137 37,-58 26,-73 94,-78 23,-2 89,-10 108,-17 47,59 64,134 89,129 8,-22 -55,-109 -69,-132 55,-61 88,-166 176,-153 113,18 57,132 98,160 5,-3 17,16 1,-41 -28,-97 -19,-75 -6,-96 15,-22 16,-36 38,-47 110,-10 85,127 88,193 4,80 -10,155 -7,231l12 339c4,39 21,84 11,118 -67,-71 -87,-222 -134,-260zm88 442c2,46 -62,37 -62,-3 0,-42 61,-35 62,3zm403 -902c145,90 8,236 -61,328 -49,66 -173,323 -223,341 -5,-38 37,-126 39,-168 -20,14 -48,147 -77,195 -62,-77 -32,-707 -25,-723 52,-18 66,-4 107,33 -3,81 -34,56 0,134 1,-1 10,-110 39,-139 45,-45 92,10 105,51 -5,29 -29,83 -34,109 33,-2 43,-64 55,-91 19,-44 37,-46 75,-70zm-348 860c-24,26 -56,-9 -61,-14l38 -36 30 28c-1,12 17,-4 -7,22zm35 -140c40,29 48,63 -3,86 -57,-19 -32,-59 3,-86zm3 214c-10,13 7,6 -20,24 -96,-35 -6,-104 36,-44 -4,32 4,-6 -16,20zm49 -120c29,23 28,44 15,73 -35,-6 -31,0 -59,-29 11,-19 25,-37 44,-44zm-149 431c4,44 -6,46 -6,84 -1,104 -40,277 -130,343 -39,-25 -54,-46 -73,-83 4,-48 53,-141 60,-204 -27,39 -64,173 -84,188 -60,46 -130,-39 -154,-87 9,-32 17,-27 29,-48 10,-17 10,-32 23,-51 25,-37 55,-36 56,-92 -24,38 -58,66 -71,88 -25,43 1,15 -57,97 -55,-17 -136,0 -197,-29 -1,-38 64,-134 56,-156 -36,22 -56,106 -79,144 -132,-115 64,-352 146,-381l291 -81c32,-11 57,-33 88,-49 0,2 0,5 0,7 0,1 1,4 1,6 -3,44 4,-14 -2,12 -7,36 -73,101 -79,141 48,-45 79,-105 110,-163l31 22c-1,64 -76,165 -85,236 25,-15 71,-156 96,-196l30 252zm757 -1046c87,75 94,185 107,271 -28,13 -55,30 -85,45 -28,13 -49,17 -78,31 101,7 128,-75 210,-34 24,12 54,29 70,51 10,48 -27,115 -76,123l-125 28c174,2 155,-64 258,68 -45,76 -142,60 -217,71 -74,10 -150,6 -222,14 -75,9 -251,-18 -346,-24 -65,-4 -22,-24 -105,-54 37,-35 176,-26 224,-60 -32,-2 -212,40 -217,32 1,-34 230,-144 246,-209 -42,36 -83,74 -130,105 -24,15 -46,29 -70,43 -9,5 -28,17 -35,21 -31,16 -9,16 -36,0 2,-33 9,-21 31,-41 15,-14 28,-34 40,-51 78,-115 108,-222 196,-318 48,-53 93,-104 152,-146 81,-56 114,-42 197,11 -28,32 -155,82 -157,113 53,-30 120,-53 168,-90zm-385 531l26 -3 -4 -7 -22 10zm-185 183c193,117 385,255 483,454 59,118 -14,217 -111,218 -103,1 -34,-62 -166,-203 -10,60 162,164 38,270 -86,-32 -82,-153 -119,-161l52 127c-25,41 -44,97 -96,100 -56,3 -83,-24 -111,-69 -53,-87 -74,-126 -102,-225 -23,-79 -81,-421 -41,-482 39,51 25,126 62,181l-27 -147c33,-3 47,-9 77,-15l98 131c-13,-62 -92,-108 -83,-178 35,21 130,134 152,136 -26,-48 -94,-90 -106,-137zm-111 214c-3,-9 2,5 0,0zm236 356c-2,-8 2,7 0,0zm516 -200c-22,73 -23,146 -120,139 6,-73 -137,-232 -188,-283 -159,-158 -260,-189 -330,-249 18,-46 4,-31 57,-29 207,11 243,39 491,17 23,-2 128,-10 141,-5 50,18 165,108 46,185 -62,41 -169,-48 -207,-26 46,45 136,47 193,74 -11,81 -43,84 -79,152l-104 -63c25,32 70,47 100,88z"/>
    <path class="fil0" d="M394 1650c27,42 37,70 52,80 8,-13 20,-18 -23,-68 -26,-29 -19,-13 -29,-12z"/>
    <path class="fil0" d="M1375 2801c-26,9 -28,61 -16,79 8,-15 23,-63 16,-79z"/>
    <path class="fil0" d="M858 2883c-11,22 3,28 20,46 15,16 24,32 43,36l-63 -82z"/>
    <path class="fil0" d="M1937 3295c-21,-2 -68,-7 -79,9 15,4 89,16 79,-9z"/>
    <path class="fil0" d="M361 1666c4,21 31,53 50,67 6,-22 3,-19 -17,-40 -12,-13 -19,-23 -33,-27z"/>
    <path class="fil0" d="M998 2829c-9,25 15,64 40,65l-40 -65z"/>
    <path class="fil0" d="M1506 2788c-14,-2 -10,-12 -24,14 -10,19 -7,22 0,32 15,-18 24,-25 24,-46z"/>
    <path class="fil0" d="M1766 2893c-26,5 -47,21 -43,45 10,-6 52,-38 43,-45z"/>
    <path class="fil0" d="M652 3277l90 9c-31,-18 -59,-26 -90,-9z"/>
    <path class="fil0" d="M624 3500c24,4 48,0 64,-20 -23,-1 -44,3 -64,20z"/>
    <path class="fil0" d="M1126 3851c-15,7 -24,36 -26,50 18,-6 35,-31 26,-50z"/>
    <path class="fil0" d="M1021 3754c-14,17 -31,38 -30,55 17,-10 37,-34 30,-55z"/>
    <path class="fil0" d="M1160 2666c-17,15 -12,39 8,66l-8 -66z"/>
    <path class="fil0" d="M1863 3573c20,17 24,18 49,18 -2,-4 2,-9 -22,-17 -18,-5 -9,-5 -27,-1z"/>
    <path class="fil0" d="M1464 2899c-18,8 -23,15 -24,36 11,-2 -2,15 16,-10 12,-17 8,-16 8,-26z"/>
    <path class="fil0" d="M1867 3132l3 19c24,0 10,7 22,-10 -17,-17 -1,-11 -25,-9z"/>
    <path class="fil0" d="M1791 3550c3,9 -12,15 22,16 -1,-23 -1,-20 -22,-16z"/>
    <path class="fil0" d="M575 3369l46 9c-11,-18 -27,-17 -46,-9z"/>
    <path class="fil0" d="M810 3675c22,13 7,16 29,3 -12,-18 -14,-11 -29,-3z"/>
    <path class="fil0" d="M737 3779c11,24 5,17 22,8 -6,-18 -7,-14 -22,-8z"/>
    <path class="fil0" d="M903 3337c10,20 1,17 22,7 -10,-17 -2,-16 -22,-7z"/>
    <path class="fil0" d="M1601 3898c-24,10 -17,8 0,21 17,-28 8,-1 0,-21z"/>
    <path class="fil0" d="M1794 3307c0,21 -6,16 17,18 -6,-25 -1,-16 -17,-18z"/>
    <path class="fil0" d="M803 3304c3,24 0,19 21,17 -8,-13 -3,-13 -21,-17z"/>
    <path class="fil0" d="M893 3651c-17,-2 -19,-4 -13,18 19,-9 12,1 13,-18z"/>
    <path class="fil0" d="M1112 2996c18,6 9,13 25,-4 -20,-13 -8,-13 -25,4z"/>
    <path class="fil0" d="M1493 3992c-14,20 -9,8 4,21 11,-20 19,-7 -4,-21z"/>
    <path class="fil0" d="M1843 3700c10,20 5,16 22,6 -9,-14 -5,-13 -22,-6z"/>
    <path class="fil0" d="M949 3008l-9 11c11,10 -5,8 20,5 -5,-22 5,-12 -11,-16z"/>
    <path class="fil0" d="M705 3845c16,-2 14,2 18,-14 -5,1 -13,-17 -18,14z"/>
    <path class="fil0" d="M1894 3730c0,24 4,24 21,11l-21 -11z"/>
    <path class="fil0" d="M1834 3134l-25 6c16,10 28,14 25,-6z"/>
    <path class="fil0" d="M816 3722c-21,-4 -26,-1 -14,15l14 -15z"/>
    <path class="fil0" d="M1650 2998c8,19 -7,12 16,11 -4,-14 10,-19 -16,-11z"/>
    <path class="fil0" d="M560 3253c-4,15 -6,12 10,15 0,-9 12,-12 -10,-15z"/>
    <path class="fil0" d="M1176 2867c8,27 -1,12 16,11 -8,-14 3,-11 -16,-11z"/>
    <path class="fil0" d="M1173 2807c-25,0 -8,-6 -18,10 21,4 19,-9 18,-10z"/>
    <path class="fil0" d="M1558 3865l25 -2c-19,-14 -8,-19 -25,2z"/>
    <path class="fil0" d="M904 3447l17 3c-10,-24 -5,-24 -17,-3z"/>
    <path class="fil0" d="M1725 3531c3,7 -10,10 16,10 -7,-16 4,-14 -16,-10z"/>
    <path class="fil0" d="M1426 3852c5,15 -16,1 4,9 15,7 -2,4 15,2 -15,-19 -1,-9 -19,-11z"/>
    <path class="fil0" d="M1350 2927c5,19 -5,11 14,10 -6,-13 4,-12 -14,-10z"/>
    <path class="fil0" d="M1463 3934c12,24 3,9 16,11 -8,-14 3,-12 -16,-11z"/>
    <path class="fil0" d="M1398 3810l-11 13c15,1 22,3 11,-13z"/>
    <path class="fil0" d="M1006 3659c7,14 0,8 16,10 -8,-17 5,-11 -16,-10z"/>
    <path class="fil0" d="M782 3466l25 -1c-19,-9 -9,-12 -25,1z"/>
   </g>
  </g>
 </g>
</svg>
